<svg xmlns="http://www.w3.org/2000/svg" width="60" height="60" viewBox="0 0 60 60" class="heroicon-cart heroicon heroicon-sm">
    <path class="heroicon-cart-frame heroicon-component-fill" d="M50 48h.5a.5.5 0 0 0 .5-.5.5.5 0 0 0-.5-.5H12a5 5 0 0 1 0-10h39.44l.25-1H17.14l-.38-1.51L9.5 5.43C9.45 5.24 9.13 5 8.96 5H7v1h1.61l.38 1.51 6.5 26L16.1 36H12a6 6 0 1 0 0 12h4v5h3l5-5h18v5h3l5-5z"></path>
    <path class="heroicon-cart-basket heroicon-component-accent heroicon-component-fill" d="M12 10h47v4h-1l-5 21H18l-6-25zm7.78 17l1 4H24v-4h-4.22zM27 27v4h7v-4h-7zm10 0v4h7v-4h-7zm10 0v4h3.22l1-4H47zm-28.72-6l.75 3H24v-3h-5.72zm33.69 3l.75-3H47v3h4.97zM27 24h7v-3h-7v3zm10 0h7v-3h-7v3zm17.47-10H47v4h6.47l1-4zM44 14h-7v4h7v-4zm-10 0h-7v4h7v-4zm-10 0h-7.47l1 4H24v-4z"></path>
    <path class="heroicon-cart-handle heroicon-component-accent heroicon-component-fill" d="M1 5.5A2.5 2.5 0 0 1 3.5 3H6v5H3.5A2.5 2.5 0 0 1 1 5.5z"></path>
    <path class="heroicon-cart-wheels heroicon-component-accent heroicon-component-fill" d="M17 56a3 3 0 0 1-2-5.24V54h4l1-1a3 3 0 0 1-3 3zm26 0a3 3 0 0 1-2-5.24V54h4l1-1a3 3 0 0 1-3 3z"></path>
    <path class="heroicon-shadows" d="M13 14h3v2h-3v-2zm11 0h3v2h-3v-2zm10 0h3v2h-3v-2zm10 0h3v2h-3v-2zm11 0h3v2h-3v-2zM16 50h5v1h-5v-1zm26 0h5v1h-5v-1z"></path>
    <path class="heroicon-outline" fill-rule="nonzero" d="M0 5.5A3.5 3.5 0 0 1 3.5 2H7v1h1.96c1.1 0 2.21.87 2.48 1.94L12.45 9H59a1 1 0 0 1 1 1v4a1 1 0 0 1-1 1l-4.75 19-.5 2-.75 3H12a3 3 0 1 0 0 6h38.5a2.5 2.5 0 1 1 0 5H49l-1.3 1.3A4.99 4.99 0 1 1 39 50H23l-1.3 1.3A4.99 4.99 0 1 1 13 50h-1a8 8 0 1 1 0-16h1.55l-.5-2-6-24H7v1H3.5A3.5 3.5 0 0 1 0 5.5zM3.5 4a1.5 1.5 0 1 0 0 3H5V4H3.5zM7 6h1.61l.38 1.51 6.5 26L16.1 36H12a6 6 0 1 0 0 12h38.5a.5.5 0 0 0 .5-.5.5.5 0 0 0-.5-.5H12a5 5 0 0 1 0-10h39.44l.25-1H17.14l-.38-1.51L9.5 5.43C9.45 5.24 9.13 5 8.96 5H7v1zm10 46h1.17l2-2H17v2zm26 0h1.17l2-2H43v2zM13.45 13H58v-2H13v.2l.45 1.8zm5.25 21H52.2l4.87-19.49.13-.51H55.5l-1.25 5H46v-5h-1v5h-9v-5h-1v5h-9v-5h-1v5h-8.25l-1.25-5h-1.8l5 20zm35.77-20H47v4h6.47l1-4zM44 14h-7v4h7v-4zm-10 0h-7v4h7v-4zm-10 0h-7.47l1 4H24v-4zm-7 42a3 3 0 0 0 3-3l-1 1h-4v-3.24A3 3 0 0 0 17 56zm26 0a3 3 0 0 0 3-3l-1 1h-4v-3.24A3 3 0 0 0 43 56zM18.75 27l-.25-1H25v6h-5l-1.25-5zm1.03 0l1 4H24v-4h-4.22zM26 26h9v6h-9v-6zm1 1v4h7v-4h-7zm9-1h9v6h-9v-6zm1 1v4h7v-4h-7zm9-1h6.5l-.25 1L51 32h-5v-6zm1 1v4h3.22l1-4H47zm-28.75-2l-1-4-.25-1h8v5h-6.75zm.03-4l.75 3H24v-3h-5.72zM54 20l-.25 1-1 4H46v-5h8zm-2.03 4l.75-3H47v3h4.97zM34 25h-8v-5h9v5h-1zm-7-1h7v-3h-7v3zm17 1h-8v-5h9v5h-1zm-7-1h7v-3h-7v3z"></path>
</svg>
