<svg xmlns="http://www.w3.org/2000/svg" width="60" height="60" viewBox="0 0 60 60" class="heroicon-currency heroicon heroicon-sm">
    <rect class="heroicon-currency-background heroicon-component-fill" width="58" height="37" x="1" y="12"></rect>
    <path class="heroicon-currency-decorative heroicon-component-accent heroicon-component-fill" d="M56 35a4 4 0 0 0-4 4H8a4 4 0 0 0-4-4V19a4 4 0 0 0 4-4h44a4 4 0 0 0 4 4v16zm-2-1.66V20.66A6.02 6.02 0 0 1 50.34 17H9.66A6.02 6.02 0 0 1 6 20.66v12.68c1.7.6 3.06 1.96 3.66 3.66h40.68A6.02 6.02 0 0 1 54 33.34zM30 34a7 7 0 1 1 0-14 7 7 0 0 1 0 14zm0-4a3 3 0 1 0 0-6 3 3 0 0 0 0 6zm-15-1a2 2 0 1 1 0-4 2 2 0 0 1 0 4zm30 0a2 2 0 1 1 0-4 2 2 0 0 1 0 4z"></path>
    <rect class="heroicon-shadows" width="58" height="7" x="1" y="42"></rect>
    <path class="heroicon-outline" fill-rule="nonzero" d="M0 47V11h60v39H0v-3zm2-6h56V13H2v28zm0 2v1h14v1H2v1h20v1H2v1h56v-1H41v-1h17v-1H47v-1h11v-1H2zm49-28h1a4 4 0 0 0 4 4v16a4 4 0 0 0-4 4H8a4 4 0 0 0-4-4V19a4 4 0 0 0 4-4h43zm.1 1H8.9A5 5 0 0 1 5 19.9v14.2A5 5 0 0 1 8.9 38h42.2a5 5 0 0 1 3.9-3.9V19.9a5 5 0 0 1-3.9-3.9zM54 33.34A6.02 6.02 0 0 0 50.34 37H9.66A6.02 6.02 0 0 0 6 33.34V20.66A6.02 6.02 0 0 0 9.66 17h40.68A6.02 6.02 0 0 0 54 20.66v12.68zM7 21.33v11.34A7.02 7.02 0 0 1 10.33 36h39.34A7.02 7.02 0 0 1 53 32.67V21.33A7.02 7.02 0 0 1 49.67 18H10.33A7.02 7.02 0 0 1 7 21.33zM37 27a7 7 0 1 1-14 0 7 7 0 0 1 14 0zm-7 6a6 6 0 1 0 0-12 6 6 0 0 0 0 12zm0-2a4 4 0 1 1 0-8 4 4 0 0 1 0 8zm3-4a3 3 0 1 0-6 0 3 3 0 0 0 6 0zm-16 0a2 2 0 1 1-4 0 2 2 0 0 1 4 0zm-2 1a1 1 0 1 0 0-2 1 1 0 0 0 0 2zm30 1a2 2 0 1 1 0-4 2 2 0 0 1 0 4zm1-2a1 1 0 1 0-2 0 1 1 0 0 0 2 0z"></path>
</svg>
