<svg xmlns="http://www.w3.org/2000/svg" width="60" height="60" viewBox="0 0 60 60" class="heroicon-package heroicon heroicon-sm">
    <path class="heroicon-package-box heroicon-component-fill" d="M3 11h54v48H3V11zm18 12a2 2 0 0 0 2 2h14a2 2 0 0 0 0-4H23a2 2 0 0 0-2 2z"></path>
    <rect class="heroicon-package-lid heroicon-component-accent heroicon-component-fill" width="58" height="10" x="1" y="1"></rect>
    <path class="heroicon-package-handle heroicon-component-accent heroicon-component-fill" d="M18 23a5 5 0 0 1 5-5h14a5 5 0 0 1 0 10H23a5 5 0 0 1-5-5zm3 0a2 2 0 0 0 2 2h14a2 2 0 0 0 0-4H23a2 2 0 0 0-2 2z"></path>
    <rect class="heroicon-shadows" width="56" height="6" x="2" y="8"></rect>
    <path class="heroicon-outline" fill-rule="nonzero" d="M0 8V2C0 .9.9 0 2 0h56a2 2 0 0 1 2 2v8a2 2 0 0 1-2 2v46a2 2 0 0 1-2 2H4a2 2 0 0 1-2-2V12a2 2 0 0 1-2-2V8zm2-6v6h18v1H2v1h56V2H2zm2 10v46h52V12H4zm20-4h2v1h-4V8h2zm22 0h2v1H28V8h18zM23 18h14a5 5 0 0 1 0 10H23a5 5 0 0 1 0-10zm0 1a4 4 0 0 0 0 8h14a4 4 0 0 0 0-8H23zm-3 4a3 3 0 0 1 3-3h14a3 3 0 1 1 0 6H23a3 3 0 0 1-3-3zm2 0a1 1 0 0 0 1 1h14a1 1 0 1 0 0-2H23a1 1 0 0 0-1 1z"></path>
</svg>
