<svg xmlns="http://www.w3.org/2000/svg" width="60" height="60" viewBox="0 0 60 60" class="heroicon-folder-x heroicon heroicon-sm">
    <polygon class="heroicon-folder-x-tab heroicon-component-accent heroicon-component-fill" points="1 2 27 2 33 8 59 8 59 12 1 12"></polygon>
    <path class="heroicon-folder-x-cover heroicon-component-fill" d="M59 48V12H1v36h36a11 11 0 0 1 22 0z"></path>
    <circle class="heroicon-folder-x-circle heroicon-component-accent heroicon-component-fill" cx="48" cy="48" r="11"></circle>
    <polygon class="heroicon-folder-x-symbol heroicon-component-fill" points="48 45.172 44.464 41.636 41.636 44.464 45.172 48 41.636 51.536 44.464 54.364 48 50.828 51.536 54.364 54.364 51.536 50.828 48 54.364 44.464 51.536 41.636"></polygon>
    <rect class="heroicon-shadows" width="58" height="2" x="1" y="10"></rect>
    <path class="heroicon-outline" fill-rule="nonzero" d="M27 1l6 6h25a2 2 0 0 1 2 2v38c0 .1 0 .2-.02.29L60 48a12 12 0 0 1-23.96 1H2a2 2 0 0 1-2-2V3c0-1.1.9-2 2-2h25zm31 14H2v32h34.04A12 12 0 0 1 58 41.36V15zM2 14h56v-1H2v1zm56-3V9H32.17l-.58-.59L26.17 3H2v8h56zM48 58a10 10 0 1 0 0-20 10 10 0 0 0 0 20zM22 8v1H4V8h18zm4-3v1H4V5h22zm24.83 43l3.53 3.54-2.82 2.82L48 50.83l-3.54 3.53-2.82-2.82L45.17 48l-3.53-3.54 2.82-2.82L48 45.17l3.54-3.53 2.82 2.82L50.83 48zm2.12-3.54l-1.41-1.41L48 46.59l-3.54-3.54-1.41 1.41L46.59 48l-3.54 3.54 1.41 1.41L48 49.41l3.54 3.54 1.41-1.41L49.41 48l3.54-3.54z"></path>
</svg>
