<svg xmlns="http://www.w3.org/2000/svg" width="60" height="60" viewBox="0 0 60 60" class="heroicon-folder-check heroicon heroicon-sm">
    <polygon class="heroicon-folder-check-tab heroicon-component-accent heroicon-component-fill" points="1 2 27 2 33 8 59 8 59 12 1 12"></polygon>
    <path class="heroicon-folder-check-cover heroicon-component-fill" d="M59 48V12H1v36h36a11 11 0 0 1 22 0z"></path>
    <circle class="heroicon-folder-check-circle heroicon-component-accent heroicon-component-fill" cx="48" cy="48" r="11"></circle>
    <polygon class="heroicon-folder-check-symbol heroicon-component-fill" points="47 54.83 40.88 48.71 43.71 45.88 47 49.18 53.3 42.88 56.12 45.71"></polygon>
    <rect class="heroicon-shadows" width="58" height="2" x="1" y="10"></rect>
    <path class="heroicon-outline" fill-rule="nonzero" d="M33 7h25a2 2 0 0 1 2 2v38c0 .1 0 .2-.02.29L60 48a12 12 0 0 1-23.96 1H2a2 2 0 0 1-2-2V3c0-1.1.9-2 2-2h25l6 6zm25 34.36V15H2v32h34.04A12 12 0 0 1 58 41.36zM58 14v-1H2v1h56zm0-5H32.17l-.58-.59L26.17 3H2v8h56V9zM48 58a10 10 0 1 0 0-20 10 10 0 0 0 0 20zm-1-3.17l-6.12-6.12 2.83-2.83 3.29 3.3 6.3-6.3 2.82 2.83L47 54.83zm-4.7-6.12l4.7 4.7 7.7-7.7-1.4-1.42-6.3 6.3-3.3-3.3-1.4 1.42zM4 8h18v1H4V8zm0-3h22v1H4V5z"></path>
</svg>
