<svg xmlns="http://www.w3.org/2000/svg" width="60" height="60" viewBox="0 0 60 60" class="heroicon-envelope-search heroicon heroicon-sm">
    <rect class="heroicon-envelope-search-body heroicon-component-fill" width="60" height="36" y="6" rx="2"></rect>
    <path class="heroicon-envelope-search-sides heroicon-component-accent heroicon-component-fill" d="M55 31.25V11l4-4v29.2a12.04 12.04 0 0 0-4-4.95zM1 7l4 4v26l-4 4V7z"></path>
    <circle class="heroicon-envelope-search-circle heroicon-component-accent heroicon-component-fill" cx="48" cy="41" r="12"></circle>
    <path class="heroicon-envelope-search-symbol heroicon-component-fill" d="M51.24 35.76a6 6 0 0 1 1.18 6.83l1.36 1.36.7.7-.7.71-1.42 1.42-.7.7-.71-.7-1.36-1.36a6 6 0 1 1 1.65-9.66zm-5.65 2.83a2 2 0 1 0 2.82 2.82 2 2 0 0 0-2.82-2.82z"></path>
    <polygon class="heroicon-shadows" points="2 9 30 32 58 9 59 9 30 35 1 9"></polygon>
    <path class="heroicon-outline" fill-rule="nonzero" d="M60 40c0 .1 0 .2-.02.29L60 41a12 12 0 0 1-23.96 1H2a2 2 0 0 1-2-2V8c0-1.1.9-2 2-2h56a2 2 0 0 1 2 2v32zM4 11.2L2 9.6v28.8l2-1.6V11.2zM5 36l15-12L5 12v24zm-1.8 4h32.84a12 12 0 0 1 7.9-10.3l-5.54-4.42L30 32l-8.4-6.72L3.2 40zM48 29c2.61 0 5.03.83 7 2.25V12L40 24l6.38 5.1c.53-.06 1.07-.1 1.62-.1zm10 5.36V9.6l-2 1.6v20.86a12.2 12.2 0 0 1 2 2.3zM3.2 8L30 29.44 56.8 8H3.2zM48 51a10 10 0 1 0 0-20 10 10 0 0 0 0 20zm4.42-8.41l1.36 1.36.7.7-.7.71-1.42 1.42-.7.7-.71-.7-1.36-1.36a6 6 0 1 1 2.83-2.83zm-1.47 2.77l.7.71.71-.7.7-.7.01-.01v-.01l-1.9-1.9a5 5 0 1 0-1.41 1.42l1.19 1.2v-.01zm-1.76-3.31a3 3 0 1 1-4.38-4.1 3 3 0 0 1 4.38 4.1zm-.67-3.38a2.02 2.02 0 1 0-2.86 2.84 2.02 2.02 0 0 0 2.85-2.84h.01z"></path>
</svg>
