<svg xmlns="http://www.w3.org/2000/svg" width="60" height="60" viewBox="0 0 60 60" class="heroicon-gift heroicon heroicon-sm">
    <path class="heroicon-gift-box heroicon-component-fill" d="M57 19h1a1 1 0 0 0 1-1v-8a1 1 0 0 0-1-1H2a1 1 0 0 0-1 1v8a1 1 0 0 0 1 1h1v39a1 1 0 0 0 1 1h52a1 1 0 0 0 1-1V19z"></path>
    <path class="heroicon-gift-bow heroicon-component-accent heroicon-component-fill" d="M26 5L14.83 1.01C13.27.45 12 1.34 12 3v6h12v50h12V9h12V3C48 1.35 46.73.45 45.17 1L34 5V4a1 1 0 0 0-1-1h-6a1 1 0 0 0-1 1v1z"></path>
    <rect class="heroicon-shadows" width="56" height="6" x="2" y="16"></rect>
    <path class="heroicon-outline" fill-rule="nonzero" d="M56 60H4a2 2 0 0 1-2-2V20a2 2 0 0 1-2-2v-8c0-1.1.9-2 2-2h9V3C11 .8 12.68-.36 14.75.42L25 4.25V4c0-1.1.9-2 2-2h6a2 2 0 0 1 2 2v.25L45.25.41C47.32-.37 49 .8 49 3.01v5h9a2 2 0 0 1 2 2v8a2 2 0 0 1-2 2V58a2 2 0 0 1-2 2zM24.7 8h.3V6.4l-10.95-4.1c-.56-.22-.78-.08-.81-.06-.03.02-.24.18-.24.78v5h4V5.1l2.7 1.02 5 1.87zM33 8V4h-6v4h6zm-14 2H2v6h19v1H2v1h21v-8h-4zM4 20v38h19V20H4zm21 0v38h10V20H25zm31 38V20H37v38h19zm0-40h2v-8H37v6h15v1H37v1h19zM40.3 6.13L43 5.12V8h4V3c0-.59-.2-.75-.24-.77-.03-.02-.25-.16-.8.05L35 6.4V8h.3l5-1.87zM25 18h10v-1h-6v-1h6v-6H25v6h2v1h-2v1z"></path>
</svg>
