<svg xmlns="http://www.w3.org/2000/svg" width="60" height="60" viewBox="0 0 60 60" class="heroicon-female2 heroicon heroicon-sm">
    <path class="heroicon-female2-top heroicon-component-accent heroicon-component-fill" d="M7.58 51.34c-.9.6-1.48 1.58-1.58 2.66v4h48v-4a3.6 3.6 0 0 0-1.58-2.66l-11.4-6.13c-.25.24-.51.4-.8.53a3 3 0 0 1 .43.85l-.02.06c.27.75.2 1.6-.24 2.35a3 3 0 0 1-2.9 1.5 3 3 0 0 1-.06.93l-.05.05c-.16.81-.66 1.5-1.38 1.91a3 3 0 0 1-3.26-.16 3 3 0 0 1-5.48 0 3 3 0 0 1-4.75-2.74 3 3 0 0 1-.94-.06l-.05-.05c-.8-.16-1.5-.66-1.91-1.38a3 3 0 0 1 .16-3.26 3 3 0 0 1-.79-.52l-11.4 6.12z"></path>
    <path class="heroicon-female2-collar heroicon-component-accent heroicon-component-fill" d="M37 43.04a7 7 0 0 1-14 0l-3.07 1.65a2 2 0 0 0 .25.14l1.13.5-.72 1a2 2 0 0 0 1.82 3.16l1.23-.13-.13 1.23a2 2 0 0 0 3.16 1.82l1-.72.5 1.13a2 2 0 0 0 3.66 0l.5-1.13 1 .73a2 2 0 0 0 3.16-1.83l-.13-1.23 1.23.13a2 2 0 0 0 1.82-3.16l-.72-1 1.13-.5a2 2 0 0 0 .25-.14L37 43.04z"></path>
    <path class="heroicon-female2-face heroicon-component-fill" d="M41.96 30A12 12 0 0 1 35 39.91v3.1a5 5 0 0 1-10 0v-3.1A12.02 12.02 0 0 1 18.04 30H16a3 3 0 0 1 0-6h2v-5.1c4.5-.48 8.7-2.52 11.86-5.76A19.94 19.94 0 0 0 42 18.9V24h2a3 3 0 0 1 0 6h-2.04z"></path>
    <path class="heroicon-female2-hair heroicon-component-fill" d="M42.1 43.5A10 10 0 0 0 49 34V14.56l-.03-.43A13 13 0 0 0 30.8 3.08l-.8.35-.8-.35a13 13 0 0 0-18.17 11.05l-.03.43V34c0 4.45 2.9 8.22 6.9 9.52l.13-.07 4.66-2.5A14.02 14.02 0 0 1 16.14 31H16a4 4 0 1 1 0-8v-6a17.6 17.6 0 0 0 13.85-6.87A17.99 17.99 0 0 0 44 17v6a4 4 0 1 1 0 8h-.14c-.6 4.2-3.08 7.8-6.55 9.94l4.66 2.5.12.07h.01z"></path>
    <path class="heroicon-female2-mouth heroicon-component-fill" d="M30 37a4 4 0 0 0 3.47-2h-6.94A4 4 0 0 0 30 37z"></path>
    <path class="heroicon-shadows" d="M18 19.9v-1c4.5-.48 8.7-2.52 11.86-5.76A19.94 19.94 0 0 0 42 18.9v1c-4.6-.45-8.88-2.49-12.14-5.76A19.53 19.53 0 0 1 18 19.9zM43.86 31H44c.7 0 1.35-.18 1.92-.5a15.99 15.99 0 0 1-6.62 11.51l2.89 1.56A18.92 18.92 0 0 1 30 48c-4.64 0-8.9-1.66-12.2-4.43l1.66-.89 1.23-.67a15.99 15.99 0 0 1-6.62-11.5c.57.31 1.22.49 1.92.49h.15a14 14 0 0 0 27.72 0z"></path>
    <path class="heroicon-outline" fill-rule="nonzero" d="M43.8 2.18A15 15 0 0 1 50.97 14L51 34a12 12 0 0 1-6.64 10.73l9 4.85A5.52 5.52 0 0 1 56 54v6H4v-6a5.52 5.52 0 0 1 2.64-4.42l9-4.85A12 12 0 0 1 9 34V14A15.05 15.05 0 0 1 30 1.25a15 15 0 0 1 13.8.93zM49 34V14.56l-.03-.43A13 13 0 0 0 30.8 3.08l-.8.35-.8-.35a13 13 0 0 0-18.17 11.05l-.03.43V34c0 4.45 2.9 8.22 6.9 9.52l.13-.07 4.66-2.5A14.02 14.02 0 0 1 16.14 31H16a4 4 0 1 1 0-8v-6a17.6 17.6 0 0 0 13.85-6.87A17.99 17.99 0 0 0 44 17v6a4 4 0 1 1 0 8h-.14c-.6 4.2-3.08 7.8-6.55 9.94l4.66 2.5.12.07a10.02 10.02 0 0 0 6.91-9.5zm-7-15.1c-4.6-.45-8.88-2.49-12.14-5.76A19.53 19.53 0 0 1 18 18.9V29a12 12 0 1 0 24 0V18.9zm2 6.1v4a2 2 0 1 0 0-4zm-28 0a2 2 0 1 0 0 4v-4zm9 18a5 5 0 0 0 10 0v-.92a13.96 13.96 0 0 1-10 0V43zm12 .04a7 7 0 0 1-14 0l-3.07 1.65a2 2 0 0 0 .25.14l1.13.5-.72 1a2 2 0 0 0 1.82 3.16l1.23-.13-.13 1.23a2 2 0 0 0 3.16 1.82l1-.72.5 1.13a2 2 0 0 0 3.66 0l.5-1.13 1 .73a2 2 0 0 0 3.16-1.83l-.13-1.23 1.23.13a2 2 0 0 0 1.82-3.16l-.72-1 1.13-.5a2 2 0 0 0 .25-.14L37 43.04zm-29.42 8.3c-.9.6-1.48 1.58-1.58 2.66v4h5v-4h1v4h36v-4h1v4h5v-4a3.6 3.6 0 0 0-1.58-2.66l-11.4-6.13c-.25.24-.51.4-.8.53a3 3 0 0 1 .43.85l-.02.06c.27.75.2 1.6-.24 2.35a3 3 0 0 1-2.9 1.5 3 3 0 0 1-.06.93l-.05.05c-.16.81-.66 1.5-1.38 1.91a3 3 0 0 1-3.26-.16 3 3 0 0 1-5.48 0 3 3 0 0 1-4.75-2.74 3 3 0 0 1-.94-.06l-.05-.05c-.8-.16-1.5-.66-1.91-1.38a3 3 0 0 1 .16-3.26 3 3 0 0 1-.79-.52l-11.4 6.12zM35 26a1 1 0 1 1 0-2 1 1 0 0 1 0 2zm0-6a5 5 0 0 1 4.47 2.76l-.9.45a4 4 0 0 0-3.57-2.2v-1zm-10 1a4 4 0 0 0-3.58 2.21l-.9-.45A5 5 0 0 1 25 20v1zm1 4a1 1 0 1 1-2 0 1 1 0 0 1 2 0zm2.34 4.5c1 .67 2.31.67 3.32 0l.56.83c-1.34.9-3.1.9-4.44 0l.56-.83zm17.5-19.42l-.9.45A10 10 0 0 0 36 5V4a11 11 0 0 1 9.84 6.08zM24 5a10 10 0 0 0-8.95 5.53l-.9-.45A11 11 0 0 1 24 4v1zm1.1 29h9.8a5 5 0 0 1-9.8 0zm4.9 3a4 4 0 0 0 3.47-2h-6.94A4 4 0 0 0 30 37z"></path>
</svg>
