<svg xmlns="http://www.w3.org/2000/svg" width="60" height="60" viewBox="0 0 60 60" class="heroicon-thumbs-down heroicon heroicon-sm">
    <path class="heroicon-thumbs-down-hand heroicon-component-fill" d="M34 37c-.55 0-.8.4-.56.89L34 39l.1.21c.5.99.9 2.68.9 3.8v4.98A6 6 0 0 1 29 54h-1a2 2 0 0 1-2-2v-7c0-.55-.32-1.32-.7-1.7l-7.47-7.47A11.1 11.1 0 0 1 15.28 31H9V15h6.68A12 12 0 0 1 27 7h24.5a4.5 4.5 0 0 1 3.54 7.27 4.5 4.5 0 0 1 2 7 4.5 4.5 0 0 1 0 8.46A4.5 4.5 0 0 1 53.5 37H34z"></path>
    <rect class="heroicon-thumbs-down-sleeve heroicon-component-accent heroicon-component-fill" width="7" height="22" x="1" y="13"></rect>
    <path class="heroicon-shadows" d="M36.26 10a4.5 4.5 0 0 0 4.24 3h11a4.5 4.5 0 0 0 4.24-3 4.48 4.48 0 0 1-4.24 6h-11a4.5 4.5 0 0 1-4.24-6zm0 7c.61 1.74 2.28 3 4.25 3h12.98a4.5 4.5 0 0 0 4.25-3 4.5 4.5 0 0 1-4.25 6H40.51a4.5 4.5 0 0 1-4.25-6zm0 7a4.5 4.5 0 0 0 4.24 3h15a4.5 4.5 0 0 0 4.24-3 4.48 4.48 0 0 1-4.24 6h-15a4.5 4.5 0 0 1-4.24-6zm0 7c.61 1.74 2.28 3 4.25 3h12.98a4.5 4.5 0 0 0 4.25-3 4.5 4.5 0 0 1-4.25 6H40.51a4.5 4.5 0 0 1-4.25-6zM1 31h7v4H1v-4z"></path>
    <path class="heroicon-outline" fill-rule="nonzero" d="M34 37c-.55 0-.8.4-.56.89L34 39l.1.21c.5.99.9 2.68.9 3.8v4.98A6 6 0 0 1 29 54h-1a2 2 0 0 1-2-2v-7c0-.55-.32-1.32-.7-1.7l-7.47-7.47A11.1 11.1 0 0 1 15.28 31H9v5H0V12h9v3h6.68A12 12 0 0 1 27 7h24.5a4.5 4.5 0 0 1 3.54 7.27 4.5 4.5 0 0 1 2 7 4.5 4.5 0 0 1 0 8.46A4.5 4.5 0 0 1 53.5 37H34zm-19-8v-2h2v2a9.15 9.15 0 0 0 2.25 5.42l7.46 7.46c.76.76 1.29 2.04 1.29 3.12v7h1a4 4 0 0 0 4-4v-5c0-.8-.33-2.18-.68-2.9l-.66-1.32c-.5-1-.36-2.04.2-2.78H28v-1h8.76a4.48 4.48 0 0 1 .91-6 4.5 4.5 0 0 1 0-7 4.5 4.5 0 0 1 0-7 4.5 4.5 0 0 1-.91-6H27a10 10 0 0 0-10 10h-2c0-.69.06-1.35.16-2H9v12h6zm38.5-1h2a2.5 2.5 0 0 0 0-5h-15a2.5 2.5 0 0 0 0 5h13zM38 32.5a2.5 2.5 0 0 0 2.5 2.5h13a2.5 2.5 0 0 0 0-5h-13a2.5 2.5 0 0 0-2.5 2.5zM51.5 9h-11a2.5 2.5 0 0 0 0 5h11a2.5 2.5 0 0 0 0-5zm2 12a2.5 2.5 0 0 0 0-5h-13a2.5 2.5 0 0 0 0 5h13zM7 14H2v20h5V14zm19 11a8 8 0 0 1 8 8h-1a7 7 0 0 0-7-7v-1zM6 16v10H5V16h1z"></path>
</svg>
