<svg xmlns="http://www.w3.org/2000/svg" width="60" height="60" viewBox="0 0 60 60" class="heroicon-network heroicon heroicon-sm">
    <path class="heroicon-network-interior heroicon-component-accent heroicon-component-fill" fill-rule="nonzero" d="M60 30a30 30 0 1 1-60 0 30 30 0 0 1 60 0z"></path>
    <path class="heroicon-network-exterior heroicon-component-fill" fill-rule="nonzero" d="M60 30a30 30 0 1 1-60 0 30 30 0 0 1 60 0zm-32 2.97c-3.49-.1-6.83-.43-9.96-.99.13 3.3.6 6.38 1.3 9.16 2.75.46 5.65.74 8.66.83v-9zm4 0v9c3.01-.09 5.91-.37 8.66-.83.7-2.78 1.17-5.87 1.3-9.16-3.13.56-6.47.9-9.96 1zm9.96-5.01A44.64 44.64 0 0 0 40.7 19c-2.66.52-5.6.86-8.7.96v9c3.56-.08 6.9-.43 9.96-1.01zm4.03 3.16c-.07 3.21-.42 6.28-1.02 9.14 3.3-.8 6.33-1.87 9-3.12a25 25 0 0 0 .94-9.25A43.13 43.13 0 0 1 46 31.12zm8.22-7.39c-.77-2.99-2.09-5.76-3.83-8.21-1.53.97-3.5 1.83-5.8 2.53.7 2.79 1.16 5.82 1.34 9a39.05 39.05 0 0 0 8.29-3.32zM28 28.98v-9.01c-3.1-.1-6.04-.44-8.7-.96a44.64 44.64 0 0 0-1.26 8.95c3.07.58 6.4.93 9.96 1.02zm-13.92-1.93c.18-3.18.64-6.21 1.34-9-2.3-.7-4.27-1.56-5.8-2.53a24.89 24.89 0 0 0-3.83 8.21 39.05 39.05 0 0 0 8.29 3.32zm-9 .84a25.33 25.33 0 0 0 .95 9.25 47.79 47.79 0 0 0 9 3.12c-.6-2.86-.95-5.93-1.02-9.14A43.13 43.13 0 0 1 5.1 27.9zm15.62 17.5c.45 1.15.95 2.21 1.49 3.18C24.07 52 26.13 53.83 28 54.6v-8.62c-2.5-.07-4.94-.27-7.3-.58zm-4.52-.77a56.7 56.7 0 0 1-7.9-2.22 25.1 25.1 0 0 0 12 10.64 30.44 30.44 0 0 1-4.1-8.42zm23.12.77c-2.36.31-4.8.51-7.3.58v8.62c1.87-.76 3.93-2.6 5.81-6.02.54-.97 1.04-2.03 1.49-3.18zm.42 7.65a25.1 25.1 0 0 0 12-10.64 56.7 56.7 0 0 1-7.9 2.22 30.44 30.44 0 0 1-4.1 8.42zm-.2-37.85a28.12 28.12 0 0 0-1.7-3.76C35.91 8 33.86 6.17 32 5.4v10.56a48.9 48.9 0 0 0 7.52-.78zm8.28-2.75a25.04 25.04 0 0 0-8.08-5.48 29.45 29.45 0 0 1 3.71 7.27 27.44 27.44 0 0 0 4.37-1.79zM28 15.97V5.41c-1.87.76-3.93 2.6-5.81 6.02-.63 1.13-1.2 2.4-1.71 3.76 2.27.43 4.8.7 7.52.78zm-11.43-1.74c1-2.8 2.26-5.25 3.71-7.27a25.04 25.04 0 0 0-8.08 5.48 27.44 27.44 0 0 0 4.37 1.79z"></path>
    <path class="heroicon-shadows" d="M18.53 9.78a25.05 25.05 0 0 0-4.93 3.35c-.53-.23-1-.46-1.4-.69a25.04 25.04 0 0 1 8.08-5.48c-.62.86-1.2 1.8-1.75 2.82zM32 32.98c3.49-.1 6.83-.44 9.96-1-.03.68-.07 1.36-.12 2.02-3.1.54-6.4.88-9.84.97v-2zM21.24 15.32l-.76-.14a28.13 28.13 0 0 1 1.7-3.76C24.09 8 26.14 6.17 28 5.4v2c-1.87.76-3.93 2.6-5.81 6.02-.33.6-.65 1.23-.95 1.9zm26.56-2.89c-.4.23-.87.46-1.4.69a25.05 25.05 0 0 0-4.93-3.35 25.24 25.24 0 0 0-1.75-2.82 25.04 25.04 0 0 1 8.08 5.48zm-8.28 2.75l-.76.14c-.3-.67-.62-1.3-.95-1.9C35.93 10 33.87 8.17 32 7.4v-2c1.87.76 3.93 2.6 5.81 6.02.63 1.13 1.2 2.4 1.71 3.76zm.2 37.85a30.44 30.44 0 0 0 4.1-8.42 56.69 56.69 0 0 0 7.9-2.22c-.52.9-1.09 1.76-1.7 2.59a58.03 58.03 0 0 1-6.2 1.63 33.83 33.83 0 0 1-2.35 5.6c-.57.3-1.16.57-1.75.82zm-.42-7.65c-.3.74-.6 1.45-.93 2.12-2.07.24-4.2.4-6.37.46v-2c2.5-.07 4.94-.27 7.3-.58zm-23.12-.77a30.44 30.44 0 0 0 4.1 8.42c-.6-.25-1.18-.52-1.75-.82-.9-1.68-1.7-3.56-2.35-5.6-2.16-.45-4.23-1-6.2-1.63a25.03 25.03 0 0 1-1.7-2.59c2.47.9 5.1 1.64 7.9 2.22zm4.52.77c2.36.31 4.8.51 7.3.58v2c-2.17-.06-4.3-.22-6.37-.46-.33-.67-.64-1.38-.93-2.12zM5.09 27.89c2.56 1.3 5.57 2.4 8.92 3.23.07 3.21.42 6.28 1.02 9.14l-.39-.1c-.36-2.24-.58-4.6-.63-7.04A43.13 43.13 0 0 1 5.1 29.9c-.03.37-.06.74-.07 1.11a25.42 25.42 0 0 1 .07-3.11zm4.53-10.37a24.92 24.92 0 0 0-3.32 6.5l-.5-.29c.76-2.99 2.08-5.76 3.82-8.21 1.53.97 3.5 1.83 5.8 2.53-.15.6-.3 1.23-.43 1.86a23.25 23.25 0 0 1-5.37-2.4zm8.54 10.46l-.12-.02c.14-3.21.58-6.23 1.26-8.95 2.66.52 5.6.86 8.7.96v2c-3.1-.1-6.04-.44-8.7-.96-.54 2.16-.93 4.5-1.14 6.97zm36.05-4.25l-.51.28a24.92 24.92 0 0 0-3.32-6.5 23.25 23.25 0 0 1-5.37 2.4c-.13-.63-.28-1.25-.43-1.86 2.3-.7 4.27-1.56 5.8-2.53a24.89 24.89 0 0 1 3.83 8.21zm-8.22 7.4a43.13 43.13 0 0 0 8.92-3.24 25.34 25.34 0 0 1 .07 3.11 25.3 25.3 0 0 0-.07-1.11A43.13 43.13 0 0 1 46 33.12c-.05 2.44-.27 4.8-.63 7.05l-.4.1c.6-2.87.96-5.94 1.03-9.15zm-4.03-3.17l-.12.02c-.21-2.47-.6-4.81-1.14-6.97-2.66.52-5.6.86-8.7.96v-2c3.1-.1 6.04-.44 8.7-.96a44.64 44.64 0 0 1 1.26 8.95zM28 32.97v2c-3.44-.1-6.74-.43-9.84-.97-.05-.66-.1-1.34-.12-2.02 3.13.56 6.47.9 9.96 1z"></path>
    <path class="heroicon-outline" fill-rule="nonzero" d="M60 30a30 30 0 1 1-60 0 30 30 0 0 1 60 0zm-2 0a28 28 0 1 0-56 0 28 28 0 0 0 56 0zM27.97 42.97a66.13 66.13 0 0 1-8.8-.84l-.64-.1-.16-.64a46.02 46.02 0 0 1-1.33-9.37L17 30.78l1.22.22c3.1.54 6.37.88 9.82.97L29 32v11l-1.03-.03zm-8.92-10.82c-.34-.05-.68-.1-1.01-.17l.05 1.03c.18 2.9.61 5.64 1.25 8.13a64.3 64.3 0 0 0 8.66.83v-9a68.66 68.66 0 0 1-8.95-.82zM31 41.97V32l.97-.03A66.6 66.6 0 0 0 41.8 31l1.22-.22-.05 1.24a46.02 46.02 0 0 1-1.33 9.37l-.16.63-.65.1c-2.78.47-5.75.76-8.8.85L31 43v-1.03zm1 0a66.76 66.76 0 0 0 8.66-.83 44.1 44.1 0 0 0 1.3-9.16l-1 .17c-2.84.46-5.84.74-8.96.82v9zm10.14-13.03c-3.1.59-6.52.95-10.11 1.04L31 30V19l.97-.03c3.06-.1 5.92-.43 8.53-.94l.94-.19.23.92c.7 2.78 1.15 5.9 1.29 9.16l.03.86-.85.16zM32 19.97v9l1-.02c3.18-.13 6.18-.47 8.96-1a44.64 44.64 0 0 0-1.26-8.94c-2.66.52-5.6.86-8.7.96zm11.99 20.09c.59-2.82.93-5.8 1-8.96l.01-.76.74-.19A41.7 41.7 0 0 0 54.46 27l1.32-.67.13 1.48a26.44 26.44 0 0 1-.98 9.62l-.13.42-.4.2a49.22 49.22 0 0 1-9.2 3.18l-1.53.38.32-1.55zm.98.2l1.08-.27a46.92 46.92 0 0 0 7.92-2.85 25 25 0 0 0 .94-9.25l-.96.47a44.57 44.57 0 0 1-7.96 2.76 50.48 50.48 0 0 1-1.02 9.14zM54.7 24.6c-.59.33-1.24.67-1.93 1A40.5 40.5 0 0 1 46.18 28l-1.2.33-.06-1.24a46.9 46.9 0 0 0-1.3-8.81l-.24-.92.91-.28a22.42 22.42 0 0 0 5.56-2.42l.8-.5.55.77a26.33 26.33 0 0 1 3.98 8.54l.19.75-.67.37zm-.5-.87c-.76-2.99-2.08-5.76-3.82-8.21-1.53.97-3.5 1.83-5.8 2.53a47.9 47.9 0 0 1 1.34 9l.98-.29a38.13 38.13 0 0 0 7.3-3.03zm-26.23 6.25c-3.6-.1-7-.45-10.11-1.04l-.85-.16.03-.86c.14-3.27.6-6.38 1.3-9.16l.22-.92.94.19c2.61.51 5.47.84 8.53.94L29 19v11l-1.03-.02zm.03-1v-9.01c-3.1-.1-6.04-.44-8.7-.96a44.64 44.64 0 0 0-1.26 8.95A61.45 61.45 0 0 0 28 28.98zM13.82 28a40.5 40.5 0 0 1-8.52-3.4l-.67-.38.2-.75c.8-3.08 2.18-6.02 3.97-8.54l.55-.77.8.5c1.47.94 3.32 1.74 5.56 2.42l.9.28-.22.92a46.9 46.9 0 0 0-1.31 8.81l-.07 1.24-1.2-.33zm-.72-1.25l.98.29.07-1.02c.21-2.81.65-5.5 1.27-7.98-2.3-.7-4.27-1.56-5.8-2.53a24.89 24.89 0 0 0-3.83 8.21 38.13 38.13 0 0 0 7.3 3.03zM5.54 27a41.7 41.7 0 0 0 8.72 3.15l.74.19.01.76c.07 3.16.41 6.14 1 8.96l.32 1.55-1.54-.38a49.22 49.22 0 0 1-9.18-3.19l-.4-.19-.13-.43a26.44 26.44 0 0 1-.99-9.61l.13-1.48 1.32.67zM5 30a25 25 0 0 0 1.03 7.14 46.92 46.92 0 0 0 9 3.12l-.21-1.08a50.48 50.48 0 0 1-.8-8.06 44.57 44.57 0 0 1-8.93-3.23A25.2 25.2 0 0 0 5 30zm24 15.97v10.1l-1.37-.56c-2.16-.86-4.37-2.92-6.32-6.45-.55-1-1.08-2.13-1.54-3.3l-.63-1.59 1.7.23c2.33.31 4.71.5 7.19.57L29 45v.97zm-8.3-.58a30.06 30.06 0 0 0 1.49 3.18c1.55 2.82 3.22 4.57 4.81 5.52.34.2.67.36 1 .5v-8.62a69.92 69.92 0 0 1-7.3-.58zM8.63 41.46c2.42.88 5 1.61 7.75 2.18l.57.12.18.55a29 29 0 0 0 3.96 8.15l2.09 2.89-3.29-1.39A26.52 26.52 0 0 1 7.42 42.9l-1.36-2.38 2.57.94zm-.34.94a25.02 25.02 0 0 0 12 10.64c-.37-.5-.71-1.02-1.05-1.57a32.4 32.4 0 0 1-3.06-6.85 57.84 57.84 0 0 1-7.9-2.22zm23.68 2.57c2.48-.07 4.86-.26 7.2-.57l1.69-.23-.63 1.59c-.46 1.17-.99 2.3-1.54 3.3-1.95 3.53-4.16 5.59-6.32 6.45l-1.37.56V45l.97-.03zm.03 1v8.62c.33-.14.66-.3 1-.5 1.59-.95 3.26-2.7 4.81-5.52a26.34 26.34 0 0 0 1.49-3.18 66.75 66.75 0 0 1-7.3.58zm11.62-2.33c2.75-.57 5.33-1.3 7.75-2.18l2.57-.94-1.36 2.38a26.52 26.52 0 0 1-12.47 11.06l-3.29 1.39 2.09-2.9a29 29 0 0 0 3.96-8.14l.18-.55.57-.12zm-3.9 9.4a25.12 25.12 0 0 0 12-10.64 57.84 57.84 0 0 1-7.9 2.22 32.4 32.4 0 0 1-3.06 6.85 23.9 23.9 0 0 1-1.04 1.57zM31 15.97V3.93l1.37.56c2.16.86 4.37 2.92 6.32 6.45.64 1.17 1.25 2.5 1.77 3.9l.41 1.11-1.16.22c-2.32.44-4.91.72-7.68.8L31 17v-1.03zm8.15-1.73c-.41-1-.86-1.95-1.34-2.81C36.26 8.6 34.6 6.86 33 5.9c-.34-.2-.67-.36-1-.5v10.56c.34 0 .67-.02 1-.04a49.11 49.11 0 0 0 6.52-.74l-.37-.95zm9.14-.93a28.97 28.97 0 0 1-4.56 1.87l-.92.29-.32-.9a28.02 28.02 0 0 0-3.58-7.03l-2.09-2.89 3.29 1.39a26.48 26.48 0 0 1 8.4 5.7l.92.93-1.14.64zm-7.53-4.77a31.4 31.4 0 0 1 2.67 5.7 27.44 27.44 0 0 0 4.37-1.8 25.38 25.38 0 0 0-8.08-5.48c.36.5.7 1.03 1.04 1.58zm-21.22 6.3c.52-1.4 1.13-2.73 1.77-3.9 1.95-3.53 4.16-5.59 6.32-6.45L29 3.93V17l-1.03-.03a50.32 50.32 0 0 1-7.68-.8l-1.16-.22.41-1.1zM28 15.97V5.41c-.33.14-.66.3-1 .5-1.59.95-3.26 2.7-4.81 5.52a27.13 27.13 0 0 0-1.71 3.76l1 .18a49.11 49.11 0 0 0 6.52.6zm-6.9-8.43a28.02 28.02 0 0 0-3.59 7.03l-.32.9-.92-.28a28.9 28.9 0 0 1-4.56-1.88l-1.14-.64.92-.93a26.48 26.48 0 0 1 8.4-5.7l3.29-1.39-2.09 2.9zm-6.6 5.96c.66.26 1.35.5 2.07.73a31.4 31.4 0 0 1 2.67-5.7c.33-.54.68-1.07 1.04-1.57a24.85 24.85 0 0 0-8.08 5.48 23.36 23.36 0 0 0 2.3 1.05z"></path>
</svg>
