<svg xmlns="http://www.w3.org/2000/svg" width="60" height="60" viewBox="0 0 60 60" class="heroicon-folder-user heroicon heroicon-sm">
    <polygon class="heroicon-folder-user-tab heroicon-component-accent heroicon-component-fill" points="1 2 27 2 33 8 59 8 59 12 1 12"></polygon>
    <path class="heroicon-folder-user-cover heroicon-component-fill" d="M59 48V12H1v36h36a11 11 0 0 1 22 0z"></path>
    <circle class="heroicon-folder-user-circle heroicon-component-accent heroicon-component-fill" cx="48" cy="48" r="11"></circle>
    <path class="heroicon-folder-user-symbol heroicon-component-fill" d="M41 54c0-.73.58-1.67 1.24-2l3.46-1.73a3.98 3.98 0 0 0 4.6 0L53.76 52A2.55 2.55 0 0 1 55 54v1.14a9.97 9.97 0 0 1-14 0V54zm10-9v2a3 3 0 1 1-6 0v-2a3 3 0 1 1 6 0z"></path>
    <rect class="heroicon-shadows" width="58" height="2" x="1" y="10"></rect>
    <path class="heroicon-outline" fill-rule="nonzero" d="M33 7h25a2 2 0 0 1 2 2v38c0 .1 0 .2-.02.29L60 48a11.98 11.98 0 0 1-12 12 11.96 11.96 0 0 1-11.96-11H2a2 2 0 0 1-2-2V3c0-1.1.9-2 2-2h25l6 6zm8 47v1.14a9.97 9.97 0 0 0 14 0V54c0-.73-.59-1.68-1.24-2l-3.46-1.73a3.98 3.98 0 0 1-4.6 0L42.24 52A2.55 2.55 0 0 0 41 54zm3.91-4.46A3.98 3.98 0 0 1 44 47v-2a4 4 0 1 1 8 0v2c0 .97-.34 1.85-.91 2.54l3.11 1.56c1 .5 1.8 1.79 1.8 2.9a10 10 0 1 0-16 0c0-1.1.8-2.4 1.8-2.9l3.11-1.56zM58 41.36V15H2v32h34.04A12 12 0 0 1 58 41.36zM2 14h56v-1H2v1zm56-5H32.17l-.58-.59L26.17 3H2v8h56V9zm-7 36a3 3 0 1 0-6 0v2a3 3 0 1 0 6 0v-2zM4 5h22v1H4V5zm18 3v1H4V8h18z"></path>
</svg>
