<svg xmlns="http://www.w3.org/2000/svg" width="60" height="60" viewBox="0 0 60 60" class="heroicon-globe heroicon heroicon-sm">
    <circle class="heroicon-globe-water heroicon-component-fill" cx="28" cy="22" r="21"></circle>
    <path class="heroicon-globe-land heroicon-component-accent heroicon-component-fill" d="M13 32v3.23c-.35-.4-.69-.8-1-1.23v-5.59l1.7-1.7.3-.3v-6l1.7-1.7.71-.71-.7-.7-.71-.71V6.8A20.02 20.02 0 0 1 36.73 4H34v3h-3v5h-1.59l-.7-.7-.3-.3h-7l-1.7-1.7-.3-.3h-3.39V16.39l.3.3 1.72 1.72v1.96l.3.3 1.74 1.74v3.92l.3.3.62.62V29h-.41l-.3.3-1.7 1.7H13v1zm34.57-14.15A19.98 19.98 0 0 1 25 41.78V41h2.41l.3-.3 1.7-1.7h2l.3-.3 2-2 .7-.7-.7-.7L31 32.58V29.4L32.41 28H39v-2.59l.41-.41H42v-3.59l1.3 1.3.7.7.7-.7 1-1 .3-.3v-2l1.57-1.56zm-5.43-10c.61.62 1.17 1.25 1.68 1.91L41.6 12H37.4l-1-1 2.3-2.3.29-.29V5.3a20.1 20.1 0 0 1 3.14 2.56z"></path>
    <path class="heroicon-globe-stand heroicon-component-accent heroicon-component-fill" d="M47.04 5.8a25 25 0 0 1-35.25 35.24l.71-.71A24 24 0 0 0 46.33 6.5l.7-.7zm-35.3 31.05l.7.7.71.71-3.53 3.54-1.42-1.42 3.54-3.53zm32.52-29.7l-.7-.7-.71-.71 3.53-3.54 1.42 1.42-3.54 3.53zM29 48v4h-2v-4h2zm-2.79 6h3.58l9.33 2H16.88l9.33-2zM14 58v-1h28v1H14z"></path>
    <path class="heroicon-shadows" d="M48.79 19a21 21 0 1 1-41.57 0 21 21 0 0 0 41.57 0zM26 47h4v6h-4v-6z"></path>
    <path class="Combined-Shape" fill-rule="nonzero" d="M12.44 6.44A22.02 22.02 0 0 1 34 .83c2.9.82 5.65 2.24 8.08 4.26l.06-.06 3.54-3.54.7-.7.71.7 1.42 1.42.7.7-.7.71-.76.76A26 26 0 0 1 31 47.83v4.38L44 55v5H12v-5l13-2.79v-4.38c-5-.58-9.87-2.6-13.92-6.08l-.76.76-.7.7-.71-.7-1.42-1.42-.7-.7.7-.71 3.54-3.54.06-.06-.09-.11a22 22 0 0 1 1.44-29.53zm34.6-.65l-.71.71A24 24 0 0 1 12.5 40.33l-.7.7A25 25 0 0 0 47.03 5.8zM13 32v-1h5.59l1.7-1.7.3-.3H21v-1.75l-.63-.63-.3-.29v-3.91l-1.74-1.75-.29-.3v-1.96l-1.73-1.72-.29-.3V9h3.39l.3.3 1.7 1.7h7l.3.3.7.7H31V7h3V4h2.73C29.73.6 21.14 1.53 15 6.8v9.79l.7.7.71.71-.7.7L14 20.42v6l-.3.3-1.7 1.7v5.6c.31.41.65.82 1 1.22V32zm-2-4l2-2v-6l1.3-1.3.7-.7-.7-.7-.3-.3V7.72l-.14.14A20 20 0 0 0 11 32.54V28zm.74 8.85L8.2 40.38l1.42 1.42 3.53-3.54-.7-.7-.71-.71zm32.52-29.7l3.54-3.53-1.42-1.42-3.53 3.54.7.7.71.71zm3.03 9.56a19.87 19.87 0 0 0-2.87-6.13L42 13h-5l-1.3-1.3-.7-.7.7-.7L38 8V5h-3v3h-3v5h-3l-1-1h-7l-2-2h-1.98v5.98L19.04 18v1.96L21.08 22v3.92l.92.92V30h-1l-2 2h-5V36.28a19.9 19.9 0 0 0 10 5.32V40h3l2-2h2l1.3-1.3.7-.7-.7-.7L30 33v-4l2-2h6v-2l1-1h2v-3l.3-.3.7-.7.7.7.6.6.7.7.7-.7.3-.3v-2l2.3-2.3zm.28 1.14L46 19.4v2l-.3.3-1 1-.7.7-.7-.7-1.3-1.3V25h-2.59l-.41.41V28h-6.59L31 29.41v3.18l2.7 2.7.71.71-.7.7-2 2-.3.3h-2l-1.7 1.7-.3.3H25v.78a19.98 19.98 0 0 0 22.57-23.93zm-5.43-10A20.1 20.1 0 0 0 39 5.3v3.12l-.3.3L36.42 11l1 1h4.18l2.23-2.24c-.51-.66-1.07-1.3-1.68-1.9zM29 48h-2v4h2v-4zm-2.79 6l-9.33 2h22.24l-9.33-2H26.2zM14 58h28v-1H14v1zM45.68 7.24l-.71.7a22 22 0 0 1-30.99 31l-.7.7a23 23 0 0 0 32.4-32.4z"></path>
</svg>
