<svg xmlns="http://www.w3.org/2000/svg" width="60" height="60" viewBox="0 0 60 60" class="heroicon-shield-check heroicon heroicon-sm">
    <path class="heroicon-shield-check-edge heroicon-component-accent heroicon-component-fill" d="M47.05 51.47L30 60l-17.05-8.53C8 49.01 4 42.51 4 37.01V5.91C12.11 2.01 21-.01 30 0c9-.01 17.89 2 26 5.91V37c0 5.52-4 12-8.95 14.47zM30 10c-5.49 0-10.87.88-16 2.61v24.4c0 1.72 1.87 4.74 3.42 5.52L30 48.82l12.58-6.29C44.13 41.75 46 38.73 46 37V12.61A49.94 49.94 0 0 0 30 10z"></path>
    <path class="heroicon-shield-check-background heroicon-component-fill" d="M30 10c-5.49 0-10.87.88-16 2.61v24.4c0 1.72 1.87 4.74 3.42 5.52L30 48.82l12.58-6.29C44.13 41.75 46 38.73 46 37V12.61A49.94 49.94 0 0 0 30 10z"></path>
    <path class="heroicon-shield-check-circle heroicon-component-accent heroicon-component-fill" d="M18 28a12 12 0 1 0 24 0 12 12 0 0 0-24 0z"></path>
    <polygon class="heroicon-shield-check-mark heroicon-component-fill" points="35.3 22.88 38.12 25.71 29 34.83 22.88 28.71 25.71 25.88 29 29.18 35.3 22.88"></polygon>
    <path class="heroicon-shadows" d="M47 12v-.1A50.9 50.9 0 0 0 30 9a50.8 50.8 0 0 0-17 2.9v.1L9 9.14A54.82 54.82 0 0 1 30 5a54.8 54.8 0 0 1 21 4.15L47 12zm-1 .61v2A49.95 49.95 0 0 0 30 12a49.8 49.8 0 0 0-16 2.6v-2A49.94 49.94 0 0 1 30 10c5.49 0 10.87.88 16 2.61z"></path>
    <path class="heroicon-outline" fill-rule="nonzero" d="M47.05 51.47L30 60l-17.05-8.53C8 49.01 4 42.51 4 37.01V5.91C12.11 2.01 21-.01 30 0c9-.01 17.89 2 26 5.91V37c0 5.52-4 12-8.95 14.47zM6 7.18V37c0 4.76 3.58 10.55 7.84 12.7L30 57.76l16.16-8.07C50.42 47.55 54 41.77 54 37V7.18A57.75 57.75 0 0 0 30 2 57.78 57.78 0 0 0 6 7.18zm3 1.97A54.82 54.82 0 0 1 30 5c7.2-.01 14.34 1.4 21 4.14V37c0 3.62-2.94 8.37-6.18 10.01L30 54.41 15.18 47C11.94 45.38 9 40.63 9 37V9.15zM50 37V9.82A54.04 54.04 0 0 0 30 6a53.84 53.84 0 0 0-20 3.82V37c0 3.26 2.73 7.66 5.63 9.1L30 53.3l14.37-7.2C47.28 44.65 50 40.25 50 37zm-6.53 7.32L30 51.06l-13.47-6.74C14.3 43.2 12 39.49 12 37V11.2A51.89 51.89 0 0 1 30 8c6.2 0 12.27 1.08 18 3.2V37c0 2.5-2.3 6.2-4.53 7.32zM30 10c-5.49 0-10.87.88-16 2.61v24.4c0 1.72 1.87 4.74 3.42 5.52L30 48.82l12.58-6.29C44.13 41.75 46 38.73 46 37V12.61A49.94 49.94 0 0 0 30 10zM18 28a12 12 0 1 1 24 0 12 12 0 0 1-24 0zm22 0a10 10 0 1 0-20 0 10 10 0 0 0 20 0zm-4.7-5.12l2.82 2.83L29 34.83l-6.12-6.12 2.83-2.83 3.29 3.3 6.3-6.3zm-6.3 7.7l-3.3-3.29-1.4 1.42 4.7 4.7 7.7-7.7-1.4-1.42-6.3 6.3v-.01z"></path>
</svg>
