<svg xmlns="http://www.w3.org/2000/svg" width="60" height="60" viewBox="0 0 60 60" class="heroicon-speedometer heroicon heroicon-sm">
    <path class="heroicon-speedometer-edge heroicon-component-accent heroicon-component-fill" d="M30 59a29 29 0 1 1 0-58 29 29 0 0 1 0 58zm0-5a24 24 0 1 0 0-48 24 24 0 0 0 0 48z"></path>
    <path class="heroicon-speedometer-background heroicon-component-fill" d="M30 55a25 25 0 1 0 0-50 25 25 0 0 0 0 50z"></path>
    <path class="heroicon-speedometer-gauge heroicon-component-fill" d="M43.85 15.57l-2.13 1.77A18 18 0 0 0 16.58 43l-.93.93a20 20 0 0 1 28.2-28.36zm1.53 1.64a19.97 19.97 0 0 1-1.03 26.72l-.93-.93a17.96 17.96 0 0 0 .24-23.72l1.72-2.07z"></path>
    <path class="heroicon-speedometer-background heroicon-component-fill" d="M25 42h11v6H24v-6h1zm11-11a6 6 0 1 1-3.91-5.63L30.13 27a4 4 0 0 0-2.96 6.83A3.99 3.99 0 0 0 34 30.87l1.63-1.96c.24.65.37 1.36.37 2.09z"></path>
    <path class="heroicon-speedometer-needle heroicon-component-accent heroicon-component-fill" d="M30.83 29.03l-.76-.03A2 2 0 1 0 32 30.93l-.03-.76.5-.58 5.24-6.3-6.3 5.25-.58.49z"></path>
    <path class="heroicon-shadows" d="M55 29.5A25 25 0 0 0 5 29a25 25 0 1 1 50 .5zm3 0v.5a28 28 0 1 1-56-.5 28 28 0 0 0 56 0z"></path>
    <path class="heroicon-outline" fill-rule="nonzero" d="M30 60a30 30 0 1 1 0-60 30 30 0 0 1 0 60zm28-30a28 28 0 1 0-56 0 28 28 0 0 0 56 0zM30 55a25 25 0 1 1 0-50 25 25 0 0 1 0 50zm24-25a24 24 0 1 0-48 0 24 24 0 0 0 48 0zM25 42h11v6H24v-6h1zm0 1v4h10v-4H25zm3 1v2h-2v-2h2zm3 0v2h-2v-2h2zm3 0v2h-2v-2h2zM30 9c5.68 0 10.84 2.26 14.62 5.93l.23-.2 1.41 1.42-.23.28C49.13 20.1 51 24.83 51 30c0 6.05-2.56 11.5-6.66 15.34l-2.32-2.32A16.95 16.95 0 0 0 43 20.06l-6.65 7.99a7 7 0 1 1-3.4-3.4l8-6.66a17 17 0 0 0-22.97 25.03l-2.32 2.32A21 21 0 0 1 30 9zm13.85 6.57a20 20 0 0 0-28.2 28.36l.93-.93a18 18 0 0 1 25.14-25.66l2.13-1.77zm1.53 1.64l-1.72 2.07A17.96 17.96 0 0 1 43.42 43l.93.93a19.97 19.97 0 0 0 1.03-26.72zM30.83 29.03l-.76-.03A2 2 0 1 0 32 30.93l-.03-.76.5-.58 5.24-6.3-6.3 5.25-.58.49zM36 31c0-.73-.13-1.44-.37-2.09L34 30.87a3.99 3.99 0 0 1-6.83 2.96A4 4 0 0 1 30.13 27l1.96-1.63A5.99 5.99 0 0 0 24 31a6 6 0 1 0 12 0z"></path>
</svg>
