<svg xmlns="http://www.w3.org/2000/svg" width="60" height="60" viewBox="0 0 60 60" class="heroicon-multitask-knife heroicon heroicon-sm">
    <rect class="heroicon-multitask-knife-housing heroicon-component-accent heroicon-component-fill" width="58" height="18" x="1" y="37" rx="9"></rect>
    <path class="heroicon-multitask-knife-knives heroicon-component-fill" d="M46 37v-6l2-1-2-1v-6l2-1-2-1v-6l2-1v-4l6-6v12c0 .56-.4 1.2-.89 1.44L52 18l2 1v6l-2 1 2 1v6l-2 1v3h-6zm0-2.07V36h-7.21l3.43-3.44-.7-.7L37.36 36h-1.61l-9.8-9.8-.02-.02a11.99 11.99 0 0 1-3.24-10.92l9.09 5.46 11.05 11.05L46 34.93zM25.25 26.9l9.1 9.09h-1.42l-8.39-8.38a14 14 0 0 1-3.65-13.44l.9.54a13 13 0 0 0 3.46 12.19zM10 36c-1.42 0-2.78.3-4 .83V10h.76l4 8H7v11a3 3 0 1 0 6 0v-.17l1 1V36h-4z"></path>
    <rect class="heroicon-multitask-knife-front-details heroicon-component-fill" width="8" height="4" y="44"></rect>
    <path class="heroicon-outline" fill-rule="nonzero" d="M48 10l4-4 2-2v11.76a2 2 0 0 1-1.1 1.8L52 18l2 1v6l-2 1 2 1v6l-2 1v2.2A10 10 0 0 1 50 56H10a10 10 0 0 1-9.8-8H0v-4h.2A10 10 0 0 1 4 38V8h4l5 10 1 2H9v9a1 1 0 1 0 2 0v-5l2 2 3 3v7h14.1l-6.97-6.97a16 16 0 0 1-3.3-17.82l1.72 1.03.87.52.87.53 9.74 5.84 11.23 11.23L46 32.1V31l2-1-2-1v-6l2-1-2-1v-6l2-1v-4zm.9 5.79l-.9.45v1.52l3.1-1.55.9-.45V8.83l-2 2v4.41l-1.1.55zM50 34v-1.24l1.1-.55.9-.45v-1.52l-4 2V36h2v-2zm-4 .93l-3.16-3.16L31.8 20.72l-9.1-5.46c-.79 3.82.3 7.96 3.25 10.92l.02.02 9.8 9.8h1.61l4.14-4.14.71.7L38.8 36H46v-1.07zM25.25 26.9a13 13 0 0 1-3.46-12.19l-.9-.54a14 14 0 0 0 3.65 13.44L32.93 36h1.41l-9.09-9.1zM10 36h4v-6.17l-1-1V29a3 3 0 1 1-6 0V18h3.76l-4-8H6v26.83a9.97 9.97 0 0 1 4-.83zm38.24-16.12l2 1 1.52-.76-2-1-1.52.76zM48 24.24v1.52l4-2v-1.52l-4 2zm3.76 3.88l-2-1-1.52.76 2 1 1.52-.76zM10 38a8 8 0 0 0-7.75 6H8v4H2.25A8 8 0 0 0 10 54h40a8 8 0 1 0 0-16H10zm-3 7H1v2h6v-2zm24.62-21.63l5.65 5.66-.7.7-5.66-5.65.7-.7zM52 45v2h-2v2h-2v-2h-2v-2h2v-2h2v2h2zm-39-6h11v1H12v-1h1zm0 13h34v1H12v-1h1zm16-13h1v1h-3v-1h2z"></path>
</svg>
