<svg xmlns="http://www.w3.org/2000/svg" width="60" height="60" viewBox="0 0 60 60" class="heroicon-phone-wifi heroicon heroicon-sm">
    <rect class="heroicon-phone-wifi-edge heroicon-component-accent heroicon-component-fill" width="36" height="60" x="12" rx="4"></rect>
    <rect class="heroicon-phone-wifi-screen heroicon-component-fill" width="28" height="46" x="16" y="7"></rect>
    <path class="heroicon-phone-wifi-symbol heroicon-component-accent heroicon-component-fill" d="M26.46 35.46a4.98 4.98 0 0 1 7.08 0L30 39l-3.54-3.54zM30 28c3.04 0 5.79 1.23 7.78 3.22l-2.83 2.83a6.98 6.98 0 0 0-9.9 0l-2.83-2.83c2-1.99 4.74-3.22 7.78-3.22zm-12.02-1.02A16.95 16.95 0 0 1 30 22c4.7 0 8.94 1.9 12.02 4.98L39.2 29.8a12.96 12.96 0 0 0-18.38 0l-2.83-2.83-.01.01z"></path>
    <path class="heroicon-outline" fill-rule="nonzero" d="M16 0h28a4 4 0 0 1 4 4v52a4 4 0 0 1-4 4H16a4 4 0 0 1-4-4V4a4 4 0 0 1 4-4zm28 2H16a2 2 0 0 0-2 2v52c0 1.1.9 2 2 2h28a2 2 0 0 0 2-2V4a2 2 0 0 0-2-2zM17 7h27v46H16V7h1zm26 1H17v44h26V8zM26.46 35.46a4.98 4.98 0 0 1 7.08 0L30 39l-3.54-3.54zM30 28c3.04 0 5.79 1.23 7.78 3.22l-2.83 2.83a6.98 6.98 0 0 0-9.9 0l-2.83-2.83c2-1.99 4.74-3.22 7.78-3.22zm-12.02-1.02A16.95 16.95 0 0 1 30 22c4.7 0 8.94 1.9 12.02 4.98L39.2 29.8a12.96 12.96 0 0 0-18.38 0l-2.83-2.83-.01.01zM30 23c-3.96 0-7.7 1.44-10.58 4l1.41 1.42A13.95 13.95 0 0 1 30 25c3.42 0 6.65 1.23 9.17 3.42L40.58 27A15.9 15.9 0 0 0 30 23zm-6.33 8.26l1.42 1.42a7.97 7.97 0 0 1 9.82 0l1.42-1.42a9.96 9.96 0 0 0-12.66 0zm4.3 4.3L30 37.58l2.03-2.04a3.98 3.98 0 0 0-4.06 0v.02zM32 4v1h-4V4h4zm-3.5 50h3a1.5 1.5 0 0 1 0 3h-3a1.5 1.5 0 0 1 0-3zm3.5 1.5a.5.5 0 0 0-.5-.5h-3a.5.5 0 1 0 0 1h3a.5.5 0 0 0 .5-.5z"></path>
</svg>
