<svg xmlns="http://www.w3.org/2000/svg" width="60" height="60" viewBox="0 0 60 60" class="heroicon-heart heroicon heroicon-sm">
    <path class="heroicon-heart-outer heroicon-component-accent heroicon-component-fill" d="M31.41 9.97L30 11.37l-1.4-1.41-1.28-1.27A16 16 0 0 0 4.7 31.3L30.13 56.5 55.31 31.3A16 16 0 0 0 32.7 8.7L31.4 9.97z"></path>
    <path class="heroicon-heart-inner heroicon-component-fill" d="M31.4 15.63l-1.41 1.41-1.41-1.41-1.42-1.43-2.67-2.69A12 12 0 0 0 7.5 28.48l22.6 22.37L52.5 28.5A12 12 0 0 0 35.5 11.5l-4.11 4.12z"></path>
    <path class="heroicon-outline" fill-rule="nonzero" d="M31.41 9.97l1.28-1.28A16 16 0 0 1 55.3 31.3L30.13 56.5 4.7 31.3A16 16 0 0 1 27.3 8.7l1.27 1.27L30 11.38l1.42-1.41zM53.9 29.9a14 14 0 0 0-19.8-19.8L30 14.21l-1.41-1.42-2.68-2.69A14 14 0 0 0 6.1 29.9l24.02 23.77L53.9 29.9zM31.4 15.63l4.11-4.12A12 12 0 0 1 52.5 28.5L30.12 50.85 7.5 28.48A12 12 0 0 1 24.49 11.5l2.67 2.69 1.42 1.43 1.4 1.41 1.42-1.4zm19.67-2.7a10 10 0 0 0-14.14 0l-6.95 6.95-4.24-4.27c-1.1-1.12-2-2.01-2.67-2.68A10 10 0 0 0 8.91 27.06l21.2 20.97 20.96-20.96a10 10 0 0 0 0-14.14zm-40.73 1.41A7.97 7.97 0 0 1 16 12v1a6.98 6.98 0 0 0-6.26 3.87l-.9-.45a8 8 0 0 1 1.5-2.08zm-2 3.36l.95.29c-.2.65-.3 1.33-.3 2.01H8c0-.77.12-1.55.35-2.3zm1.98 7.94a7.92 7.92 0 0 1-2.17-4.07l.98-.2a6.9 6.9 0 0 0 1.9 3.55L16 29.85v1.4l-5.68-5.61z"></path>
</svg>
