<svg xmlns="http://www.w3.org/2000/svg" width="60" height="60" viewBox="0 0 60 60" class="heroicon-information heroicon heroicon-sm">
    <path class="heroicon-information-edge heroicon-component-accent heroicon-component-fill" d="M30 59a29 29 0 1 1 0-58 29 29 0 0 1 0 58zm0-5a24 24 0 1 0 0-48 24 24 0 0 0 0 48z"></path>
    <circle class="heroicon-information-background heroicon-component-fill" cx="30" cy="30" r="24"></circle>
    <path class="heroicon-information-symbol heroicon-component-accent heroicon-component-fill" d="M26 41V31h-4v-4h12v14h4v4H22v-4h4zm4-17a5 5 0 1 0 0-10 5 5 0 0 0 0 10z"></path>
    <path class="heroicon-outline" fill-rule="nonzero" d="M30 60a30 30 0 1 1 0-60 30 30 0 0 1 0 60zm28-30a28 28 0 1 0-56 0 28 28 0 0 0 56 0zM30 55a25 25 0 1 1 0-50 25 25 0 0 1 0 50zm23-25a23 23 0 1 0-46 0 23 23 0 0 0 46 0zm-23-5a6 6 0 1 1 0-12 6 6 0 0 1 0 12zm4-6a4 4 0 1 0-8 0 4 4 0 0 0 8 0zm3 21h2v6H21v-6h4v-8h-4v-6h14v14h2zm-4 2V28H23v2h4v12h-4v2h14v-2h-4zm-3-32v1c-5.25 0-10 2.13-13.43 5.57l-.71-.71A19.94 19.94 0 0 1 30 10zM11.79 21.72c.56-1.23 1.24-2.4 2.03-3.48l.81.58a18.99 18.99 0 0 0-1.93 3.32l-.91-.42zm-1.09 3.02l.96.26A19.02 19.02 0 0 0 13 38.5l-.9.45a19.92 19.92 0 0 1-1.4-14.21zM29 30v6h-1v-6h1z"></path>
</svg>
