<svg xmlns="http://www.w3.org/2000/svg" width="60" height="60" viewBox="0 0 60 60" class="heroicon-code heroicon heroicon-sm">
    <rect class="heroicon-code-interface heroicon-component-fill" width="58" height="41" x="1" y="14"></rect>
    <rect class="heroicon-code-side heroicon-component-fill" width="5" height="41" x="1" y="14"></rect>
    <rect class="heroicon-code-menu-bar heroicon-component-accent heroicon-component-fill" width="58" height="9" x="1" y="5"></rect>
    <path class="heroicon-outline" fill-rule="nonzero" d="M0 15V6c0-1.1.9-2 2-2h56a2 2 0 0 1 2 2v48a2 2 0 0 1-2 2H2a2 2 0 0 1-2-2V15zm2-9v4h9l3-3h14l3 3h27V6H2zm0 6v1h56v-1H30.17l-.58-.59L27.17 9H14.83l-2.42 2.41-.58.59H2zm56 3H6v39h52V15zM5 54V15H2v39h3zM3 7h2v2H3V7zm3 0h2v2H6V7zm5 0v2H9V7h2zm-4 9h3v1H7v-1zm7 2v1H7v-1h7zm-5 2h5v1H9v-1zm5 2v1h-3v-1h3zm-3 2h5v1h-5v-1zm7 2v1h-5v-1h5zm-5 4h7v1h-7v-1zm3 2v1h-5v-1h5zm1 0h5v1h-5v-1zm3 2v1h-7v-1h7zm-9 2h7v1h-7v-1zm8 0h4v1h-4v-1zm-2 2v1h-6v-1h6zm2 3h-6v-1h6v1zm-6 1h3v1h-3v-1zm4 3h-6v-1h6v1zm0 1v1h-4v-1h4zm5 1h-4v-1h4v1zm1-1h7v1h-7v-1zm13 0v1h-5v-1h5zm-25 2h5v1h-5v-1zm3 2v1H9v-1h5zm-7 2h5v1H7v-1zm11 0v1h-5v-1h5zm1 0h5v1h-5v-1zm4-10v1h-6v-1h6zm1 0h6v1h-6v-1zm14 0v1h-7v-1h7zm-18-2h7v1h-7v-1zm13 0v1h-5v-1h5zm1 1v-1h4v1h-4zm11 0h-6v-1h6v1zm1-1h11v1H46v-1zm-25-6h5v1h-5v-1zm9 0v1h-3v-1h3zm-15-6h7v1h-7v-1zm13 0v1h-5v-1h5zm-11-4h7v1h-7v-1zm15 0v1h-7v-1h7zm-17-2h6v1h-6v-1zm14 0v1h-7v-1h7zm1 0h7v1h-7v-1zm12 0v1h-4v-1h4zm1 0h4v1h-4v-1zm-23-2v1h-5v-1h5zm1 0h7v1h-7v-1zm12 0v1h-4v-1h4zm1 0h5v1h-5v-1zm-14-2v1h-5v-1h5zm1 0h5v1h-5v-1zm15 0v1h-9v-1h9zm1 0h4v1h-4v-1zm-20-2v1h-6v-1h6zm1 0h4v1h-4v-1zm14 0v1h-9v-1h9zM4 16v1H3v-1h1zm-1 2h1v1H3v-1zm1 2v1H3v-1h1zm-1 2h1v1H3v-1zm1 2v1H3v-1h1zm-1 2h1v1H3v-1zm1 2v1H3v-1h1zm-1 2h1v1H3v-1zm1 2v1H3v-1h1zm-1 2h1v1H3v-1zm1 2v1H3v-1h1zm-1 2h1v1H3v-1zm1 2v1H3v-1h1zm-1 2h1v1H3v-1zm1 2v1H3v-1h1zm-1 2h1v1H3v-1zm1 2v1H3v-1h1zm-1 2h1v1H3v-1zm1 2v1H3v-1h1z"></path>
</svg>
