<svg xmlns="http://www.w3.org/2000/svg" width="60" height="60" viewBox="0 0 60 60" class="heroicon-headphones heroicon heroicon-sm">
    <path class="heroicon-headphones-strap heroicon-component-fill" d="M53 25v5.1a5.02 5.02 0 0 0-2 0V25a21 21 0 1 0-42 0v5.1a5.02 5.02 0 0 0-2 0V25a23 23 0 0 1 46 0zM11.36 38.7l-.18.16L13 42v4l-3.58-6.2a5 5 0 0 0 1.94-1.1zm39.22 1.1L47 46v-4l1.82-3.14c.5.42 1.1.74 1.76.94z"></path>
    <path class="heroicon-headphones-strap-cushion heroicon-component-accent heroicon-component-fill" d="M18.7 12.3l-1.4-1.42A18.93 18.93 0 0 1 30 6c4.89 0 9.34 1.84 12.7 4.88l-1.4 1.41C38.3 9.62 34.32 8 30 8c-4.33 0-8.3 1.62-11.3 4.3z"></path>
    <path class="heroicon-headphones-hinges heroicon-component-accent heroicon-component-fill" d="M11 35a3 3 0 1 1-6 0 3 3 0 0 1 6 0zm38 0a3 3 0 1 1 6 0 3 3 0 0 1-6 0z"></path>
    <path class="heroicon-headphones-ear-covers heroicon-component-fill" d="M18 42v-1.53L19.24 38H22v20h-2.76L18 55.53V54h-3V42h3zm24 12v1.53L40.76 58H38V38h2.76L42 40.47V42h3v12h-3z"></path>
    <path class="heroicon-headphones-muffs heroicon-component-accent heroicon-component-fill" d="M24 57V39h1a1 1 0 0 1 1 1v16a1 1 0 0 1-1 1h-1zm12 0h-1a1 1 0 0 1-1-1V40a1 1 0 0 1 1-1h1v18z"></path>
    <path class="heroicon-shadows" d="M27 48v8a2 2 0 0 1-2 2h-7l-1-3h-3v-7h4v-1l2 2v-1h7zm6 0h7v1l2-2v1h4v7h-3l-1 3h-7a2 2 0 0 1-2-2v-8zM18.7 12.3l-1.4-1.42A18.93 18.93 0 0 1 30 6c4.89 0 9.34 1.84 12.7 4.88l-1.4 1.41C38.3 9.62 34.32 8 30 8c-4.33 0-8.3 1.62-11.3 4.3z"></path>
    <path class="heroicon-outline" fill-rule="nonzero" d="M5 25a25 25 0 0 1 50 0v6a5 5 0 0 1-2.19 8.93L47 50v6h-3l-1.45 2.9a2 2 0 0 1-1.79 1.1H37a1 1 0 0 1-1-1h-1a3 3 0 0 1-3-3V40a3 3 0 0 1 3-3h1a1 1 0 0 1 1-1h3.76a2 2 0 0 1 1.8 1.1L44 40h1.85l1.64-2.84A4.98 4.98 0 0 1 49 31v-6c0-5.25-2.13-10-5.56-13.44l-1.42 1.42-.7.7C38.41 10.8 34.41 9 30 9s-8.42 1.8-11.31 4.69l-.71-.71-1.41-1.42A18.94 18.94 0 0 0 11 25v6a5 5 0 0 1 1.51 6.16L14.15 40H16l1.45-2.9a2 2 0 0 1 1.79-1.1H23a1 1 0 0 1 1 1h1a3 3 0 0 1 3 3v16a3 3 0 0 1-3 3h-1a1 1 0 0 1-1 1h-3.76a2 2 0 0 1-1.8-1.1L16 56h-3v-6L7.19 39.93A5 5 0 0 1 5 31v-6zm48 0a23 23 0 1 0-46 0v5.1a5.02 5.02 0 0 1 2 0V25a21 21 0 1 1 42 0v5.1a5.02 5.02 0 0 1 2 0V25zM11.36 38.7a5 5 0 0 1-1.94 1.1L13 46v-4l-1.82-3.14.18-.16zm7.35-26.4a16.94 16.94 0 0 1 22.59 0l1.4-1.42A18.93 18.93 0 0 0 30 6c-4.89 0-9.34 1.84-12.7 4.88l1.4 1.41zM11 35a3 3 0 1 0-6 0 3 3 0 0 0 6 0zm13 22h1a1 1 0 0 0 1-1V40a1 1 0 0 0-1-1h-1v18zm-3-19v20h1V38h-1zm-6 4v12h1V42h-1zm3-1.53v15.06L19.24 58H20V38h-.76L18 40.47zM49 35a3 3 0 1 0 6 0 3 3 0 0 0-6 0zM36 57V39h-1a1 1 0 0 0-1 1v16a1 1 0 0 0 1 1h1zm2 1h1V38h-1v20zm4-17.53L40.76 38H40v20h.76L42 55.53V40.47zM44 54h1V42h-1v12zm6.58-14.2a4.99 4.99 0 0 1-1.76-.94L47 42v4l3.58-6.2z"></path>
</svg>
