<svg xmlns="http://www.w3.org/2000/svg" width="60" height="60" viewBox="0 0 60 60" class="heroicon-thermometer heroicon heroicon-sm">
    <rect class="heroicon-thermometer-reading heroicon-component-fill" width="38" height="58" x="11" y="1"></rect>
    <path class="heroicon-thermometer-tube heroicon-component-fill" d="M39 43a8.98 8.98 0 0 0-3-6.7V14a6 6 0 0 0-12 0v22.3A9 9 0 1 0 39 43z"></path>
    <path class="heroicon-thermometer-liquid heroicon-component-accent heroicon-component-fill" d="M30 23a2 2 0 0 0-2 2v13.42a5 5 0 1 0 4 0V25a2 2 0 0 0-2-2z"></path>
    <path class="heroicon-shadows" d="M21.05 44a9 9 0 0 0 17.9 0 9 9 0 1 1-17.89 0zm4.18-2.5a5 5 0 0 0 9.54 0 5 5 0 1 1-9.54 0z"></path>
    <path class="heroicon-outline" fill-rule="nonzero" d="M12 0h36a2 2 0 0 1 2 2v56a2 2 0 0 1-2 2H12a2 2 0 0 1-2-2V2c0-1.1.9-2 2-2zm36 2H12v56h36V2zM15 6a1 1 0 1 1 0-2 1 1 0 0 1 0 2zm31-1a1 1 0 1 1-2 0 1 1 0 0 1 2 0zM15 56a1 1 0 1 1 0-2 1 1 0 0 1 0 2zm31-1a1 1 0 1 1-2 0 1 1 0 0 1 2 0zm-7-12a9 9 0 1 1-15-6.7V14a6 6 0 0 1 12 0v22.3a8.98 8.98 0 0 1 3 6.7zm-5-29a4 4 0 0 0-8 0v23.19l-.67.6a7 7 0 1 0 9.33 0l-.66-.6v-23.2zm-4 9a2 2 0 0 1 2 2v13.42a5 5 0 1 1-4 0V25c0-1.1.9-2 2-2zm-1.6 16.33a4 4 0 1 0 3.2 0l-.6-.26V25a1 1 0 0 0-2 0v14.07l-.6.26zM18 35h4v1h-4v-1zm0-24h4v1h-4v-1zm0 12h4v1h-4v-1zm2-6h2v1h-2v-1zm2 12v1h-2v-1h2zm16 7v-1h4v1h-4zm4-25v1h-4v-1h4zm-4 13v-1h4v1h-4zm2-7v1h-2v-1h2zm-2 12h2v1h-2v-1z"></path>
</svg>
