<svg xmlns="http://www.w3.org/2000/svg" width="60" height="60" viewBox="0 0 60 60" class="heroicon-award heroicon heroicon-sm">
    <path class="heroicon-award-ribbon-outer heroicon-component-accent heroicon-component-fill" d="M25.53 49.53l2.02-7.54c.54.42 1.18.69 1.86.76l-3.2 11.96-4.25-7.35-7.34 4.24 3.46-12.93c.4.64.99 1.15 1.68 1.47l-1.96 7.32 4.9-2.83 2.83 4.9zm5.4-4.7l-.01.01.66-2.43c.23-.11.45-.25.65-.41v-.02l2.02 7.55 2.83-4.9 4.9 2.83-1.96-7.32a3.9 3.9 0 0 0 1.68-1.47l3.46 12.93-7.35-4.24-4.24 7.35-2.64-9.88z"></path>
    <path class="heroicon-award-ribbon-inner heroicon-component-fill" d="M22.08 40.43c1.6-.17 3.2.16 4.6.94l-1.5 5.57-2.12-3.68-3.67 2.12 1.32-4.93c.38.07.77.08 1.15.01l.22-.03zm12.51 6.5l.01.01-1.5-5.57c1.4-.78 3-1.1 4.6-.94l.22.03c.38.07.77.06 1.15-.01l1.32 4.93-3.67-2.12-2.13 3.67z"></path>
    <path class="heroicon-award-badge-inner heroicon-component-fill" d="M43.89 21.89a14 14 0 1 0-28 0 14 14 0 0 0 28 0z"></path>
    <path class="heroicon-award-badge-outer heroicon-component-accent heroicon-component-fill" d="M21.76 38.46l-.22.03c-.1.01-.21.02-.31.01a1.93 1.93 0 0 1-.91-.33l-.03-.02c-.27-.19-.5-.44-.6-.74l-.08-.2a8.62 8.62 0 0 0-1.69-2.64l1.72-1.73a14.98 14.98 0 0 0 5.89 3.4l-.64 2.36a8.36 8.36 0 0 0-3.13-.14zm5.5.96a9.97 9.97 0 0 0-1.4-.56l.63-2.36c2.24.52 4.56.52 6.8 0l.63 2.36a8.84 8.84 0 0 0-2.79 1.44l-.17.14a1.7 1.7 0 0 1-1 .34c-.42.01-.84-.1-1.14-.34l-.17-.14c-.43-.34-.9-.63-1.39-.88zm7.62-.82l-.63-2.36c2.2-.67 4.21-1.83 5.89-3.4l1.72 1.73a11 11 0 0 0-.86 1.08 7.5 7.5 0 0 0-.83 1.57l-.08.2a1.7 1.7 0 0 1-.61.73 1.78 1.78 0 0 1-1.25.34l-.21-.03a8.63 8.63 0 0 0-3.14.14zm7.69-4.74l-1.73-1.72a14.98 14.98 0 0 0 3.4-5.89l2.36.63a8.42 8.42 0 0 0-.14 3.14l.03.21c.07.79-.36 1.53-1.08 1.86l-.2.08c-.98.4-1.87.97-2.64 1.69zm4.29-7.94l-2.36-.63c.52-2.24.52-4.56 0-6.8l2.36-.63c.3 1.01.8 1.96 1.44 2.79l.14.17c.45.55.45 1.58 0 2.14l-.14.17a8.63 8.63 0 0 0-1.44 2.79zm-.26-9.03l-2.36.64a14.98 14.98 0 0 0-3.4-5.89l1.73-1.73c.77.72 1.67 1.3 2.65 1.7l.2.08a1.86 1.86 0 0 1 1.07 1.85l-.03.22c-.14 1.04-.1 2.1.14 3.13zm-4.74-7.68l-1.72 1.72a15.16 15.16 0 0 0-5.89-3.4l.63-2.35c1.08.24 2.18.3 3.14.14l.21-.03c.79-.07 1.53.36 1.86 1.08l.08.2c.4.98.97 1.87 1.69 2.64zm-7.94-4.29l-.63 2.36a15.05 15.05 0 0 0-6.8 0l-.63-2.36c1.01-.3 1.96-.8 2.79-1.44l.17-.14c.64-.45 1.5-.45 2.14 0l.17.14a8.63 8.63 0 0 0 2.79 1.44zm-14.28 6.02l-1.73-1.73a8.52 8.52 0 0 0 1.7-2.65l.08-.2a1.85 1.85 0 0 1 1.85-1.07l.22.03c.96.16 2.06.1 3.13-.14l.64 2.36c-2.2.67-4.21 1.83-5.89 3.4zm-5.07.67c.98-.4 1.87-.97 2.64-1.69l1.72 1.72a14.98 14.98 0 0 0-3.4 5.89l-2.35-.63c.24-1.08.3-2.18.14-3.14l-.03-.22a1.86 1.86 0 0 1 1.08-1.85l.2-.08zm-1.65 6.25l2.36.63a15.05 15.05 0 0 0 0 6.8l-2.36.63a8.87 8.87 0 0 0-1.44-2.79l-.14-.17a1.86 1.86 0 0 1 0-2.14l.14-.17a8.63 8.63 0 0 0 1.44-2.79zm.26 9.02l2.36-.63c.67 2.2 1.83 4.21 3.4 5.89l-1.73 1.73a8.52 8.52 0 0 0-2.65-1.7l-.2-.08a1.85 1.85 0 0 1-1.07-1.86l.03-.21c.16-.96.1-2.06-.14-3.14z"></path>
    <path class="heroicon-outline" fill-rule="nonzero" d="M45.92 34.04a7.43 7.43 0 0 0-2.82 2.15l5.24 19.56-9.8-5.66-5.65 9.8-3-11.2-3 11.2-5.66-9.8-9.8 5.66 5.25-19.56a7.42 7.42 0 0 0-2.83-2.15l-.2-.08a3.85 3.85 0 0 1-2.34-4.04l.04-.22c.2-1.88-.3-3.77-1.42-5.3l-.14-.18a3.85 3.85 0 0 1 0-4.67l.14-.17a7.64 7.64 0 0 0 1.42-5.3l-.04-.22a3.85 3.85 0 0 1 2.34-4.04l.2-.08a7.64 7.64 0 0 0 3.89-3.89l.08-.2a3.86 3.86 0 0 1 4.04-2.34l.22.04c1.88.2 3.77-.3 5.3-1.42l.17-.14a3.85 3.85 0 0 1 4.67 0l.17.14a7.64 7.64 0 0 0 5.31 1.42l.22-.04a3.85 3.85 0 0 1 4.04 2.34l.08.2a7.64 7.64 0 0 0 3.88 3.89l.21.08c1.55.59 2.6 2.4 2.33 4.04l-.03.22c-.2 1.88.3 3.77 1.42 5.3l.14.17a3.85 3.85 0 0 1 0 4.67l-.14.17a7.64 7.64 0 0 0-1.42 5.31l.03.22a3.85 3.85 0 0 1-2.33 4.04l-.2.08h-.01zm-23.84 6.39l-.22.03c-.38.07-.77.06-1.15-.01l-1.32 4.93 3.67-2.12 2.12 3.68 1.5-5.57c-1.4-.78-3-1.1-4.6-.94zm-.32-1.97c.96-.16 2.06-.1 3.13.14l.64-2.36a14.98 14.98 0 0 1-5.89-3.4l-1.72 1.73a8.62 8.62 0 0 1 1.69 2.64l.08.2c.1.3.33.55.6.74l.03.02c.27.19.6.3.91.33.1.01.21 0 .31-.01l.22-.03zm5.5.96c.5.25.96.54 1.39.88l.17.14c.3.24.72.35 1.14.34.36 0 .71-.12 1-.34l.17-.14a8.84 8.84 0 0 1 2.79-1.44l-.63-2.36c-2.24.52-4.56.52-6.8 0l-.63 2.36c.48.15.95.34 1.4.56zm7.62-.82a8.63 8.63 0 0 1 3.14-.14l.21.03a1.78 1.78 0 0 0 1.25-.34c.28-.2.5-.45.61-.73l.08-.2c.21-.55.5-1.08.83-1.57a11 11 0 0 1 .86-1.08l-1.72-1.73a14.98 14.98 0 0 1-5.89 3.4l.63 2.36zm7.69-4.74a8.63 8.63 0 0 1 2.64-1.69l.2-.08a1.86 1.86 0 0 0 1.08-1.86l-.03-.21c-.16-.96-.1-2.06.14-3.14l-2.36-.63a14.98 14.98 0 0 1-3.4 5.89l1.73 1.72zm4.29-7.94c.3-1.01.8-1.96 1.44-2.79l.14-.17c.45-.56.45-1.59 0-2.14l-.14-.17a8.63 8.63 0 0 1-1.44-2.79l-2.36.63c.52 2.24.52 4.56 0 6.8l2.36.63zm-.26-9.03a8.63 8.63 0 0 1-.14-3.13l.03-.22c.11-.7-.4-1.6-1.07-1.85l-.2-.08a8.63 8.63 0 0 1-2.65-1.7l-1.73 1.73a14.98 14.98 0 0 1 3.4 5.89l2.36-.64zm-4.74-7.68a8.63 8.63 0 0 1-1.69-2.64l-.08-.2a1.86 1.86 0 0 0-1.86-1.08l-.21.03c-.96.16-2.06.1-3.14-.14l-.63 2.35c2.23.68 4.23 1.86 5.89 3.4l1.72-1.72zm-7.94-4.29a8.63 8.63 0 0 1-2.79-1.44l-.17-.14a1.86 1.86 0 0 0-2.14 0l-.17.14a8.63 8.63 0 0 1-2.79 1.44l.63 2.36c2.24-.52 4.56-.52 6.8 0l.63-2.36zm-14.28 6.02a14.98 14.98 0 0 1 5.89-3.4l-.64-2.36c-1.07.24-2.17.3-3.13.14l-.22-.03c-.7-.12-1.6.4-1.85 1.07l-.08.2a8.52 8.52 0 0 1-1.7 2.65l1.73 1.73zm-5.07.67l-.2.08a1.86 1.86 0 0 0-1.08 1.85l.03.22c.16.96.1 2.06-.14 3.14l2.35.63c.67-2.2 1.83-4.21 3.4-5.89l-1.72-1.72a8.63 8.63 0 0 1-2.64 1.69zm-1.65 6.25a8.63 8.63 0 0 1-1.44 2.79l-.14.17c-.45.64-.45 1.5 0 2.14l.14.17c.61.76 1.1 1.74 1.44 2.79l2.36-.63a15.05 15.05 0 0 1 0-6.8l-2.36-.63zm.26 9.02c.24 1.08.3 2.18.14 3.14l-.03.21c-.12.72.4 1.6 1.07 1.86l.2.08c.92.35 1.83.95 2.65 1.7l1.73-1.73a14.98 14.98 0 0 1-3.4-5.89l-2.36.63zm12.35 22.65l-2.83-4.9-4.9 2.83 1.96-7.32a3.89 3.89 0 0 1-1.68-1.47L14.62 51.6l7.34-4.24 4.25 7.35 3.2-11.96a3.62 3.62 0 0 1-1.86-.76l-2.02 7.54zm5.4-4.7l2.64 9.88 4.24-7.35 7.35 4.24-3.46-12.93a3.9 3.9 0 0 1-1.68 1.47l1.96 7.32-4.9-2.83-2.83 4.9-2.02-7.55V42c-.2.16-.42.3-.65.41l-.66 2.43.01-.01zm3.66 2.1l2.13-3.67 3.67 2.12-1.32-4.93c-.38.07-.77.08-1.15.01l-.22-.03c-1.6-.17-3.2.16-4.6.94l1.5 5.57-.01-.01zm9.3-25.04a14 14 0 1 0-28 0 14 14 0 0 0 28 0zm-26 0c0-1.93.45-3.75 1.26-5.37l.9.45a10.95 10.95 0 0 0 0 9.84l-.9.45a11.95 11.95 0 0 1-1.26-5.37zm4.19-9.11l.65.76c-.76.65-1.43 1.4-2 2.25l-.83-.56c.61-.91 1.35-1.74 2.18-2.45zm7.8-2.89v1c-1.98 0-3.84.53-5.45 1.45l-.5-.87c1.76-1 3.8-1.58 5.96-1.58h-.01z"></path>
</svg>
