<svg xmlns="http://www.w3.org/2000/svg" width="60" height="60" viewBox="0 0 60 60" class="heroicon-contract heroicon heroicon-sm">
    <rect class="heroicon-contract-pages heroicon-component-fill" width="46" height="58" x="7" y="1"></rect>
    <polygon class="heroicon-shadows" points="42 51 6 51 6 60 54 60 54 41 42 41"></polygon>
    <path class="heroicon-outline" fill-rule="nonzero" d="M54 51v9H6V0h48v51zM8 2v49h34V40.5h7c1.13 0 2.16-.37 3-1V2H8zm44 49v-2.5c-.75 1-1.67 1.84-2.73 2.5H52zm0-9.18c-.9.44-1.93.68-3 .68h-5v8a8 8 0 0 0 8-8v-.68zM26 56v1H8v1h44v-1H37v-1h15v-1H33v-1h19v-1H8v1h12v1H8v1h18zM42 9v1H14V9h28zm0 2v1H14v-1h28zm-28 2h32v1H14v-1zm30 2v1H14v-1h30zm-30 5h30v1H14v-1zm32 2v1H14v-1h32zm-32 2h31v1H14v-1zm25 2v1H14v-1h25zm-25 3h32v1H14v-1zm30 2v1H14v-1h30zm-30 2h26v1H14v-1zm12 2v1H14v-1h12zm-12 8h16v1H14v-1zm16.65-3.65l.7-.7 1.15 1.14 1.15-1.14.7.7-1.14 1.15 1.14 1.15-.7.7-1.15-1.14-1.15 1.14-.7-.7 1.14-1.15-1.14-1.15zm-9.3-.7L23 40.29l.65-.64.35-.36.35.36.65.64.65-.64.35-.36.35.36 1 1-.7.7-.65-.64-.65.64-.35.36-.35-.36-.65-.64-.65.64-.35.36-.35-.36L21 39.71l-1.65 1.64-.35.36-.35-.36-.65-.64-.65.64-.35.36-.35-.36-.65-.64-.65.64-.7-.7 1-1 .35-.36.35.36.65.64.65-.64.35-.36.35.36.65.64 1.65-1.64.35-.36.35.36zM14 17h20v1H14v-1z"></path>
</svg>
