<svg xmlns="http://www.w3.org/2000/svg" width="60" height="60" viewBox="0 0 60 60" class="heroicon-envelope-x heroicon heroicon-sm">
    <rect class="heroicon-envelope-x-body heroicon-component-fill" width="60" height="36" y="6" rx="2"></rect>
    <path class="heroicon-envelope-x-sides heroicon-component-accent heroicon-component-fill" d="M55 31.25V11l4-4v29.2a12.04 12.04 0 0 0-4-4.95zM1 7l4 4v26l-4 4V7z"></path>
    <circle class="heroicon-envelope-x-circle heroicon-component-accent heroicon-component-fill" cx="48" cy="41" r="12"></circle>
    <polygon class="heroicon-envelope-x-symbol heroicon-component-fill" points="48 38.172 44.464 34.636 41.636 37.464 45.172 41 41.636 44.536 44.464 47.364 48 43.828 51.536 47.364 54.364 44.536 50.828 41 54.364 37.464 51.536 34.636"></polygon>
    <polygon class="heroicon-shadows" points="2 9 30 32 58 9 59 9 30 35 1 9"></polygon>
    <path class="heroicon-outline" fill-rule="nonzero" d="M60 40c0 .1 0 .2-.02.29L60 41a12 12 0 0 1-23.96 1H2a2 2 0 0 1-2-2V8c0-1.1.9-2 2-2h56a2 2 0 0 1 2 2v32zM4 11.2L2 9.6v28.8l2-1.6V11.2zM5 36l15-12L5 12v24zm-1.8 4h32.84a12 12 0 0 1 7.9-10.3l-5.54-4.42L30 32l-8.4-6.72L3.2 40zM48 29c2.61 0 5.03.83 7 2.25V12L40 24l6.38 5.1c.53-.06 1.07-.1 1.62-.1zm10 5.36V9.6l-2 1.6v20.86a12.2 12.2 0 0 1 2 2.3zM3.2 8L30 29.44 56.8 8H3.2zM48 51a10 10 0 1 0 0-20 10 10 0 0 0 0 20zm2.83-10l3.53 3.54-2.82 2.82L48 43.83l-3.54 3.53-2.82-2.82L45.17 41l-3.53-3.54 2.82-2.82L48 38.17l3.54-3.53 2.82 2.82L50.83 41zm2.12-3.54l-1.41-1.41L48 39.59l-3.54-3.54-1.41 1.41L46.59 41l-3.54 3.54 1.41 1.41L48 42.41l3.54 3.54 1.41-1.41L49.41 41l3.54-3.54z"></path>
</svg>
