<svg xmlns="http://www.w3.org/2000/svg" width="60" height="60" viewBox="0 0 60 60" class="heroicon-game-control heroicon heroicon-sm">
    <path class="heroicon-game-control-housing heroicon-component-fill" d="M19.23 14.94l-.85-3.43A2 2 0 0 0 16.44 10H9.56a2 2 0 0 0-1.94 1.51l-.85 3.43A10.99 10.99 0 0 0 2.6 27.59L0 51h10c2.21 0 4.8-1.6 5.79-3.57l2.32-4.65A8.02 8.02 0 0 0 28 35h4a8 8 0 0 0 9.89 7.78l2.32 4.65A7.07 7.07 0 0 0 50 51H60l-2.6-23.4a10.99 10.99 0 0 0-4.17-12.66l-.85-3.43A2 2 0 0 0 50.44 10h-6.88a2 2 0 0 0-1.94 1.51l-.85 3.43-.1.06H19.33l-.1-.06z"></path>
    <path class="heroicon-game-control-right-pad-top heroicon-component-accent heroicon-component-fill" d="M47 22a2 2 0 1 0 0-4 2 2 0 0 0 0 4z"></path>
    <path class="heroicon-game-control-right-pad-right heroicon-component-accent heroicon-component-fill" d="M53 24a2 2 0 1 1-4 0 2 2 0 0 1 4 0z"></path>
    <path class="heroicon-game-control-right-pad-bottom heroicon-component-accent heroicon-component-fill" d="M49 28a2 2 0 1 1-4 0 2 2 0 0 1 4 0z"></path>
    <path class="heroicon-game-control-right-pad-left heroicon-component-accent heroicon-component-fill" d="M45 24a2 2 0 1 1-4 0 2 2 0 0 1 4 0z"></path>
    <path class="heroicon-game-control-joysticks heroicon-component-accent heroicon-component-fill" d="M24 35a4 4 0 1 1-8 0 4 4 0 0 1 8 0zm16 4a4 4 0 1 1 0-8 4 4 0 0 1 0 8z"></path>
    <path class="heroicon-game-control-left-pad heroicon-component-accent heroicon-component-fill" d="M13.7 22.3l-.7.7-.7-.7L11 21v-3h4v3l-1.3 1.3zm1 2.4L14 24l.7-.7L16 22h3v4h-3l-1.3-1.3zM11 30v-3l1.3-1.3.7-.7.7.7L15 27v3h-4zm.3-6.7l.7.7-.7.7L10 26H7v-4h3l1.3 1.3z"></path>
    <path class="heroicon-game-control-button-center-circle heroicon-component-accent heroicon-component-fill" d="M30 31a3 3 0 1 0 0-6 3 3 0 0 0 0 6z"></path>
    <path class="heroicon-game-control-buttons-center-square heroicon-component-accent heroicon-component-fill" d="M25 20h4v3h-5v-3h1zm6 0h5v3h-5v-3z"></path>
    <path class="heroicon-shadows" d="M47 35a10 10 0 0 0 9.99-10.5A10 10 0 0 1 46.93 34c.05.33.07.66.07 1zm-9.4-6.58a9.98 9.98 0 0 1-.59-3.92c.07 1.35.4 2.64.96 3.8l-.37.12zm-15.2 0a9.98 9.98 0 0 0 .59-3.92 9.95 9.95 0 0 1-.96 3.8l.37.12zM13 35a10 10 0 0 1-9.99-10.5A10 10 0 0 0 13.07 34c-.05.33-.07.66-.07 1z"></path>
    <path class="heroicon-outline" fill-rule="nonzero" d="M19.23 14.94l.1.06h21.34l.1-.06.85-3.43A2 2 0 0 1 43.56 10h6.88a2 2 0 0 1 1.94 1.51l.85 3.43a10.99 10.99 0 0 1 4.17 12.65L60 51H50c-2.21 0-4.8-1.6-5.79-3.57l-2.32-4.65A8.02 8.02 0 0 1 32 35h-4a8 8 0 0 1-9.89 7.78l-2.32 4.65A7.07 7.07 0 0 1 10 51H0l2.6-23.4a10.98 10.98 0 0 1 4.17-12.66l.85-3.43A2 2 0 0 1 9.56 10h6.88a2 2 0 0 1 1.94 1.51l.85 3.43zM16.43 12H9.57l-.42 1.7a10.98 10.98 0 0 1 7.72 0l-.42-1.7zm-12 17.17L2.24 49h7.78A5.1 5.1 0 0 0 14 46.53l2.68-5.37a7 7 0 0 1-3.6-7.16H13a10 10 0 0 1-8.56-4.83zm18.54-.51A7.02 7.02 0 0 1 26.7 33h6.58a7.02 7.02 0 0 1 4.68-4.7A9.9 9.9 0 0 1 37 24c0-2.73 1.09-5.2 2.86-7H20.14a9.97 9.97 0 0 1 1.9 11.3c.31.1.63.22.93.36zm32.6.5A10 10 0 0 1 47 34h-.07a7.05 7.05 0 0 1-3.61 7.16L46 46.53A5.1 5.1 0 0 0 50 49h7.77l-2.2-19.83zm-4.7-15.46l-.43-1.7h-6.88l-.42 1.7a10.98 10.98 0 0 1 7.72 0zm-36.8 20.44a6 6 0 1 0 7.68-4.88l-1.12-.34.5-1.05A9 9 0 1 0 13 33h1.22l-.16 1.14zm24.19-4.88a6 6 0 1 0 7.68 4.88L45.78 33H47a9 9 0 1 0-8.13-5.13l.5 1.05-1.11.34zM30 31a3 3 0 1 1 0-6 3 3 0 0 1 0 6zm2-3a2 2 0 1 0-4 0 2 2 0 0 0 4 0zm-7-8h4v3h-5v-3h1zm3 1h-3v1h3v-1zm3-1h5v3h-5v-3zm1 1v1h3v-1h-3zm-8 14a4 4 0 1 1-8 0 4 4 0 0 1 8 0zm-4 3a3 3 0 1 0 0-6 3 3 0 0 0 0 6zm-6.3-15.7l-.7.7-.7-.7L11 21v-3h4v3l-1.3 1.3zM12 19v1.59l1 1 1-1V19h-2zm2.7 5.7L14 24l.7-.7L16 22h3v4h-3l-1.3-1.3zm3.3.3v-2h-1.59l-1 1 1 1H18zm-7 5v-3l1.3-1.3.7-.7.7.7L15 27v3h-4zm3-2.59l-1-1-1 1V29h2v-1.59zm-2.7-4.12l.7.71-.7.7L10 26H7v-4h3l1.3 1.3zM8 25h1.59l1-1-1-1H8v2zm32 14a4 4 0 1 1 0-8 4 4 0 0 1 0 8zm3-4a3 3 0 1 0-6 0 3 3 0 0 0 6 0zm2-11a2 2 0 1 1-4 0 2 2 0 0 1 4 0zm-2 1a1 1 0 1 0 0-2 1 1 0 0 0 0 2zm10-1a2 2 0 1 1-4 0 2 2 0 0 1 4 0zm-2 1a1 1 0 1 0 0-2 1 1 0 0 0 0 2zm-4-3a2 2 0 1 1 0-4 2 2 0 0 1 0 4zm1-2a1 1 0 1 0-2 0 1 1 0 0 0 2 0zm1 8a2 2 0 1 1-4 0 2 2 0 0 1 4 0zm-2 1a1 1 0 1 0 0-2 1 1 0 0 0 0 2z"></path>
</svg>
