<svg xmlns="http://www.w3.org/2000/svg" width="60" height="60" viewBox="0 0 60 60" class="heroicon-memory heroicon heroicon-sm">
    <path class="heroicon-memory-board heroicon-component-fill" d="M0 4a4 4 0 0 1 4-4h52a4 4 0 0 1 4 4v52a4 4 0 0 1-4 4H4a4 4 0 0 1-4-4V4z"></path>
    <path class="heroicon-memory-chip heroicon-component-accent heroicon-component-fill" fill-rule="nonzero" d="M11 13c0-1.1.9-2 2-2h34a2 2 0 0 1 2 2v34a2 2 0 0 1-2 2H13a2 2 0 0 1-2-2V13z"></path>
    <path class="heroicon-memory-chip-pins heroicon-component-fill" d="M12 8h36v4H12V8zm0 40h36v4H12v-4zM8 12h4v36H8V12zm40 0h4v36h-4V12z"></path>
    <path class="heroicon-outline" fill-rule="nonzero" d="M0 4a4 4 0 0 1 4-4h52a4 4 0 0 1 4 4v52a4 4 0 0 1-4 4H4a4 4 0 0 1-4-4V4zm4-2a2 2 0 0 0-2 2v52c0 1.1.9 2 2 2h52a2 2 0 0 0 2-2V4a2 2 0 0 0-2-2H4zm7.27 10c.17-.3.43-.56.73-.73V8h1V6h2v2h2V6h2v2h2V6h2v2h2V6h2v2h2V6h2v2h2V6h2v2h2V6h2v2h2V6h2v2h2V6h2v2h1v3.27a2 2 0 0 1 .73.73H52v1h2v2h-2v2h2v2h-2v2h2v2h-2v2h2v2h-2v2h2v2h-2v2h2v2h-2v2h2v2h-2v2h2v2h-2v2h2v2h-2v1h-3.27a2 2 0 0 1-.73.73V52h-1v2h-2v-2h-2v2h-2v-2h-2v2h-2v-2h-2v2h-2v-2h-2v2h-2v-2h-2v2h-2v-2h-2v2h-2v-2h-2v2h-2v-2h-2v2h-2v-2h-1v-3.27a2 2 0 0 1-.73-.73H8v-1H6v-2h2v-2H6v-2h2v-2H6v-2h2v-2H6v-2h2v-2H6v-2h2v-2H6v-2h2v-2H6v-2h2v-2H6v-2h2v-2H6v-2h2v-1h3.27zM13 13v34h34V13H13zm9 8h17v18H21V21h1zm16 1H22v16h16V22zm-21-3a2 2 0 1 1 0-4 2 2 0 0 1 0 4zm1-2a1 1 0 1 0-2 0 1 1 0 0 0 2 0zm27 0a2 2 0 1 1-4 0 2 2 0 0 1 4 0zm-2 1a1 1 0 1 0 0-2 1 1 0 0 0 0 2zM17 45a2 2 0 1 1 0-4 2 2 0 0 1 0 4zm1-2a1 1 0 1 0-2 0 1 1 0 0 0 2 0zm27 0a2 2 0 1 1-4 0 2 2 0 0 1 4 0zm-2 1a1 1 0 1 0 0-2 1 1 0 0 0 0 2zm-32 3v-2H9v2h2zm0-4v-2H9v2h2zm0-4v-2H9v2h2zm0-4v-2H9v2h2zm0-4v-2H9v2h2zm0-4v-2H9v2h2zm0-4v-2H9v2h2zm0-4v-2H9v2h2zm0-4v-2H9v2h2zm36 34h-2v2h2v-2zm-4 0h-2v2h2v-2zm-4 0h-2v2h2v-2zm-4 0h-2v2h2v-2zm-4 0h-2v2h2v-2zm-4 0h-2v2h2v-2zm-4 0h-2v2h2v-2zm-4 0h-2v2h2v-2zm-4 0h-2v2h2v-2zm34-36v2h2v-2h-2zm0 4v2h2v-2h-2zm0 4v2h2v-2h-2zm0 4v2h2v-2h-2zm0 4v2h2v-2h-2zm0 4v2h2v-2h-2zm0 4v2h2v-2h-2zm0 4v2h2v-2h-2zm0 4v2h2v-2h-2zm-4-34h2V9h-2v2zm-4 0h2V9h-2v2zm-4 0h2V9h-2v2zm-4 0h2V9h-2v2zm-4 0h2V9h-2v2zm-4 0h2V9h-2v2zm-4 0h2V9h-2v2zm-4 0h2V9h-2v2zm-3-2h-1v2h2V9h-1z"></path>
</svg>
