<svg xmlns="http://www.w3.org/2000/svg" width="60" height="60" viewBox="0 0 60 60" class="heroicon-wallet heroicon heroicon-sm">
    <path class="heroicon-wallet-cover heroicon-component-fill" d="M58 50v-9a2 2 0 0 0 2-2v-8a2 2 0 0 0-2-2V19a4 4 0 0 0-4-4v-5h-4a4 4 0 0 0-4-4H4a4 4 0 0 0-4 4v40a4 4 0 0 0 4 4h50a4 4 0 0 0 4-4z"></path>
    <path class="heroicon-wallet-strap heroicon-component-accent heroicon-component-fill" d="M48 31a4 4 0 0 0 0 8h10v-8H48z"></path>
    <path class="heroicon-wallet-snap heroicon-component-fill" d="M48 38a3 3 0 1 0 0-6 3 3 0 0 0 0 6z"></path>
    <rect class="heroicon-wallet-cash heroicon-component-accent heroicon-component-fill" width="50" height="7" x="4" y="10"></rect>
    <path class="heroicon-shadows" d="M2 45v3c0 1.1.9 2 2 2h50a2 2 0 0 0 2-2v-3 5a2 2 0 0 1-2 2H4a2 2 0 0 1-2-2v-5zm40-8c0-.34.03-.67.08-1A6 6 0 0 0 48 41H58v2H48a6 6 0 0 1-6-6z"></path>
    <path class="heroicon-outline" fill-rule="nonzero" d="M58 50a4 4 0 0 1-4 4H4a4 4 0 0 1-4-4V10a4 4 0 0 1 4-4h42a4 4 0 0 1 4 4h4v5a4 4 0 0 1 4 4v10a2 2 0 0 1 2 2v8a2 2 0 0 1-2 2v9zM4 17v-7h44a2 2 0 0 0-2-2H4a2 2 0 0 0-2 2v7c0 1.1.9 2 2 2h50v1H4c-.77 0-1.47-.29-2-.76V50c0 1.1.9 2 2 2h50a2 2 0 0 0 2-2v-9h-8a6 6 0 0 1 0-12h8V19a2 2 0 0 0-2-2H4zm48-2v-1H7v-1h45v-1H6v3h46zm-4 16a4 4 0 0 0 0 8h10v-8H48zM4 29h1v12H4V29zm2-8v1H4v-1h2zm4 0v1H8v-1h2zm2 0h2v1h-2v-1zm6 0v1h-2v-1h2zm2 0h2v1h-2v-1zm6 0v1h-2v-1h2zm2 0h2v1h-2v-1zm6 0v1h-2v-1h2zm2 0h2v1h-2v-1zm6 0v1h-2v-1h2zm2 0h2v1h-2v-1zm6 0v1h-2v-1h2zm4 0v1h-2v-1h2zM4 50h2v1H4v-1zm4 0h2v1H8v-1zm6 0v1h-2v-1h2zm2 0h2v1h-2v-1zm6 0v1h-2v-1h2zm2 0h2v1h-2v-1zm6 0v1h-2v-1h2zm2 0h2v1h-2v-1zm6 0v1h-2v-1h2zm2 0h2v1h-2v-1zm6 1h-2v-1h2v1zm2-1h2v1h-2v-1zm4 0h2v1h-2v-1zm-4-12a3 3 0 1 1 0-6 3 3 0 0 1 0 6zm2-3a2 2 0 1 0-4 0 2 2 0 0 0 4 0z"></path>
</svg>
