<svg xmlns="http://www.w3.org/2000/svg" width="60" height="60" viewBox="0 0 60 60" class="heroicon-tablet heroicon heroicon-sm">
    <rect class="heroicon-tablet-edge heroicon-component-accent heroicon-component-fill" width="48" height="60" x="6" rx="4"></rect>
    <rect class="heroicon-tablet-screen heroicon-component-fill" width="40" height="46" x="10" y="7"></rect>
    <path class="heroicon-outline" fill-rule="nonzero" d="M10 0h40a4 4 0 0 1 4 4v52a4 4 0 0 1-4 4H10a4 4 0 0 1-4-4V4a4 4 0 0 1 4-4zm40 2H10a2 2 0 0 0-2 2v52c0 1.1.9 2 2 2h40a2 2 0 0 0 2-2V4a2 2 0 0 0-2-2zM11 7h39v46H10V7h1zm38 1H11v44h38V8zM27 55.5c0-.83.67-1.5 1.5-1.5h3a1.5 1.5 0 0 1 0 3h-3a1.5 1.5 0 0 1-1.5-1.5zm1.5-.5a.5.5 0 1 0 0 1h3a.5.5 0 1 0 0-1h-3zm1.57-31.71l.86.5-4 6.92-.86-.5 4-6.92zm1 3l.86.5-4 6.92-.86-.5 4-6.92zM28 4h4v1h-4V4z"></path>
</svg>
