<svg xmlns="http://www.w3.org/2000/svg" width="60" height="60" viewBox="0 0 60 60" class="heroicon-phone heroicon heroicon-sm">
    <rect class="heroicon-phone-edge heroicon-component-accent heroicon-component-fill" width="36" height="60" x="12" rx="4"></rect>
    <rect class="heroicon-phone-screen heroicon-component-fill" width="28" height="46" x="16" y="7"></rect>
    <path class="heroicon-outline" fill-rule="nonzero" d="M16 0h28a4 4 0 0 1 4 4v52a4 4 0 0 1-4 4H16a4 4 0 0 1-4-4V4a4 4 0 0 1 4-4zm28 2H16a2 2 0 0 0-2 2v52c0 1.1.9 2 2 2h28a2 2 0 0 0 2-2V4a2 2 0 0 0-2-2zM17 7h27v46H16V7h1zm26 1H17v44h26V8zM27 55.5c0-.83.67-1.5 1.5-1.5h3a1.5 1.5 0 0 1 0 3h-3a1.5 1.5 0 0 1-1.5-1.5zm1.5-.5a.5.5 0 0 0 0 1h3a.5.5 0 0 0 0-1h-3zm2.57-31.71l.86.5-4 6.92-.86-.5 4-6.92zm1 3l.86.5-4 6.92-.86-.5 4-6.92zM28 4h4v1h-4V4z"></path>
</svg>
