<svg xmlns="http://www.w3.org/2000/svg" width="60" height="60" viewBox="0 0 60 60" class="heroicon-home heroicon heroicon-sm">
    <path class="heroicon-home-wall heroicon-component-fill" d="M37 53V33H23v20H5V30L30 5l25 25v23H37zm-7-30a5 5 0 1 0 0-10 5 5 0 0 0 0 10zM10 33v12H9v3h12v-3h-1V33H10zm30 0v12h-1v3h12v-3h-1V33H40z"></path>
    <polygon class="heroicon-home-roof heroicon-component-accent heroicon-component-fill" points="0 30 5 25 5 4 26 4 30 0 34 4 55 4 55 25 60 30 57 33 30 6 3 33"></polygon>
    <path class="heroicon-home-frames heroicon-component-accent heroicon-component-fill" d="M35 53h2V33H23v20h2V35h10v18zm-5-30a5 5 0 1 1 0-10 5 5 0 0 1 0 10zM10 33h10v12h1v3H9v-3h1V33zm30 0h10v12h1v3H39v-3h1V33zm-28 2v11h6V35h-6zm30 0v11h6V35h-6zM30 21a3 3 0 1 0 0-6 3 3 0 0 0 0 6z"></path>
    <rect class="heroicon-home-door heroicon-component-accent heroicon-component-fill" width="10" height="18" x="25" y="35"></rect>
    <path class="heroicon-home-windows heroicon-component-fill" d="M12 35h6v11h-6V35zm30 0h6v11h-6V35zM30 21a3 3 0 1 1 0-6 3 3 0 0 1 0 6z"></path>
    <rect class="heroicon-home-parging heroicon-component-fill" width="50" height="7" x="5" y="53"></rect>
    <path class="heroicon-shadows" d="M5 30L30 5l25 25v3L30 8 5 33v-3zm4 18h12v1H9v-1zm30 0h12v1H39v-1z"></path>
    <path class="heroicon-outline" fill-rule="nonzero" d="M55 58h5v2H0v-2h5V31l-1.3 1.3-.7.7-.7-.7-1.6-1.6L0 30l.7-.7L5 25V4h21L29.3.7 30 0l.7.7L34 4h21v21l4.3 4.3.7.7-.7.7-1.6 1.6-.7.7-.7-.7L55 31v27zM30.7 6.7L30 6l-.7.7L11 25h38L30.7 6.7zM7 29v23h16V33h14v19h16V29l-3-3H10l-3 3zm46-18V9h-4V8h2V7h1v1h1V6H36l2 2h3V7h1v1h2v1h-5l5 5h1v-1h1v1h4v1h-5l8 8V12h-7v-1h2v-1h1v1h4zM7 6v2h2V7h1v1h3v1H7v5h2v-1h1v1h4v1H7v8l11-11h-8v-1h2v-1h1v1h5v-1h1v1l5-5H7zM3 31.59l26.3-26.3.7-.7.7.7L57 31.6 58.59 30 30 1.41 1.41 30 3 31.59zM19 58v-3h2v-2H7v5h12zm20 0v-1H21v1h18zm14 0v-5H39v2h2v3h12zm-17-6V34H24v18h1V35h10v17h1zM26 36v16h8V36h-8zm11 18H23v1h14v-1zm-7-31a5 5 0 1 1 0-10 5 5 0 0 1 0 10zm4-5a4 4 0 1 0-8 0 4 4 0 0 0 8 0zm-1 0a3 3 0 1 1-6 0 3 3 0 0 1 6 0zm-3 2a2 2 0 1 0 0-4 2 2 0 0 0 0 4zM10 34v-1h10v12h1v3H9v-3h1V34zm9 0h-8v11h1V35h6v10h1V34zm-6 11h4v-4h-4v4zm4-5v-4h-4v4h4zm2 6h-9v1h10v-1h-1zm21-1V33h10v12h1v3H39v-3h1zm9-11h-8v11h1V35h6v10h1V34zm-2 6v-4h-4v4h4zm3 6H40v1h10v-1zm-3-1v-4h-4v4h4zm-18 0a1 1 0 1 1-2 0 1 1 0 0 1 2 0zm-2-2v-6h2v1h-1v5h-1zm0 5v-1h6v1h-5v3h-1v-3zm6-11v1h-1v5h-1v-6h2z"></path>
</svg>
