<svg xmlns="http://www.w3.org/2000/svg" width="60" height="60" viewBox="0 0 60 60" class="heroicon-folder-parent heroicon heroicon-sm">
    <polygon class="heroicon-folder-parent-tab heroicon-component-accent heroicon-component-fill" points="1 2 27 2 33 8 59 8 59 12 1 12"></polygon>
    <rect class="heroicon-folder-parent-cover heroicon-component-fill" width="58" height="35" x="1" y="12"></rect>
    <path class="heroicon-folder-parent-path heroicon-component-accent heroicon-component-fill" d="M34 52v-5h-8v5H1v6h25v1h8v-1h25v-6H34z"></path>
    <rect class="heroicon-shadows" width="58" height="2" x="1" y="9"></rect>
    <path class="heroicon-outline" fill-rule="nonzero" d="M33 6h25a2 2 0 0 1 2 2v38a2 2 0 0 1-2 2H35v2h1v1h24v8H36v1H24v-1H0v-8h24v-1h1v-2H2a2 2 0 0 1-2-2V2C0 .9.9 0 2 0h25l6 6zM2 13h56v-1H2v1zm0 1v32h56V14H2zm56-6H32.17l-.58-.59L26.17 2H2v8h56V8zM27 50h6v-2h-6v2zm7 2h-8v6h8v-6zm24 1H36v4h22v-4zM2 53v4h22v-4H2zM26 4v1H4V4h22zM4 7h18v1H4V7zm29 46v1h-6v-1h6z"></path>
</svg>
