<svg xmlns="http://www.w3.org/2000/svg" width="60" height="60" viewBox="0 0 60 60" class="heroicon-folder-minus heroicon heroicon-sm">
    <polygon class="heroicon-folder-minus-tab heroicon-component-accent heroicon-component-fill" points="1 2 27 2 33 8 59 8 59 12 1 12"></polygon>
    <path class="heroicon-folder-minus-cover heroicon-component-fill" d="M59 48V12H1v36h36a11 11 0 0 1 22 0z"></path>
    <circle class="heroicon-folder-minus-circle heroicon-component-accent heroicon-component-fill" cx="48" cy="48" r="11"></circle>
    <rect class="heroicon-folder-minus-symbol heroicon-component-fill" width="14" height="4" x="41" y="46"></rect>
    <rect class="heroicon-shadows" width="58" height="2" x="1" y="10"></rect>
    <path class="heroicon-outline" fill-rule="nonzero" d="M33 7h25a2 2 0 0 1 2 2v38c0 .1 0 .2-.02.29L60 48a12 12 0 0 1-23.96 1H2a2 2 0 0 1-2-2V3c0-1.1.9-2 2-2h25l6 6zm25 34.36V15H2v32h34.04A12 12 0 0 1 58 41.36zM58 14v-1H2v1h56zm0-5H32.17l-.58-.59L26.17 3H2v8h56V9zM48 58a10 10 0 1 0 0-20 10 10 0 0 0 0 20zm-6-12h13v4H41v-4h1zm12 1H42v2h12v-2zM4 8h18v1H4V8zm0-3h22v1H4V5z"></path>
</svg>
