<svg xmlns="http://www.w3.org/2000/svg" width="60" height="60" viewBox="0 0 60 60" class="heroicon-paper-airplane heroicon heroicon-sm">
    <polygon class="heroicon-paper-airplane-background heroicon-component-fill" points="57.317 59.106 36 52 31.25 58.333 30 60 28.75 58.333 24 52 2.683 59.106 0 60 1.265 57.47 3.6 52.8 4.232 51.535 10.8 38.4 28.882 2.236 30 0 31.118 2.236 49.2 38.4 55.768 51.535 56.4 52.8 58.735 57.47 60 60"></polygon>
    <path class="heroicon-paper-airplane-stripes heroicon-component-accent heroicon-component-fill" d="M33.97 34.38l13.18 4.39 5.93 11.87-17.93-5.98-1.18-10.28zm-7.94 0l-1.18 10.28-17.93 5.98 5.93-11.87 13.18-4.4z"></path>
    <polygon class="heroicon-shadows" points="30 0 36 52 30 60 24 52"></polygon>
    <path class="heroicon-outline" fill-rule="nonzero" d="M57.32 59.1L36 52l-4.75 6.33L30 60l-1.25-1.67L24 52 2.68 59.1 0 60l1.26-2.53L3.6 52.8l.63-1.26L10.8 38.4 28.88 2.24 30 0l1.12 2.24L49.2 38.4l6.57 13.14.63 1.26 2.34 4.67L60 60l-2.68-.9zM30.67 5.82l.34 2.91 2.83 24.56 12.68 4.23L30.67 5.8zm3.3 28.57l1.18 10.28 17.93 5.98-5.93-11.87-13.18-4.4zm1.31 11.38l.47 4.05 20.3 6.77-2.33-4.67-18.44-6.15zM29.33 5.81l-15.85 31.7 12.68-4.23 2.83-24.56.34-2.9zm-3.3 28.57l-13.18 4.39-5.93 11.87 17.93-5.98 1.18-10.28zm-1.31 11.38L6.28 51.91l-2.33 4.67 20.3-6.77.47-4.05zm1.36 5.68l2.92 3.9V26.11l-2.92 25.32zm7.84 0L31 26.12v29.21l2.92-3.9z"></path>
</svg>
