<svg xmlns="http://www.w3.org/2000/svg" width="60" height="60" viewBox="0 0 60 60" class="heroicon-anchor heroicon heroicon-sm">
    <path class="heroicon-anchor-body heroicon-component-fill" d="M26 44a6 6 0 0 1-6 6h-2a6 6 0 0 1-6-6v-3a1 1 0 0 1 1-1h5l-1.33-2L8 25l-2-3v22a12 12 0 0 0 12 12h7.59a1 1 0 0 1 .7.3l2.3 2.29L30 60l1.41-1.41 2.3-2.3a1 1 0 0 1 .7-.29H42a12 12 0 0 0 12-12V22l-2 3-8.67 13L42 40h5a1 1 0 0 1 1 1v3a6 6 0 0 1-6 6h-2a6 6 0 0 1-6-6V12.75a7 7 0 1 0-8 0V44z"></path>
    <path class="heroicon-anchor-stock heroicon-component-accent heroicon-component-fill" d="M23 17h14v6H23v-6zm18 0h4v6h-4v-6zm-26 0h4v6h-4v-6z"></path>
    <path class="heroicon-anchor-hoops heroicon-component-fill" d="M19 16h4v8h-4v-8zm18 0h4v8h-4v-8z"></path>
    <rect class="heroicon-shadows" width="6" height="4" x="27" y="23"></rect>
    <path class="heroicon-outline" fill-rule="nonzero" d="M26 16v-3.25a7 7 0 1 1 8 0V16h2.27A2 2 0 0 1 38 15h2a2 2 0 0 1 1.73 1H44a2 2 0 0 1 2 2v4a2 2 0 0 1-2 2h-2.27A2 2 0 0 1 40 25h-2a2 2 0 0 1-1.73-1H34v20a6 6 0 0 0 6 6h2a6 6 0 0 0 6-6v-3a1 1 0 0 0-1-1h-5l1.33-2L52 25l2-3v22a12 12 0 0 1-12 12h-7.59a1 1 0 0 0-.7.3l-2.3 2.29L30 60l-1.41-1.41-2.3-2.3a1 1 0 0 0-.7-.29H18A12 12 0 0 1 6 44V22l2 3 8.67 13L18 40h-5a1 1 0 0 0-1 1v3a6 6 0 0 0 6 6h2a6 6 0 0 0 6-6V24h-2.27A2 2 0 0 1 22 25h-2a2 2 0 0 1-1.73-1H16a2 2 0 0 1-2-2v-4c0-1.1.9-2 2-2h2.27A2 2 0 0 1 20 15h2a2 2 0 0 1 1.73 1H26zm6.86-4.9a5 5 0 1 0-5.72 0l.86.6V16h4v-4.3l.86-.6zM24 22h12v-2h-3v-1h3v-1H24v2h5v1h-5v1zm-6 0v-4h-2v4h2zm26 0v-4h-2v4h2zm-16 2v20a8 8 0 0 1-8 8h-2a8 8 0 0 1-8-8v-3a3 3 0 0 1 3-3h1.26L8 28.6V44a10 10 0 0 0 10 10h7.59a3 3 0 0 1 2.12.88l2.29 2.3 2.3-2.3A3 3 0 0 1 34.4 54H42a10 10 0 0 0 10-10V28.6L45.74 38H47a3 3 0 0 1 3 3v3a8 8 0 0 1-8 8h-2a8 8 0 0 1-8-8V24h-2v12h-1V24h-1zm12-7h-2v6h2v-6zm-20 0v6h2v-6h-2zm10-7a3 3 0 1 1 0-6 3 3 0 0 1 0 6zm-1-3a1 1 0 1 0 2 0 1 1 0 0 0-2 0z"></path>
</svg>
