<svg xmlns="http://www.w3.org/2000/svg" width="60" height="60" viewBox="0 0 60 60" class="heroicon-ticket heroicon heroicon-sm">
    <path class="heroicon-ticket-outer heroicon-component-accent heroicon-component-fill" d="M58 13v.76a3 3 0 0 0-.24 4.24 2.99 2.99 0 0 0 .13 4.13 8 8 0 0 0 .11 13.8v1.83a3 3 0 0 0-.24 4.24 2.99 2.99 0 0 0 .24 4.24V47H2v-.76A3 3 0 0 0 2.24 42 2.99 2.99 0 0 0 2 37.76v-1.83a8 8 0 0 0 .1-13.8A3 3 0 0 0 2.25 18 2.99 2.99 0 0 0 2 13.76V13h56zm-8 3H10v28h40V16z"></path>
    <polygon class="heroicon-ticket-inner heroicon-component-fill" points="50 16 10 16 10 44 50 44"></polygon>
    <polygon class="heroicon-ticket-star heroicon-component-accent heroicon-component-fill" points="25.298 37.472 26.413 36.886 30 35 33.587 36.886 34.702 37.472 34.489 36.23 33.804 32.236 36.706 29.407 37.608 28.528 36.362 28.347 32.351 27.764 30.558 24.13 30 23 29.442 24.13 27.649 27.764 23.638 28.347 22.392 28.528 23.294 29.407 26.196 32.236 25.511 36.23"></polygon>
    <path class="heroicon-outline" fill-rule="nonzero" d="M60 13v2a1 1 0 1 0 0 2v2a1 1 0 1 0 0 2v2.34a6 6 0 0 0 0 11.32V39a1 1 0 1 0 0 2v2a1 1 0 1 0 0 2v2a2 2 0 0 1-2 2H2a2 2 0 0 1-2-2v-2a1 1 0 1 0 0-2v-2a1 1 0 1 0 0-2v-4.34a6 6 0 0 0 0-11.32V21a1 1 0 0 0 0-2v-2a1 1 0 0 0 0-2v-2c0-1.1.9-2 2-2h56a2 2 0 0 1 2 2zm-2 0H2v.76A3 3 0 0 1 2.24 18a2.99 2.99 0 0 1-.13 4.13A8 8 0 0 1 2 35.93v1.83A3 3 0 0 1 2.24 42 2.99 2.99 0 0 1 2 46.24V47h56v-.76a3 3 0 0 1-.24-4.24 2.99 2.99 0 0 1 .24-4.24v-1.83a8 8 0 0 1-.1-13.8 3 3 0 0 1-.14-4.13 2.99 2.99 0 0 1 .24-4.24V13zm-48 2h41v30H9V15h1zm40 1H10v28h40V16zm-38 1h37v26H11V17h1zm0 1v24h5V18h-5zm6 0v24h24V18H18zm30 24V18h-5v24h5zm-22.7-4.53l.21-1.24.69-4-2.9-2.82-.9-.88 1.24-.18 4-.59 1.8-3.63L30 23l.56 1.13 1.8 3.63 4 .59 1.25.18-.9.88-2.9 2.83.68 3.99.21 1.24-1.11-.58L30 35l-3.59 1.89-1.11.58zm5.17-3.36l2.9 1.53-.55-3.23-.09-.52.38-.37 2.35-2.3-3.25-.47-.52-.07-.24-.47L30 25.26l-1.45 2.95-.24.47-.52.07-3.25.48 2.35 2.29.38.37-.09.52-.55 3.23 2.9-1.53.47-.24.47.24z"></path>
</svg>
