<svg xmlns="http://www.w3.org/2000/svg" width="60" height="60" viewBox="0 0 60 60" class="heroicon-adjustments heroicon heroicon-sm">
    <rect class="heroicon-adjustments-cover-outer heroicon-component-accent heroicon-component-fill" width="58" height="58" x="1" y="1"></rect>
    <rect class="heroicon-adjustments-cover-inner heroicon-component-fill" width="54" height="54" x="3" y="3"></rect>
    <path class="heroicon-adjustments-sliders heroicon-component-accent heroicon-component-fill" d="M24 16a4 4 0 0 1 4-4h5a4 4 0 1 1 0 8h-5a4 4 0 0 1-4-4zm6 14a4 4 0 0 1 4-4h5a4 4 0 1 1 0 8h-5a4 4 0 0 1-4-4zM18 44a4 4 0 0 1 4-4h5a4 4 0 1 1 0 8h-5a4 4 0 0 1-4-4z"></path>
    <path class="heroicon-shadows" d="M42 28h5a2 2 0 0 1 1.73 3A2 2 0 0 0 47 30h-5v-2zM30 42h17a2 2 0 0 1 1.73 3A2 2 0 0 0 47 44H30v-2zm6-28h11a2 2 0 0 1 1.73 3A2 2 0 0 0 47 16H36v-2zm-5 14v2H13a2 2 0 0 0-1.73 1A2 2 0 0 1 13 28H31zM19 42v2h-6a2 2 0 0 0-1.73 1A2 2 0 0 1 13 42H19zm6-28v2H13a2 2 0 0 0-1.73 1A2 2 0 0 1 13 14H25z"></path>
    <path class="heroicon-outline" fill-rule="nonzero" d="M0 2C0 .9.9 0 2 0h56a2 2 0 0 1 2 2v56a2 2 0 0 1-2 2H2a2 2 0 0 1-2-2V2zm2 0v56h56V2H2zm1 1h54v54H3V3zm1 1v52h52V4H4zm29 8h14a4 4 0 0 1 0 8H13a4 4 0 0 1 0-8h20zm-8.47 6H13a2 2 0 1 1 0-4h11.54c.21-.38.49-.71.81-1H13a3 3 0 1 0 0 6h12.35c-.32-.29-.6-.63-.82-1zM13 15a1 1 0 1 0 0 2h11.13a4 4 0 0 1 0-2H13zm34 4a3 3 0 1 0 0-6H35.65c.32.29.6.63.82 1H47a2 2 0 1 1 0 4H36.46c-.21.38-.49.71-.81 1H47zm0-2a1 1 0 1 0 0-2H36.87a4 4 0 0 1 0 2H47zm-14-3h-5a2 2 0 1 0 0 4h5a2 2 0 1 0 0-4zm-3 1v2h-1v-2h1zm1 0h1v2h-1v-2zm8 11h8a4 4 0 0 1 0 8H13a4 4 0 0 1 0-8h26zm-5 2a2 2 0 1 0 0 4h5a2 2 0 1 0 0-4h-5zm-4 2a4 4 0 0 1 .13-1H13a1 1 0 1 0 0 2h17.13a4 4 0 0 1-.13-1zm.54-2h-.01c.22-.37.5-.71.82-1H13a3 3 0 1 0 0 6h18.35c-.32-.29-.6-.62-.81-1H13a2 2 0 1 1 0-4h17.54zM47 33a3 3 0 1 0 0-6h-5.35c.32.29.6.62.81 1H47a2 2 0 1 1 0 4h-4.54.01c-.22.37-.5.71-.82 1H47zm0-2a1 1 0 1 0 0-2h-4.13a4 4 0 0 1 0 2H47zm-12-2h1v2h-1v-2zm3 0v2h-1v-2h1zM27 40h20a4 4 0 0 1 0 8H13a4 4 0 0 1 0-8h14zm2.65 1c.32.29.6.62.81 1H47a2 2 0 1 1 0 4H30.46c-.21.38-.49.71-.81 1H47a3 3 0 1 0 0-6H29.65zm-10.3 0H13a3 3 0 1 0 0 6h6.35c-.32-.29-.6-.62-.81-1H13a2 2 0 1 1 0-4h5.54c.21-.38.49-.71.81-1zm-1.22 2H13a1 1 0 1 0 0 2h5.13a4 4 0 0 1 0-2zm12.74 0a4 4 0 0 1 0 2H47a1 1 0 1 0 0-2H30.87zM22 42a2 2 0 1 0 0 4h5a2 2 0 1 0 0-4h-5zm1 1h1v2h-1v-2zm3 0v2h-1v-2h1zM7 8a1 1 0 1 1 0-2 1 1 0 0 1 0 2zm47-1a1 1 0 1 1-2 0 1 1 0 0 1 2 0zM7 54a1 1 0 1 1 0-2 1 1 0 0 1 0 2zm47-1a1 1 0 1 1-2 0 1 1 0 0 1 2 0z"></path>
</svg>
