<svg xmlns="http://www.w3.org/2000/svg" width="60" height="60" viewBox="0 0 60 60" class="heroicon-hard-drive heroicon heroicon-sm">
    <rect class="heroicon-hard-drive-casing heroicon-component-fill" width="40" height="58" x="10" y="1" rx="3"></rect>
    <circle class="heroicon-hard-drive-disc-outer heroicon-component-fill" cx="30" cy="21" r="14"></circle>
    <path class="heroicon-hard-drive-disc-inner heroicon-component-accent heroicon-component-fill" d="M30 32a11 11 0 1 1 0-22 11 11 0 0 1 0 22zm0-8a3 3 0 1 0 0-6 3 3 0 0 0 0 6z"></path>
    <path class="heroicon-hard-drive-arm heroicon-component-accent heroicon-component-fill" d="M27 40h1.18l.57-1.03 2.19-3.94-2 7.49A2 2 0 1 1 27 40z"></path>
    <path class="heroicon-hard-drive-actuator heroicon-component-accent heroicon-component-fill" d="M17 40h2v2a8 8 0 0 0 8 8h2v2H17V40zm19.45 12l1.71-3H43v3h-6.55z"></path>
    <path class="heroicon-outline" fill-rule="nonzero" d="M13 0h34a4 4 0 0 1 4 4v52a4 4 0 0 1-4 4H13a4 4 0 0 1-4-4V4a4 4 0 0 1 4-4zm34 2H13a2 2 0 0 0-2 2v52c0 1.1.9 2 2 2h34a2 2 0 0 0 2-2V4a2 2 0 0 0-2-2zM15 38h1V26.4a15 15 0 1 1 27 2.1v18.5h2v7H33l.57-1H31v1H15V38zm14.57-4.63l.76-1.38L30 32a11 11 0 1 1 4.02-.76l-.61 2.3a13 13 0 1 0-4.18.44l.34-.6zM34.36 30a10 10 0 1 0-3.45.96l2.16-3.9 1.93.52-.64 2.42zM33 21a3 3 0 1 1-6 0 3 3 0 0 1 6 0zm-3 2a2 2 0 1 0 0-4 2 2 0 0 0 0 4zM17 40v12h12v-2h-2a8 8 0 0 1-8-8v-2h-2zm17.14 12l1.15-2H31v2h3.14zM40 47h2V30c-.6.8-1.26 1.52-2 2.18V47zm-23-9h2v-6.8a15.05 15.05 0 0 1-2-2.71V38zm19.45 14H43v-3h-4.84l-1.71 3zM13 31a1 1 0 1 1 0-2 1 1 0 0 1 0 2zm34 0a1 1 0 1 1 0-2 1 1 0 0 1 0 2zM14 56a1 1 0 1 1-2 0 1 1 0 0 1 2 0zm33 1a1 1 0 1 1 0-2 1 1 0 0 1 0 2zm1-53a1 1 0 1 1-2 0 1 1 0 0 1 2 0zM13 5a1 1 0 1 1 0-2 1 1 0 0 1 0 2zm15.18 35H27a2 2 0 1 0 1.93 2.52l2-7.5L28.19 40zm-3.6-1.19A4 4 0 0 1 27 38l1.17-2.11a14.94 14.94 0 0 1-8.17-3.7V38h1v4a6 6 0 0 0 6 6h4v1h4.86L37 47h2V33l.1-.08a14.93 14.93 0 0 1-6.28 2.82l-1.96 7.3a3.99 3.99 0 0 1-4.9 2.82 4 4 0 0 1-1.37-7.05z"></path>
</svg>
