<svg xmlns="http://www.w3.org/2000/svg" width="60" height="60" viewBox="0 0 60 60" class="heroicon-swatch heroicon heroicon-sm">
    <path class="heroicon-swatch-background heroicon-component-fill" d="M2 0h16a2 2 0 0 1 2 2v10.68l5.34-9.25a2 2 0 0 1 2.73-.73l13.86 8a2 2 0 0 1 .73 2.73l-5.34 9.25 9.25-5.34a2 2 0 0 1 2.73.73l8 13.86a2 2 0 0 1-.73 2.73L47.32 40H58a2 2 0 0 1 2 2v16a2 2 0 0 1-2 2H6a2 2 0 0 1-2-2v-2H2a2 2 0 0 1-2-2V2C0 .9.9 0 2 0zm8 52a2 2 0 1 0 0-4 2 2 0 0 0 0 4z"></path>
    <polygon class="heroicon-swatch-color-1-1 heroicon-component-accent heroicon-component-fill" points="2 10 2 5 18 5 18 10"></polygon>
    <polygon class="heroicon-swatch-color-1-2 heroicon-component-accent heroicon-component-fill" points="2 15 2 20 18 20 18 15"></polygon>
    <polygon class="heroicon-swatch-color-1-3 heroicon-component-accent heroicon-component-fill" points="2 30 2 25 18 25 18 30"></polygon>
    <polygon class="heroicon-swatch-color-1-4 heroicon-component-accent heroicon-component-fill" points="2 35 2 40 18 40 18 35"></polygon>
    <polygon class="heroicon-swatch-color-2-1 heroicon-component-accent heroicon-component-fill" points="25.572 7.029 23.072 11.359 36.928 19.359 39.428 15.029"></polygon>
    <polygon class="heroicon-swatch-color-2-2 heroicon-component-accent heroicon-component-fill" points="20 16.68 20 21.133 31.928 28.019 34.428 23.689 20.572 15.689"></polygon>
    <polygon class="heroicon-swatch-color-2-3 heroicon-component-accent heroicon-component-fill" points="20 26.906 20 32.679 26.928 36.679 29.428 32.349"></polygon>
    <polygon class="heroicon-swatch-color-2-4 heroicon-component-accent heroicon-component-fill" points="20 38.453 20 44.227 21.928 45.34 24.428 41.01"></polygon>
    <polygon class="heroicon-swatch-color-3-1 heroicon-component-accent heroicon-component-fill" points="44.971 20.572 52.971 34.428 48.641 36.928 40.641 23.072"></polygon>
    <polygon class="heroicon-swatch-color-3-2 heroicon-component-accent heroicon-component-fill" points="33.094 30 39.981 41.928 44.311 39.428 36.311 25.572 35.321 26.144"></polygon>
    <polygon class="heroicon-swatch-color-3-3 heroicon-component-accent heroicon-component-fill" points="27.321 40 31.321 46.928 35.651 44.428 30.207 35"></polygon>
    <polygon class="heroicon-swatch-color-3-4 heroicon-component-accent heroicon-component-fill" points="21.547 50 22.66 51.928 26.99 49.428 24.434 45"></polygon>
    <polygon class="heroicon-swatch-color-4-1 heroicon-component-accent heroicon-component-fill" points="55 42 50 42 50 58 55 58"></polygon>
    <polygon class="heroicon-swatch-color-4-2 heroicon-component-accent heroicon-component-fill" points="40 44.227 40 58 45 58 45 42 43.856 42"></polygon>
    <polygon class="heroicon-swatch-color-4-3 heroicon-component-accent heroicon-component-fill" points="30 58 35 58 35 47.113 30 50"></polygon>
    <polygon class="heroicon-swatch-color-4-4 heroicon-component-accent heroicon-component-fill" points="20 55.773 20 58 25 58 25 52.887"></polygon>
    <path class="heroicon-outline" fill-rule="nonzero" d="M2 0h16a2 2 0 0 1 2 2v10.68l5.34-9.25a2 2 0 0 1 2.73-.73l13.86 8a2 2 0 0 1 .73 2.73l-5.34 9.25 9.25-5.34a2 2 0 0 1 2.73.73l8 13.86a2 2 0 0 1-.73 2.73L47.32 40H58a2 2 0 0 1 2 2v16a2 2 0 0 1-2 2H6a2 2 0 0 1-2-2v-2H2a2 2 0 0 1-2-2V2C0 .9.9 0 2 0zm16 2H2v2h16V2zM2 10h16V5H2v5zm0 1v3h16v-3H2zm0 4v5h16v-5H2zm16 6H2v3h16v-3zM2 30h16v-5H2v5zm0 1v3h16v-3H2zm0 4v5h16v-5H2zm16 6H2v13h16V41zm2-24.32v4.45l11.93 6.89 2.5-4.33-13.86-8-.57.99zm0 5.6v1.16l3.13 1.81-.5.87L20 24.6v1.15l9.93 5.73 1.5-2.6L20 22.29zm0 4.63v5.77l6.93 4 2.5-4.33L20 26.9zm0 6.92v3.47l4.93 2.84 1.5-2.6-6.43-3.7zm0 4.62v5.78l1.93 1.11 2.5-4.33L20 38.45zm0 6.93v3.3l1.43-2.47-1.43-.83zm0 7.3v.78l1.8-1.03-.83-1.43-.97 1.68zM15.77 56H12.4l2.54 1.46.84-1.46zm-9.23 0H6v2h1.7l-1.16-2zM27.07 4.43l-1 1.73 13.86 8 1-1.73-13.86-8zm-1.5 2.6l-2.5 4.33 13.86 8 2.5-4.33-13.86-8zm10.86 13.2l-13.86-8-1.5 2.6 13.86 8 1.5-2.6zM9.07 56.38l1.47 2.54 1.46-.85-2.93-1.69zM16.93 58H19v-1.65l-1.68.97-.4.68zm4.62-8l1.11 1.93 4.33-2.5L24.43 45l-2.88 5zM25 44l2.85 4.93 2.6-1.5L26.73 41l-1.73 3zm2.31-4l4 6.93 4.33-2.5L30.21 35l-2.89 5zm3.46-6l5.74 9.93 2.6-1.5L32.51 31l-.58 1 1.8 3.13-.86.5L31.36 33l-.58 1zm2.31-4L40 41.93l4.32-2.5-8-13.86-.99.57L33.1 30zm14.48-10.93l-1.73 1 8 13.86 1.73-1-8-13.86zm-2.6 1.5l-4.33 2.5 8 13.86 4.33-2.5-8-13.86zm-5.2 3l-2.6 1.5 8 13.86 2.6-1.5-8-13.86zM20 55.77V58h5v-5.11l-5 2.88zm6-3.46V58h3v-7.42l-3 1.73zM30 58h5V47.11L30 50v8zm6-11.46V58h3V44.8l-1 .58V49h-1v-3.04l-1 .58zm4-2.31V58h5V42h-1.14L40 44.23zM58 42h-2v16h2V42zm-3 0h-5v16h5V42zm-9 0v16h3V42h-3zM9 12v1H3v-1h6zM3 22h6v1H3v-1zm0 10h6v1H3v-1zm0 10h6v1H3v-1zm9 8a2 2 0 1 1-4 0 2 2 0 0 1 4 0zm-2 1a1 1 0 1 0 0-2 1 1 0 0 0 0 2zm12.94-37.4l5.2 3-.5.86-5.2-3 .5-.87zM42.4 30.12l-.87.5-3-5.2.87-.5 3 5.2zM48 49h-1v-6h1v6z"></path>
</svg>
