<svg xmlns="http://www.w3.org/2000/svg" width="60" height="60" viewBox="0 0 60 60" class="heroicon-phone-alert heroicon heroicon-sm">
    <rect class="heroicon-phone-alert-edge heroicon-component-accent heroicon-component-fill" width="36" height="60" x="12" rx="4"></rect>
    <rect class="heroicon-phone-alert-screen heroicon-component-fill" width="28" height="46" x="16" y="7"></rect>
    <circle class="heroicon-phone-alert-circle heroicon-component-accent heroicon-component-fill" cx="30" cy="30" r="10"></circle>
    <path class="heroicon-phone-alert-symbol heroicon-component-fill" d="M27 24h6l-.14 1-.86 6h-4l-.86-6-.14-1zm5 10a2 2 0 1 1-4 0 2 2 0 0 1 4 0z"></path>
    <path class="heroicon-outline" fill-rule="nonzero" d="M16 0h28a4 4 0 0 1 4 4v52a4 4 0 0 1-4 4H16a4 4 0 0 1-4-4V4a4 4 0 0 1 4-4zm28 2H16a2 2 0 0 0-2 2v52c0 1.1.9 2 2 2h28a2 2 0 0 0 2-2V4a2 2 0 0 0-2-2zM27 55.5c0-.83.67-1.5 1.5-1.5h3a1.5 1.5 0 0 1 0 3h-3a1.5 1.5 0 0 1-1.5-1.5zm1 0c0 .28.22.5.5.5h3a.5.5 0 1 0 0-1h-3a.5.5 0 0 0-.5.5zM28 4h4v1h-4V4zM17 7h27v46H16V7h1zm26 1H17v44h26V8zM30 40a10 10 0 1 1 0-20 10 10 0 0 1 0 20zm8-10a8 8 0 1 0-16 0 8 8 0 0 0 16 0zm-11-6h6l-.14 1-.86 6h-4l-.86-6-.14-1zm1.87 6h2.26l.72-5h-3.7l.72 5zM32 34a2 2 0 1 1-4 0 2 2 0 0 1 4 0zm-2 1a1 1 0 1 0 0-2 1 1 0 0 0 0 2z"></path>
</svg>
