<svg xmlns="http://www.w3.org/2000/svg" width="60" height="60" viewBox="0 0 60 60" class="heroicon-database heroicon heroicon-sm">
    <path class="heroicon-database-exterior heroicon-component-fill" d="M6 10v8c0 1.42.71 2.78 2 4-1.29 1.22-2 2.58-2 4v8c0 1.42.71 2.78 2 4-1.29 1.22-2 2.58-2 4v8c0 5.52 10.75 10 24 10s24-4.48 24-10v-8c0-1.42-.71-2.78-2-4 1.29-1.22 2-2.58 2-4v-8c0-1.42-.71-2.78-2-4 1.29-1.22 2-2.58 2-4v-8C54 4.48 43.25 0 30 0S6 4.48 6 10z"></path>
    <path class="heroicon-database-interior heroicon-component-accent heroicon-component-fill-" fill-rule="nonzero" d="M30 28c9.04 0 16.9-2.08 21-5.16v2.66c0 .99-1.68 2.56-5.13 3.93C41.77 31.05 36.09 32 30 32c-6.1 0-11.77-.95-15.87-2.57C10.68 28.06 9 26.49 9 25.5v-2.66C13.1 25.92 20.96 28 30 28zm0 16c9.04 0 16.9-2.08 21-5.16v2.66c0 .99-1.68 2.56-5.13 3.93C41.77 47.05 36.09 48 30 48c-6.1 0-11.77-.95-15.87-2.57C10.68 44.06 9 42.49 9 41.5v-2.66C13.1 41.92 20.96 44 30 44z"></path>
    <path class="heroicon-shadows" fill-rule="nonzero" d="M51 40.67v-1.83C46.9 41.92 39.04 44 30 44s-16.9-2.08-21-5.16v1.83-.83C13.1 42.92 20.96 45 30 45s16.9-2.08 21-5.16v.83zm0-16v-1.83C46.9 25.92 39.04 28 30 28s-16.9-2.08-21-5.16v1.83-.83C13.1 26.92 20.96 29 30 29s16.9-2.08 21-5.16v.83z"></path>
    <path class="heroicon-outline" fill-rule="nonzero" d="M6 10C6 4.48 16.75 0 30 0s24 4.48 24 10v8c0 1.42-.71 2.78-2 4 1.29 1.22 2 2.58 2 4v8c0 1.42-.71 2.78-2 4 1.29 1.22 2 2.58 2 4v8c0 5.52-10.75 10-24 10S6 55.52 6 50v-8c0-1.42.71-2.78 2-4-1.29-1.22-2-2.58-2-4v-8c0-1.42.71-2.78 2-4-1.29-1.22-2-2.58-2-4v-8zm2 0c0 .8.43 1.7 1.48 2.67 1.07 1 2.6 1.88 4.6 2.68C18.16 16.97 23.72 18 30 18c6.29 0 11.85-1.03 15.91-2.65 2.01-.8 3.54-1.69 4.61-2.68C51.57 11.7 52 10.8 52 10c0-.68-.32-1.52-1.29-2.47a13.46 13.46 0 0 0-4.5-2.75 25.9 25.9 0 0 0-.59-.24C41.6 2.98 36.14 2 30 2c-6.14 0-11.59.98-15.62 2.54l-.58.24a13.46 13.46 0 0 0-4.51 2.75C8.32 8.48 8 9.32 8 10zm0 2.55V18c0 .68.32 1.52 1.29 2.47a13.46 13.46 0 0 0 4.5 2.75C17.95 24.96 23.57 26.01 30 26c6.44 0 12.06-1.04 16.2-2.78a13.46 13.46 0 0 0 4.51-2.75C51.68 19.52 52 18.68 52 18v-5.45C49.13 16.16 40.4 19 30 19s-19.13-2.84-22-6.45zm42.06 10.94C45.77 26.21 38.4 28 30 28c-8.35 0-15.7-1.78-20-4.47v1.97c0 .01.09.39.9 1.04.79.64 1.94 1.3 3.6 1.96C18.5 30.09 24 31 30 31s11.5-.91 15.5-2.5a13.66 13.66 0 0 0 3.6-1.96c.81-.65.9-1.03.9-1.04v-1.97l.06-.04zM10 41.5c0 .01.09.39.9 1.04.79.64 1.94 1.3 3.6 1.96C18.5 46.09 24 47 30 47s11.5-.91 15.5-2.5a13.66 13.66 0 0 0 3.6-1.96c.81-.65.9-1.03.9-1.04v-1.97C45.7 42.23 38.35 44 30 44s-15.7-1.78-20-4.47v1.97zM8 26c0 .8.43 1.7 1.48 2.67 1.07 1 2.6 1.88 4.6 2.68C18.16 32.97 23.72 34 30 34c6.29 0 11.85-1.03 15.91-2.65 2.01-.8 3.54-1.69 4.61-2.68C51.57 27.7 52 26.8 52 26c0-.61-.26-1.34-1-2.16v1.66c0 .99-1.68 2.56-5.13 3.93C41.77 31.05 36.09 32 30 32c-6.1 0-11.77-.95-15.87-2.57C10.68 28.06 9 26.49 9 25.5v-1.66c-.74.82-1 1.55-1 2.16zm0 2.55V34c0 .68.32 1.52 1.29 2.47a13.46 13.46 0 0 0 4.5 2.75C17.95 40.96 23.57 42.01 30 42c6.44 0 12.06-1.04 16.2-2.78a13.46 13.46 0 0 0 4.51-2.75C51.68 35.52 52 34.68 52 34v-5.45C49.13 32.16 40.4 35 30 35s-19.13-2.84-22-6.45zM52 42c0-.61-.26-1.34-1-2.16v1.66c0 .99-1.68 2.56-5.13 3.93C41.77 47.05 36.09 48 30 48c-6.1 0-11.77-.95-15.87-2.57C10.68 44.06 9 42.49 9 41.5v-1.66c-.74.82-1 1.55-1 2.16 0 .8.43 1.7 1.48 2.67 1.07 1 2.6 1.88 4.6 2.68C18.16 48.97 23.72 50 30 50c6.29 0 11.85-1.03 15.91-2.65 2.01-.8 3.54-1.69 4.61-2.68C51.57 43.7 52 42.8 52 42zm-22 9c-10.4 0-19.13-2.84-22-6.45V50c0 .68.32 1.52 1.29 2.47a13.46 13.46 0 0 0 4.5 2.75C17.95 56.96 23.57 58.01 30 58c6.44 0 12.06-1.04 16.2-2.78a13.46 13.46 0 0 0 4.51-2.75C51.68 51.52 52 50.68 52 50v-5.45C49.13 48.16 40.4 51 30 51zM10 10h1c0 .05 0 .05.05 0v.02a3.36 3.36 0 0 0 .76.72c.8.61 1.95 1.25 3.39 1.82C19.08 14.1 24.4 15 30 15c5.6 0 10.92-.9 14.8-2.44 1.44-.57 2.6-1.2 3.39-1.82a4.04 4.04 0 0 0 .75-.72l.01-.02c.04.05.05.05.05 0h1c0 .73-1.6 2.2-4.83 3.49C41.22 15.07 35.8 16 30 16c-5.79 0-11.22-.93-15.17-2.51C11.59 12.19 10 10.73 10 10z"></path>
</svg>
