<svg xmlns="http://www.w3.org/2000/svg" width="60" height="60" viewBox="0 0 60 60" class="heroicon-male2 heroicon heroicon-sm">
    <path class="heroicon-male2-top heroicon-component-accent heroicon-component-fill" d="M30 49l-4.17 4.17C24.27 54.73 23 54.21 23 52.01v-8.97l-15.42 8.3A3.57 3.57 0 0 0 6 54v4h5v-4h1v4h36v-4h1v4h5v-4c0-.92-.78-2.22-1.58-2.66L37 43.04v8.97c0 2.2-1.27 2.72-2.83 1.16L30 49z"></path>
    <path class="heroicon-male2-collar heroicon-component-accent heroicon-component-fill" d="M24 43l4.59 4.59.7.7-4.17 4.18c-.93.93-1.12.85-1.12-.46V43zm6.7 5.3l.71-.71L36 43v9c0 1.32-.19 1.4-1.12.47l-4.17-4.18z"></path>
    <path class="heroicon-male2-face heroicon-component-fill" d="M36 37.4A12 12 0 0 0 42 27v-1h2a3 3 0 1 0 0-6h-2v-8H18v8h-2a3 3 0 1 0 0 6h2v1a12 12 0 0 0 6 10.4V42l6 6 6-6v-4.6z"></path>
    <path class="heroicon-male2-hair heroicon-component-fill" d="M17 10a4 4 0 0 1 0-8h21c1.23 0 2.36.55 3.11 1.5l.4.48.6.18A4 4 0 0 1 45 8v11.13a4.01 4.01 0 0 0-1-.13v-9H17zm-1 9c-.35 0-.68.04-1 .13v-7.47c.32.11.66.2 1 .26V19z"></path>
    <path class="heroicon-male2-mouth heroicon-component-fill" d="M26 33a5 5 0 0 0 8 0h-8z"></path>
    <path class="heroicon-male2-teeth heroicon-component-fill" d="M25.42 32a4.96 4.96 0 0 1-.32-1h9.8c-.07.35-.18.68-.32 1h-9.16z"></path>
    <path class="heroicon-shadows" d="M23 39.13a13.94 13.94 0 0 0 14 0v1.64l2.65 1.43A17.92 17.92 0 0 1 30 45c-3.55 0-6.86-1.03-9.65-2.8L23 40.77v-1.64zM15 11h28v2H15v-2z"></path>
    <path class="heroicon-outline" fill-rule="nonzero" d="M13 20.35v-9.88A5.99 5.99 0 0 1 17 0h21c1.89 0 3.57.87 4.67 2.24A6 6 0 0 1 47 8v12.35A4 4 0 0 1 44 27a14 14 0 0 1-7 12.13V40.77l16.36 8.81A5.52 5.52 0 0 1 56 54v6H4v-6a5.52 5.52 0 0 1 2.64-4.42L23 40.77V39.13A14 14 0 0 1 16 27a4 4 0 0 1-3-6.65zM17 10h27v9c.35 0 .68.04 1 .13V8a4 4 0 0 0-2.88-3.84l-.61-.18-.4-.49A3.98 3.98 0 0 0 38.01 2H17a4 4 0 0 0 0 8zm27 11v4a2 2 0 1 0 0-4zm-2 6V12H18v15a12 12 0 0 0 24 0zm-26-2v-4a2 2 0 1 0 0 4zm0-6v-7.08a5.94 5.94 0 0 1-1-.26v7.47c.32-.09.65-.13 1-.13zm9 22.17l5 5 5-5v-1.09a13.97 13.97 0 0 1-10 0v1.1zM24 43v9c0 1.32.19 1.4 1.12.47l4.17-4.18-.7-.7L24 43zm6 6l-4.17 4.17C24.27 54.73 23 54.21 23 52.01v-8.97l-15.42 8.3A3.57 3.57 0 0 0 6 54v4h5v-4h1v4h36v-4h1v4h5v-4c0-.92-.78-2.22-1.58-2.66L37 43.04v8.97c0 2.2-1.27 2.72-2.83 1.16L30 49zm.7-.7l4.18 4.17c.93.93 1.12.85 1.12-.46V43l-4.59 4.59-.7.7zM32 3v1H20V3h12zm-2 24c-.82 0-1.58-.25-2.22-.67l.56-.83a2.99 2.99 0 0 0 3.32 0l.56.83c-.64.42-1.4.67-2.22.67zm-5-5a1 1 0 1 1 0-2 1 1 0 0 1 0 2zm0-6a5 5 0 0 1 1.58.26l-.31.94a4 4 0 0 0-4.85 2.01l-.9-.45A5 5 0 0 1 25 16zm14.47 2.76l-.9.45a4 4 0 0 0-4.84-2l-.31-.95a5 5 0 0 1 6.05 2.5zM36 21a1 1 0 1 1-2 0 1 1 0 0 1 2 0zM24.08 31a6.05 6.05 0 0 1-.08-1h12a6 6 0 0 1-11.92 1zM26 33a5 5 0 0 0 8 0h-8zm-.58-1h9.16c.14-.32.25-.65.32-1h-9.8c.07.35.18.68.32 1zM30 55a1 1 0 1 1 0-2 1 1 0 0 1 0 2z"></path>
</svg>
