<svg xmlns="http://www.w3.org/2000/svg" width="60" height="60" viewBox="0 0 60 60" class="heroicon-monitor heroicon heroicon-sm">
    <path class="heroicon-monitor-edge heroicon-component-accent heroicon-component-fill" d="M1 9a2 2 0 0 1 2-2h54a2 2 0 0 1 2 2v42a2 2 0 0 1-2 2H3a2 2 0 0 1-2-2V9zm4 2v38h50V11H5z"></path>
    <rect class="heroicon-monitor-screen heroicon-component-fill" width="50" height="38" x="5" y="11"></rect>
    <rect class="heroicon-shadows" width="50" height="4" x="5" y="11"></rect>
    <path class="heroicon-outline" fill-rule="nonzero" d="M0 9a3 3 0 0 1 3-3h54a3 3 0 0 1 3 3v42a3 3 0 0 1-3 3H3a3 3 0 0 1-3-3V9zm3-1a1 1 0 0 0-1 1v42a1 1 0 0 0 1 1h54a1 1 0 0 0 1-1V9a1 1 0 0 0-1-1H3zm2 3h50v38H5V11zm12 1v1h8v-1h-8zm9 1h8v-1h-8v1zm8 1h-8v3.84l.95 2.84 3 9 .05.16.05-.16.23-.68h2.31L34 27.59V14zm0 16.41l-.3.3-.29.29h-1.69l-.77 2.32-.95 2.84-.95-2.84-1-3L26 24.16V46h8V30.41zm-9-9.57V14h-8v14.59l.41.41h2l.3.3L21 30.58l1.13-1.13L25 20.84zM17 31v15h8V27.16l-1.05 3.16-.08.22-.16.17-2 2-.71.7-.7-.7L18.58 31H17zm-1-3.41V14H8v15h4.59l1.7-1.7.71-.71.7.7.3.3zM8 31v15h8V30.41l-1-1-1.3 1.3-.29.29H8zm-1-2V13h9v-1H6v17h1zm-1 2v17h10v-1H7V31H6zm29-1.59V46h8V31.41l-.41-.41h-2l-.3-.3L37 27.42l-2 2zm8-.41V14h-8v12.59l1.3-1.3.7-.7.7.7L41.42 29H43zm1 3.41V46h8V31h-4.59l-1.7 1.7-.71.71-.7-.7-.3-.3zM52 29V14h-8v15.59l1 1 1.3-1.3.29-.29H52zm1 2v16h-9v1h10V31h-1zm1-2V12H44v1h9v16h1zM35 47v1h8v-1h-8zm8-34v-1h-8v1h8zm-9 35v-1h-8v1h8zm-9-1h-8v1h8v-1z"></path>
</svg>
