<svg xmlns="http://www.w3.org/2000/svg" width="60" height="60" viewBox="0 0 60 60" class="heroicon-thumbs-up heroicon heroicon-sm">
    <path class="heroicon-thumbs-up-hand heroicon-component-fill" d="M34 24c-.55 0-.8-.4-.56-.89L34 22l.1-.21c.5-.99.9-2.68.9-3.8v-4.98A6 6 0 0 0 29 7h-1a2 2 0 0 0-2 2v7c0 .55-.32 1.32-.7 1.7l-7.47 7.47A11.1 11.1 0 0 0 15.28 30H9v16h6.68A12 12 0 0 0 27 54h24.5a4.5 4.5 0 0 0 3.54-7.27 4.5 4.5 0 0 0 2-7 4.5 4.5 0 0 0 0-8.46A4.5 4.5 0 0 0 53.5 24H34z"></path>
    <rect class="heroicon-thumbs-up-sleeve heroicon-component-accent heroicon-component-fill" width="7" height="22" x="1" y="28"></rect>
    <path class="heroicon-shadows" d="M41.63 54h1.12-15.74A12 12 0 0 1 15 42v-3a12 12 0 0 0 12 12h9.26a4.48 4.48 0 0 1 0-3 4.5 4.5 0 0 0 4.24 3h11a4.5 4.5 0 0 0 4.24-3 4.48 4.48 0 0 1-4.24 6h-9.87zm-5.37-27c.61 1.74 2.28 3 4.25 3h12.98a4.5 4.5 0 0 0 4.25-3 4.5 4.5 0 0 1-4.25 6H40.51a4.5 4.5 0 0 1-4.25-6zm0 7a4.5 4.5 0 0 0 4.24 3h15a4.5 4.5 0 0 0 4.24-3 4.48 4.48 0 0 1-4.24 6h-15a4.5 4.5 0 0 1-4.24-6zm0 7c.61 1.74 2.28 3 4.25 3h12.98a4.5 4.5 0 0 0 4.25-3 4.5 4.5 0 0 1-4.25 6H40.51a4.5 4.5 0 0 1-4.25-6zM1 46h7v4H1v-4z"></path>
    <path class="heroicon-outline" fill-rule="nonzero" d="M34 24h19.5a4.5 4.5 0 0 1 3.54 7.27 4.5 4.5 0 0 1 0 8.46 4.48 4.48 0 0 1-2 7A4.5 4.5 0 0 1 51.5 54H27a12 12 0 0 1-11.32-8H9v5H0V27h9v3h6.28a11.1 11.1 0 0 1 2.55-4.83l7.47-7.47c.38-.38.7-1.15.7-1.7V9a2 2 0 0 1 2-2h1a6 6 0 0 1 6 6v5c0 1.1-.4 2.8-.9 3.79L34 22l-.56 1.11c-.24.5 0 .89.56.89zm-19 8H9v12h6.16c-.1-.65-.16-1.31-.16-2h2a10 10 0 0 0 10 10h9.76a4.48 4.48 0 0 1 .91-6 4.5 4.5 0 0 1 0-7 4.5 4.5 0 0 1 0-7 4.5 4.5 0 0 1-.91-6H28v-1h3.86a2.59 2.59 0 0 1-.2-2.78l.66-1.32c.35-.72.68-2.1.68-2.9v-5a4 4 0 0 0-4-4h-1v7c0 1.08-.53 2.36-1.3 3.12l-7.45 7.46A9.15 9.15 0 0 0 17 32.01V34h-2v-2zm23 3.5a2.5 2.5 0 0 0 2.5 2.5h15a2.5 2.5 0 0 0 0-5h-15a2.5 2.5 0 0 0-2.5 2.5zm18-7a2.5 2.5 0 0 0-2.5-2.5h-13a2.5 2.5 0 0 0 0 5h13a2.5 2.5 0 0 0 2.5-2.5zM51.5 52a2.5 2.5 0 0 0 0-5h-11a2.5 2.5 0 0 0 0 5h11zm4.5-9.5a2.5 2.5 0 0 0-2.5-2.5h-13a2.5 2.5 0 0 0 0 5h13a2.5 2.5 0 0 0 2.5-2.5zM7 49V29H2v20h5zm19-13v-1a7 7 0 0 0 7-7h1a8 8 0 0 1-8 8zM6 41H5V31h1v10z"></path>
</svg>
