<svg xmlns="http://www.w3.org/2000/svg" width="60" height="60" viewBox="0 0 60 60" class="heroicon-stethoscope heroicon heroicon-sm">
    <path class="heroicon-stethoscope-eartips heroicon-component-accent heroicon-component-fill" d="M10 0a3 3 0 0 1 0 6H6v13H0V4a4 4 0 0 1 4-4h6zm10 0h6a4 4 0 0 1 4 4v15h-6V6h-4a3 3 0 0 1 0-6z"></path>
    <circle class="heroicon-stethoscope-chestpiece heroicon-component-accent heroicon-component-fill" cx="55" cy="41" r="5"></circle>
    <path class="heroicon-stethoscope-tube heroicon-component-fill" d="M58 37V13a13 13 0 1 0-26 0v34a7 7 0 0 1-14 0v-8.3A15 15 0 0 0 30 24v-5h-6v5a9 9 0 1 1-18 0v-5H0v5a15 15 0 0 0 12 14.7V47a13 13 0 1 0 26 0V13a7 7 0 0 1 14 0v24h6z"></path>
    <path class="heroicon-outline" fill-rule="nonzero" d="M58 37a5 5 0 1 1-6 0V13a7 7 0 0 0-14 0v34a13 13 0 1 1-26 0v-8.3A15 15 0 0 1 0 24V4a4 4 0 0 1 4-4h6a3 3 0 1 1 0 6H6v18a9 9 0 1 0 18 0V6h-4a3 3 0 1 1 0-6h6a4 4 0 0 1 4 4v20a15 15 0 0 1-12 14.7V47a7 7 0 0 0 14 0V13a13 13 0 1 1 26 0v24zm-42 .07l1.6-.33A13 13 0 0 0 28 24v-5h-2v5a11 11 0 0 1-22 0v-5H2v5a13 13 0 0 0 10.4 12.74l1.6.33V47a11 11 0 1 0 22 0V13a9 9 0 0 1 18 0v23.1a5.02 5.02 0 0 1 2 0V13a11 11 0 1 0-22 0v34a9 9 0 0 1-18 0v-9.93zM26 18h2V4a2 2 0 0 0-2-2h-3v2h3v14zM4 6V4h3V2H4a2 2 0 0 0-2 2v14h2V6zm17-4h-1a1 1 0 1 0 0 2h1V2zM10 4a1 1 0 1 0 0-2H9v2h1zm45 40a3 3 0 1 0 0-6 3 3 0 0 0 0 6zm0-2a1 1 0 1 1 0-2 1 1 0 0 1 0 2z"></path>
</svg>
