<svg xmlns="http://www.w3.org/2000/svg" width="60" height="60" viewBox="0 0 60 60" class="heroicon-devices-sync heroicon heroicon-sm">
    <path class="heroicon-devices-sync-tablet-edge heroicon-component-accent heroicon-component-fill" d="M34 36.04a12 12 0 1 0 2.91 23.8c.35.1.72.16 1.1.16H41 4A4 4 0 0 1 0 56V4a4 4 0 0 1 4.01-4h39.98A4 4 0 0 1 48 4v10H38a4 4 0 0 0-4 4v18.04z"></path>
    <path class="heroicon-devices-sync-tablet-screen heroicon-component-fill" d="M34 36.04V18a4 4 0 0 1 4-4h6V7H4v46h20.09A12 12 0 0 1 34 36.04z"></path>
    <path class="heroicon-devices-sync-phone-edge heroicon-component-accent heroicon-component-fill" d="M36.91 59.85c.35.1.72.15 1.1.15h17.98A4 4 0 0 0 60 56V18a4 4 0 0 0-4-4H38a4 4 0 0 0-4 4v18.04a12 12 0 0 1 2.91 23.8z"></path>
    <path class="heroicon-devices-sync-phone-screen heroicon-component-fill" d="M45.91 53H57V21H37v15.17A12 12 0 0 1 45.91 53z"></path>
    <circle class="heroicon-devices-sync-circle heroicon-component-accent heroicon-component-fill" cx="35" cy="48" r="12"></circle>
    <path class="heroicon-devices-sync-symbol heroicon-component-fill" d="M36 57.41L31.59 53 36 48.59v2.24a3 3 0 0 0 1.92-3.5l-.12-.54 2.99-2.99.6 1.32A7 7 0 0 1 36 54.93l-.01 2.48H36zM38.41 43L34 47.41v-2.24a3 3 0 0 0-1.92 3.5l.12.54-2.99 2.99-.6-1.32A7 7 0 0 1 34 41.07l.01-2.48 4.4 4.41z"></path>
    <path class="heroicon-shadows" d="M34 36.04V18a4 4 0 0 1 4-4h-3a4 4 0 0 0-4 4v18.68c.95-.33 1.96-.55 3-.64z"></path>
    <path class="heroicon-outline" fill-rule="nonzero" d="M4 60a4 4 0 0 1-4-4V4a4 4 0 0 1 4-4h40a4 4 0 0 1 4 4v10h8a4 4 0 0 1 4 4v38a4 4 0 0 1-4 4H4zM44 2H4a2 2 0 0 0-2 2v52c0 1.1.9 2 2 2h24.36c-.64-.43-1.24-.91-1.78-1.45a1.5 1.5 0 0 1-1.08.45h-3a1.5 1.5 0 0 1 0-3h2.1c-.18-.32-.35-.66-.51-1H4V7h40v7h2V4a2 2 0 0 0-2-2zm12 56a2 2 0 0 0 2-2V18a2 2 0 0 0-2-2H38a2 2 0 0 0-2 2v18.04a12 12 0 0 1 1 .13V21h20v32H45.91c-.16.34-.33.68-.52 1h3.11a1.5 1.5 0 0 1 0 3h-3a1.5 1.5 0 0 1-1.45-1.12c-.7.81-1.52 1.52-2.41 2.12H56zm0-6V22H38v14.38A12 12 0 0 1 46.32 52H56zM34 18a4 4 0 0 1 4-4h5V8H5v44h18.68A12 12 0 0 1 34 36.04V18zm-8.75 37H22.5a.5.5 0 1 0 0 1h3a.5.5 0 0 0 .4-.19c-.23-.26-.45-.53-.65-.81zm23.75.5a.5.5 0 0 0-.5-.5h-3a.5.5 0 1 0 0 1h3a.5.5 0 0 0 .5-.5zM35 58a10 10 0 1 0 0-20 10 10 0 0 0 0 20zm-3.41-5L36 48.59v2.24a3 3 0 0 0 1.92-3.5l-.12-.54 2.99-2.99.6 1.32A7 7 0 0 1 36 54.93l-.01 2.48-4.4-4.41zM34 38.59L38.41 43 34 47.41v-2.24a3 3 0 0 0-1.92 3.5l.12.54-2.99 2.99-.6-1.32A7 7 0 0 1 34 41.07l.01-2.48H34zM31 48a4 4 0 0 1 4-4v1l2-2-2-2v1a6 6 0 0 0-5.47 8.47l1.57-1.57c-.07-.29-.1-.6-.1-.9zm8 0a4 4 0 0 1-4 4v-1l-2 2 2 2v-1a6 6 0 0 0 5.47-8.47L38.9 47.1c.07.29.1.6.1.9zM25.07 26.29l.86.5-4 6.92-.86-.5 4-6.92zm-1-3l.86.5-4 6.92-.86-.5 4-6.92zm25 10l.86.5-4 6.92-.86-.5 4-6.92zm-1-3l.86.5-4 6.92-.86-.5 4-6.92zM45 18h4v1h-4v-1zM26 4v1h-4V4h4z"></path>
</svg>
