<svg xmlns="http://www.w3.org/2000/svg" width="60" height="60" viewBox="0 0 60 60" class="heroicon-compass heroicon heroicon-sm">
    <path class="heroicon-compass-edge heroicon-component-accent heroicon-component-fill" d="M30 59a29 29 0 1 1 0-58 29 29 0 0 1 0 58zm0-5a24 24 0 1 0 0-48 24 24 0 0 0 0 48z"></path>
    <circle class="heroicon-compass-background heroicon-component-fill" cx="30" cy="30" r="25"></circle>
    <path class="heroicon-compass-direction heroicon-component-fill" d="M30 14.12l2.37 9.49-5.2 3.56-3.56 5.2L14.12 30l9.5-2.37 1.25-.32-.61-1.13-2.27-4.19 4.19 2.27 1.13.61.32-1.25 2.37-9.5zm2.83 18.7l3.56-5.2L45.88 30l-9.5 2.37-1.25.32.61 1.13 2.27 4.19-4.19-2.27-1.13-.61-.32 1.25-2.37 9.5-2.37-9.49 5.2-3.56z"></path>
    <polygon class="heroicon-compass-needle heroicon-component-accent heroicon-component-fill" points="28 28 41 19 32 32 19 41"></polygon>
    <path class="heroicon-shadows" d="M55 29.5A25 25 0 0 0 5 29a25 25 0 1 1 50 .5zm3 0v.5a28 28 0 1 1-56-.5 28 28 0 0 0 56 0z"></path>
    <path class="heroicon-outline" fill-rule="nonzero" d="M60 30a30 30 0 1 1-60 0 30 30 0 0 1 60 0zM30 58a28 28 0 1 0 0-56 28 28 0 0 0 0 56zm25-28a25 25 0 1 1-50 0 25 25 0 0 1 50 0zM30 54a24 24 0 1 0 0-48 24 24 0 0 0 0 48zm3.1-31.62l.15.63 7.32-5.02 4.57-3.13-3.13 4.57-5.02 7.32.63.16 10.32 2.57L50 30l-2.06.52-10.32 2.57-1 .25.5.91 2.5 4.63.87 1.6-1.61-.86-4.63-2.5-.9-.5-.26 1-2.57 10.32L30 50l-.52-2.06-2.57-10.32-.16-.63-7.32 5.02-4.57 3.13 3.13-4.57 5.02-7.32-.63-.16-10.32-2.57L10 30l2.06-.52 10.32-2.57 1-.25-.5-.91-2.5-4.63-.87-1.6 1.61.87 4.63 2.5.9.49.26-1 2.57-10.32L30 10l.52 2.06 2.57 10.32zM30 14.12l-2.37 9.5-.32 1.25-1.13-.61-4.19-2.27 2.27 4.19.61 1.13-1.25.32-9.5 2.37 9.49 2.37 3.56-5.2 5.2-3.56L30 14.12zm2.83 18.7l-5.2 3.57L30 45.88l2.37-9.5.32-1.25 1.13.61 4.19 2.27-2.27-4.19-.61-1.13 1.25-.32 9.5-2.37-9.49-2.37-3.56 5.2zm-4.22-4.21l-6.05 8.83 8.83-6.05 6.05-8.83-8.83 6.05zM31 30a1 1 0 1 1-2 0 1 1 0 0 1 2 0z"></path>
</svg>
