<svg xmlns="http://www.w3.org/2000/svg" width="60" height="60" viewBox="0 0 60 60" class="heroicon-document-x heroicon heroicon-sm">
    <path class="heroicon-document-x-page heroicon-component-fill" d="M47 36V10a9 9 0 0 0-9-9H1v58h41.2A12 12 0 0 1 47 36z"></path>
    <path class="heroicon-document-x-fold heroicon-component-accent heroicon-component-fill" d="M38 10h5c1.07 0 2.1.24 3 .67V10a8 8 0 0 0-8-8v8z"></path>
    <circle class="heroicon-document-x-circle heroicon-component-accent heroicon-component-fill" cx="47" cy="48" r="12"></circle>
    <polygon class="heroicon-document-x-symbol heroicon-component-fill" points="47 45.172 43.464 41.636 40.636 44.464 44.172 48 40.636 51.536 43.464 54.364 47 50.828 50.536 54.364 53.364 51.536 49.828 48 53.364 44.464 50.536 41.636"></polygon>
    <path class="heroicon-shadows" d="M48 11v8-.5c0-2.48-2-4.5-4.5-4.5H36v-3h12z"></path>
    <path class="heroicon-outline" fill-rule="nonzero" d="M46 60H0V0h38a10 10 0 0 1 10 10v26.04a12 12 0 0 1 0 23.92V60h-2zm0-47c-.84-.63-1.87-1-3-1H8v-1h28v-1H8V9h28V2H2v56h38.36a11.99 11.99 0 0 1-4.98-13H8v-1h27.68c.12-.34.26-.67.4-1H8v-1h28.6c.2-.34.42-.68.65-1H8v-1h30.06c.31-.35.65-.69 1-1H8v-1h32v.25a11.93 11.93 0 0 1 6-2.2V13zM38 2v8h5c1.07 0 2.1.24 3 .67V10a8 8 0 0 0-8-8zm9 56a10 10 0 1 0 0-20 10 10 0 0 0 0 20zM28 17v1H8v-1h20zm0 29v1H8v-1h20zm12-11v1H8v-1h32zm-2-2v1H8v-1h30zm0-2v1H8v-1h30zm2-2v1H8v-1h32zm-7-3v1H8v-1h25zm6-2v1H8v-1h31zm1-2v1H8v-1h32zm-2-2v1H8v-1h30zm0-5v1H8v-1h30zm2-2v1H8v-1h32zm9.83 35l3.53 3.54-2.82 2.82L47 50.83l-3.54 3.53-2.82-2.82L44.17 48l-3.53-3.54 2.82-2.82L47 45.17l3.54-3.53 2.82 2.82L49.83 48zm2.12-3.54l-1.41-1.41L47 46.59l-3.54-3.54-1.41 1.41L45.59 48l-3.54 3.54 1.41 1.41L47 49.41l3.54 3.54 1.41-1.41L48.41 48l3.54-3.54z"></path>
</svg>
