<svg xmlns="http://www.w3.org/2000/svg" width="60" height="60" viewBox="0 0 60 60" class="heroicon-credit-card heroicon heroicon-sm">
    <rect class="heroicon-credit-card-background heroicon-component-fill" width="58" height="38" x="1" y="11" rx="3"></rect>
    <rect class="heroicon-credit-card-stripe heroicon-component-accent heroicon-component-fill" width="60" height="8" y="16"></rect>
    <rect class="heroicon-credit-card-code heroicon-component-accent heroicon-component-fill" width="7" height="4" x="34" y="30"></rect>
    <rect class="heroicon-credit-card-mark heroicon-component-accent heroicon-component-fill" width="9" height="6" x="4" y="38" rx="1"></rect>
    <rect class="heroicon-credit-card-signature heroicon-component-fill" width="30" height="6" x="4" y="29"></rect>
    <path class="heroicon-outline" fill-rule="nonzero" d="M60 16v30a4 4 0 0 1-4 4H4a4 4 0 0 1-4-4V14a4 4 0 0 1 4-4h52a4 4 0 0 1 4 4v2zm-4-4H4a2 2 0 0 0-2 2v2h56v-2a2 2 0 0 0-2-2zm2 10v-4H2v4h56zM2 24v22c0 1.1.9 2 2 2h52a2 2 0 0 0 2-2V24H2zm32 11H4v-6h30v1h7v4h-7v1zm-1-5H5v4h28v-4zm1 3h6v-2h-6v2zM4 39a1 1 0 0 1 1-1h7a1 1 0 0 1 1 1v4a1 1 0 0 1-1 1H5a1 1 0 0 1-1-1v-4zm1 0v4h7v-4H5zM4 27h14v1H4v-1zm13 11h27v1H16v-1h1zm-1 2h36v1H16v-1zm1 4h25v1H16v-1h1z"></path>
</svg>
