<svg xmlns="http://www.w3.org/2000/svg" width="60" height="60" viewBox="0 0 60 60" class="heroicon-surveillance heroicon heroicon-sm">
    <path class="heroicon-surveillance-camera heroicon-component-accent heroicon-component-fill" d="M41 16v7h10v-2h4V9h-2l-4.17 4.17A11.1 11.1 0 0 1 42 16h-1z"></path>
    <path class="heroicon-surveillance-cover heroicon-component-fill" d="M0 2h60L48.83 13.17A11.1 11.1 0 0 1 42 16H0V2z"></path>
    <polygon class="heroicon-surveillance-cover-accent heroicon-component-accent heroicon-component-fill" points="1 3 58 3 55 6 1 6"></polygon>
    <polygon class="heroicon-surveillance-housing heroicon-component-fill" points="41 15 3 15 3 25 9 25 9 27 41 27"></polygon>
    <path class="heroicon-surveillance-housing-accent heroicon-component-accent heroicon-component-fill" d="M14 15h18v7H14v-7zM3 15h6v4H3v-4z"></path>
    <polygon class="heroicon-surveillance-mount heroicon-component-fill" points="9 46 21 46 21 33 23 33 25 31 25 27 13 27 13 31 15 33 17 33 17 42 5 42 5 39 1 39 1 57 5 57 5 55 9 51"></polygon>
    <circle class="heroicon-surveillance-hinge heroicon-component-accent heroicon-component-fill" cx="19" cy="44" r="4"></circle>
    <path class="heroicon-shadows" d="M3 19h39a11.1 11.1 0 0 0 6.83-2.83L55 10V9h-2l-4.17 4.17A11.1 11.1 0 0 1 42 16H3v3zm10 8h12v3H13v-3zm4 6h4v3h-4v-3zM5 46h4v3H5v-3z"></path>
    <path class="heroicon-outline" fill-rule="nonzero" d="M60 2l-6 6h2v14h-4v2H42v4H26v3l-3 3h-1v6a5 5 0 1 1-7 7h-5v4l-4 4v3H0V38h6v3h9c.28-.38.62-.72 1-1v-6h-1l-3-3v-3H8v-2H2V16H0V2h60zM4 54.17V40H2v16h2v-1.83zM8 45h6.1a5.02 5.02 0 0 1 0-2H6v2h2zm0 5.17V47H6v5.17l2-2zM19 39c.34 0 .68.03 1 .1V34h-2v5.1c.32-.07.66-.1 1-.1zm3-7h.17L24 30.17V28H14v2.17L15.83 32H22zm28-20l-1 1v9h1V12zm-2 1.87A11.3 11.3 0 0 1 42 16v6h6v-8.13zM8 24v-5H4v5h4zm0-6v-2H4v2h4zm6 8h26V16h-8v6H14v-6h-4v10h4zm1-5h16v-5H15v5zm27-7a9.16 9.16 0 0 0 5.42-2.25L53.17 6H2v8h40zm12.17-9l1-1H2v1h52.17zM52 10v10h2V10h-2zM19 47a3 3 0 1 0 0-6 3 3 0 0 0 0 6zm0-16a1 1 0 1 1 0-2 1 1 0 0 1 0 2zm19-12a2 2 0 1 1-4 0 2 2 0 0 1 4 0zm-2 1a1 1 0 1 0 0-2 1 1 0 0 0 0 2zM19 45a1 1 0 1 1 0-2 1 1 0 0 1 0 2z"></path>
</svg>
