<svg xmlns="http://www.w3.org/2000/svg" width="60" height="60" viewBox="0 0 60 60" class="heroicon-documentation heroicon heroicon-sm">
    <path class="heroicon-documentation-book-cover heroicon-component-accent heroicon-component-fill" d="M5 51V18H1v37h58V18h-4v33H5z"></path>
    <rect class="heroicon-documentation-book-pages heroicon-component-fill" width="50" height="37" x="5" y="14"></rect>
    <polygon class="heroicon-documentation-block-sides heroicon-component-fill" points="22 8 30 4 38 8 38 19 30 23 22 19"></polygon>
    <polygon class="heroicon-documentation-block-top heroicon-component-accent heroicon-component-fill" points="22 8 30 4 38 8 30 12"></polygon>
    <path class="heroicon-shadows" d="M30 12l8-4v11l-8 4V12zM5 48h50v3H5v-3z"></path>
    <path class="heroicon-outline" fill-rule="nonzero" d="M22 8l2.24-1.12L30 4l5.76 2.88L38 8v5h18v4h4v39H34l-.7.7a1 1 0 0 1-.71.3H27.4a1 1 0 0 1-.7-.3L26 56H0V17h4v-4h18V8zm7 3.5l-4.76-2.38-.24.12v8.52l5 2.5V11.5zm2 0v8.76l5-2.5V9.24l-.24-.12L31 11.5zM33.53 8L30 6.24 26.47 8 30 9.76 33.53 8zM6 22v24h20c1.13 0 2.16.37 3 1V22.5L24 20H10v-1h12v-4H6v7zm0 26v2h22.83A3 3 0 0 0 26 48H6zm25.17 2H54v-2H34a3 3 0 0 0-2.83 2zM54 46V15H38v4h12v1H36l-5 2.5V47c.84-.63 1.87-1 3-1h20zm2 2v4H34v2h24V19h-2v29zm-23 4h-6v2.17l.41.42.42.41h4.34l.42-.41.41-.42V52zm-7 0H4V19H2v35h24v-2zm-3-31v1H10v-1h13zm-13 2h15v1H10v-1zm8 2v1h-8v-1h8zm6 2v1H12v-1h12zm1 2v1H10v-1h15zm-15 2h13v1H10v-1zm9 2v1h-9v-1h9zm-9 2h15v1H10v-1zm14 2v1H10v-1h14zm-14 2h15v1H10v-1zm15 2v1H10v-1h15zm10-20h13v1H35v-1zm15 2v1H35v-1h15zm-15 2h8v1h-8v-1zm14 3H37v-1h12v1zm-14 1h15v1H35v-1zm13 2v1H35v-1h13zm-13 2h9v1h-9v-1zm15 2v1H35v-1h15zm-15 2h14v1H35v-1zm15 2v1H35v-1h15zm-15 2h15v1H35v-1z"></path>
</svg>
