<svg xmlns="http://www.w3.org/2000/svg" width="60" height="60" viewBox="0 0 60 60" class="heroicon-radio heroicon heroicon-sm">
    <rect class="heroicon-radio-housing-outer heroicon-component-fill" width="52" height="32" x="4" y="19" rx="3"></rect>
    <rect class="heroicon-radio-housing-inner heroicon-component-fill" width="46" height="26" x="7" y="22"></rect>
    <rect class="heroicon-radio-interface-background heroicon-component-fill" width="42" height="10" x="9" y="24"></rect>
    <rect class="heroicon-radio-speaker heroicon-component-accent heroicon-component-fill" width="42" height="13" x="9" y="33"></rect>
    <path class="heroicon-radio-handle-bar heroicon-component-fill" d="M10 8v1H6a3 3 0 0 0-3 3v12H2V12a4 4 0 0 1 4-4h4zm44 1h-4V8h4a4 4 0 0 1 4 4v12h-1V12a3 3 0 0 0-3-3z"></path>
    <path class="heroicon-radio-handle-connector heroicon-component-accent heroicon-component-fill" d="M1 25h3v6H1v-6zm55 0h3v6h-3v-6z"></path>
    <rect class="heroicon-radio-handle heroicon-component-accent heroicon-component-fill" width="38" height="3" x="11" y="7"></rect>
    <path class="heroicon-radio-knobs heroicon-component-accent heroicon-component-fill" d="M15 32a3 3 0 1 1 0-6 3 3 0 0 1 0 6zm30 0a3 3 0 1 1 0-6 3 3 0 0 1 0 6z"></path>
    <rect class="heroicon-radio-controls heroicon-component-accent heroicon-component-fill" width="16" height="3" x="22" y="16"></rect>
    <rect class="heroicon-radio-dial heroicon-component-accent heroicon-component-fill" width="18" height="4" x="21" y="27"></rect>
    <path class="heroicon-shadows" d="M7 22h46l-3 3v1H10v-1l-3-3zm5.04 7.5a3 3 0 0 0 5.92 0 3 3 0 1 1-5.92 0zm30 0a3 3 0 0 0 5.92 0 3 3 0 1 1-5.92 0zM1 28h3v3H1v-3zm55 0h3v3h-3v-3z"></path>
    <path class="heroicon-outline" fill-rule="nonzero" d="M54 7a5 5 0 0 1 5 5v12h1v8h-3v16a4 4 0 0 1-4 4h-2v2h-8v-2H17v2H9v-2H7a4 4 0 0 1-4-4V32H0v-8h1V12a5 5 0 0 1 5-5h4V6h40v1h4zM12 8v1h36V8H12zm-2 0H6a4 4 0 0 0-4 4v12h1V12a3 3 0 0 1 3-3h4V8zm-4 2a2 2 0 0 0-2 2v7.35A3.99 3.99 0 0 1 7 18h15v-2h16v2h15c1.2 0 2.27.52 3 1.35V12a2 2 0 0 0-2-2h-4v1H10v-1H6zm17 8h4v-1h-4v1zm5 0h4v-1h-4v1zm5 0h4v-1h-4v1zm21-9a3 3 0 0 1 3 3v12h1V12a4 4 0 0 0-4-4h-4v1h4zm3 21h1v-4h-1v4zm-2 18V22a2 2 0 0 0-2-2H7a2 2 0 0 0-2 2v26c0 1.1.9 2 2 2h46a2 2 0 0 0 2-2zM3 30v-4H2v4h1zm5-8h45v26H7V22h1zm44 1H8v24h44V23zm-1 10v13H9V24h42v9zm-1-8H10v8h40v-8zm-29 2h18v4H21v-4zm1 1v2h16v-2H22zm-7 4a3 3 0 1 1 0-6 3 3 0 0 1 0 6zm2-3a2 2 0 1 0-4 0 2 2 0 0 0 4 0zm-1 0a1 1 0 1 1-2 0 1 1 0 0 1 2 0zm29 3a3 3 0 1 1 0-6 3 3 0 0 1 0 6zm2-3a2 2 0 1 0-4 0 2 2 0 0 0 4 0zm-1 0a1 1 0 1 1-2 0 1 1 0 0 1 2 0zm4 13v-2H10v2h40zm-40 1v2h40v-2H10zm40-6H10v2h40v-2zm0-3H10v2h40v-2z"></path>
</svg>
