<svg xmlns="http://www.w3.org/2000/svg" width="60" height="60" viewBox="0 0 60 60" class="heroicon-male1 heroicon heroicon-sm">
    <path class="heroicon-male1-top heroicon-component-accent heroicon-component-fill" d="M23 40.77L6.64 49.58A5.52 5.52 0 0 0 4 54v6h52v-6a5.52 5.52 0 0 0-2.64-4.42L37 40.77V46a7 7 0 0 1-14 0v-5.24z"></path>
    <path class="heroicon-male1-collar heroicon-component-accent heroicon-component-fill" d="M23 43.04l-2 1.08V46a9 9 0 0 0 18 0v-1.88l-2-1.08V46a7 7 0 1 1-14 0v-2.96z"></path>
    <path class="heroicon-male1-hair heroicon-component-fill" d="M26.44 3.09A2.5 2.5 0 0 1 28.5 2c.56-.01.94.11 1.38.41l.47.31.5-.24A4.59 4.59 0 0 1 33 2a4.6 4.6 0 0 1 3.1 1.07l.48.39.56-.27c.3-.14.52-.2.86-.19a2 2 0 0 1 1.89 1.34l.21.61.64.06a2.5 2.5 0 0 1 2.25 2.25l.06.64.6.21a2 2 0 0 1-.87 3.88l-.45-.05-.33.3c-.57.53-1.17.78-2 .76a3 3 0 0 1-2.64-1.58l-.54-1-.92.66A4.6 4.6 0 0 1 33 12a4.6 4.6 0 0 1-2.93-.95l-.65-.47-.6.54c-.66.6-1.37.9-2.32.88-.94 0-1.79-.37-2.42-.97l-.91-.87-.64 1.1a3.5 3.5 0 0 1-3.92 1.63l-.63-.17-.4.52A2 2 0 0 1 14 12a2 2 0 0 1 1.34-1.89l.62-.22.05-.65A3.5 3.5 0 0 1 19.3 6l.67-.04.22-.63a3.5 3.5 0 0 1 4.94-1.93l.79.42.5-.74z"></path>
    <path class="heroicon-male1-face heroicon-component-fill" d="M16 20v-6a2 2 0 0 0 1.57-.76l.4-.52.64.17a3.5 3.5 0 0 0 3.92-1.63l.64-1.1.91.87c.63.6 1.48.97 2.42.97.95.02 1.66-.28 2.32-.88l.6-.54.65.47A4.6 4.6 0 0 0 33 12a4.6 4.6 0 0 0 2.9-.92l.92-.66.54 1A3 3 0 0 0 40 13c.83.02 1.43-.23 2-.76l.33-.3.45.05.22.01a2 2 0 0 0 1-.27V20h.01a4 4 0 0 1 0 8H44v1c0 5.19-2.81 9.7-7 12.13V46a7 7 0 0 1-14 0v-4.87c-4.18-2.42-7-6.94-7-12.12V28h-.01a4 4 0 0 1 0-8H16z"></path>
    <path class="heroicon-male1-mouth heroicon-component-fill" d="M30 37a5 5 0 0 1-4-2h8a5 5 0 0 1-4 2z"></path>
    <path class="heroicon-male1-teeth heroicon-component-fill" d="M25.1 33c.07.35.18.68.32 1h9.16c.14-.32.25-.65.32-1h-9.8z"></path>
    <path class="heroicon-shadows" d="M18 15.46c.26-.14.5-.32.71-.52a5.49 5.49 0 0 0 4.88-1.77 5.48 5.48 0 0 0 5.94-.1c1.02.57 2.26.92 3.47.93 1.1-.01 2.22-.3 3.18-.78A4.99 4.99 0 0 0 40 15a5.33 5.33 0 0 0 2-.45v2c-.63.27-1.32.44-2 .45-1.53 0-2.9-.7-3.82-1.78-.96.48-2.08.77-3.18.78a7.46 7.46 0 0 1-3.47-.93 5.48 5.48 0 0 1-5.94.1 5.49 5.49 0 0 1-4.88 1.77c-.21.2-.45.38-.71.52v-2zm4.68 25.48C21.73 40.35 26.11 43 30 43s8.27-2.65 7.32-2.06l6.55 3.53A17.96 17.96 0 0 1 30 51a17.96 17.96 0 0 1-13.87-6.53l6.55-3.53z"></path>
    <path class="heroicon-outline" fill-rule="nonzero" d="M28.5 0c.67 0 1.38.19 1.98.47C31.26.18 32.15.01 33 0c1.38.01 2.77.47 3.87 1.17a4 4 0 0 1 4.66 1.95 4.5 4.5 0 0 1 3.35 3.35 4 4 0 0 1-.88 7.4V20a4 4 0 1 1 0 8v1a14 14 0 0 1-6.68 11.94l16.04 8.64A5.52 5.52 0 0 1 56 54v6H4v-6a5.52 5.52 0 0 1 2.64-4.42l16.04-8.64A14 14 0 0 1 16 29v-1a4 4 0 0 1 0-8v-4a4 4 0 0 1-1.9-7.52 5.5 5.5 0 0 1 4.46-4.4 5.5 5.5 0 0 1 6.76-2.76A4.49 4.49 0 0 1 28.5 0zM25 42.08V46a5 5 0 0 0 10 0v-3.92a13.97 13.97 0 0 1-10 0zm17-27.53c-.63.27-1.32.44-2 .45-1.53 0-2.9-.7-3.82-1.78-.96.48-2.08.77-3.18.78a7.46 7.46 0 0 1-3.47-.93 5.48 5.48 0 0 1-5.94.1 5.49 5.49 0 0 1-4.88 1.77c-.21.2-.45.38-.71.52V29a12 12 0 0 0 24 0V14.55zM26.44 3.1l-.51.74-.79-.42a3.5 3.5 0 0 0-4.94 1.93l-.22.63-.67.04A3.5 3.5 0 0 0 16 9.24l-.05.65-.62.22a2 2 0 1 0 2.23 3.13l.4-.52.64.17a3.5 3.5 0 0 0 3.92-1.63l.64-1.1.91.87c.63.6 1.48.97 2.42.97.95.02 1.66-.28 2.32-.88l.6-.54.65.47A4.6 4.6 0 0 0 33 12a4.6 4.6 0 0 0 2.9-.92l.92-.66.54 1A3 3 0 0 0 40 13c.83.02 1.43-.23 2-.76l.33-.3.45.05.22.01a2 2 0 0 0 .66-3.89l-.61-.21-.06-.64a2.5 2.5 0 0 0-2.25-2.25l-.64-.06-.21-.6A2 2 0 0 0 38 3c-.34 0-.56.05-.86.2l-.56.26-.48-.39A4.6 4.6 0 0 0 33 2c-.8 0-1.46.15-2.14.48l-.51.24-.47-.3c-.44-.3-.82-.43-1.38-.42a2.5 2.5 0 0 0-2.06 1.09zM14 24c0 1.1.9 2 2 2v-4a2 2 0 0 0-2 2zm32 0a2 2 0 0 0-2-2v4a2 2 0 0 0 2-2zM23 43.04l-2 1.08V46a9 9 0 0 0 18 0v-1.88l-2-1.08V46a7 7 0 1 1-14 0v-2.96zM40 46a10 10 0 0 1-20 0v-1.34L7.58 51.34A3.57 3.57 0 0 0 6 54v4h5v-4h1v4h36v-4h1v4h5v-4c0-.92-.78-2.22-1.58-2.66L40 44.66V46zM25 19a5 5 0 0 1 1.58.26l-.31.94a4 4 0 0 0-4.85 2.01l-.9-.45A5 5 0 0 1 25 19zm0 6a1 1 0 1 1 0-2 1 1 0 0 1 0 2zm14.47-3.24l-.9.45a4 4 0 0 0-4.84-2l-.31-.95a5 5 0 0 1 6.05 2.5zM35 25a1 1 0 1 1 0-2 1 1 0 0 1 0 2zm-7.83 3.83l.7-.7a3 3 0 0 0 4.25 0l.7.7a3.99 3.99 0 0 1-5.65 0zM24 32h12a6 6 0 0 1-12 0zm6 5a5 5 0 0 0 4-2h-8a5 5 0 0 0 4 2zm-4.9-4c.07.35.18.68.32 1h9.16c.14-.32.25-.65.32-1h-9.8z"></path>
</svg>
