<svg xmlns="http://www.w3.org/2000/svg" width="60" height="60" viewBox="0 0 60 60" class="heroicon-document-minus heroicon heroicon-sm">
    <path class="heroicon-document-minus-page heroicon-component-fill" d="M47 36V10a9 9 0 0 0-9-9H1v58h41.2A12 12 0 0 1 47 36z"></path>
    <path class="heroicon-document-minus-fold heroicon-component-accent heroicon-component-fill" d="M38 10h5c1.07 0 2.1.24 3 .67V10a8 8 0 0 0-8-8v8z"></path>
    <circle class="heroicon-document-minus-circle heroicon-component-accent heroicon-component-fill" cx="47" cy="48" r="12"></circle>
    <rect class="heroicon-document-minus-symbol heroicon-component-fill" width="14" height="4" x="40" y="46"></rect>
    <path class="heroicon-shadows" d="M48 11v8-.5c0-2.48-2-4.5-4.5-4.5H36v-3h12z"></path>
    <path class="heroicon-outline" fill-rule="nonzero" d="M46 60H0V0h38a10 10 0 0 1 10 10v26.04a12 12 0 0 1 0 23.92V60h-2zM38 2v8h5c1.07 0 2.1.24 3 .67V10a8 8 0 0 0-8-8zm8 11c-.84-.63-1.87-1-3-1H8v-1h28v-1H8V9h28V2H2v56h38.36a11.99 11.99 0 0 1-4.98-13H8v-1h27.68c.12-.34.26-.67.4-1H8v-1h28.6c.2-.34.42-.68.65-1H8v-1h30.06c.31-.35.65-.69 1-1H8v-1h32v.25a11.93 11.93 0 0 1 6-2.2V13zm1 45a10 10 0 1 0 0-20 10 10 0 0 0 0 20zm-7-12h14v4H40v-4zm1 1v2h12v-2H41zM28 17v1H8v-1h20zm0 29v1H8v-1h20zm12-11v1H8v-1h32zm-2-2v1H8v-1h30zm0-2v1H8v-1h30zm2-2v1H8v-1h32zm-7-3v1H8v-1h25zm6-2v1H8v-1h31zm1-2v1H8v-1h32zm-2-2v1H8v-1h30zm0-5v1H8v-1h30zm2-2v1H8v-1h32z"></path>
</svg>
