<svg xmlns="http://www.w3.org/2000/svg" width="60" height="60" viewBox="0 0 60 60" class="heroicon-folder-lock heroicon heroicon-sm">
    <polygon class="heroicon-folder-lock-tab heroicon-component-accent heroicon-component-fill" points="1 2 27 2 33 8 59 8 59 12 1 12"></polygon>
    <path class="heroicon-folder-lock-cover heroicon-component-fill" d="M59 48V12H1v36h36a11 11 0 0 1 22 0z"></path>
    <circle class="heroicon-folder-lock-circle heroicon-component-accent heroicon-component-fill" cx="48" cy="48" r="11"></circle>
    <path class="heroicon-folder-lock-symbol heroicon-component-fill" d="M43 46v-1a5 5 0 0 1 10 0v1h2v8H41v-8h2zm6 0v-1a1 1 0 0 0-2 0v1h2z"></path>
    <rect class="heroicon-shadows" width="58" height="2" x="1" y="10"></rect>
    <path class="heroicon-outline" fill-rule="nonzero" d="M33 7h25a2 2 0 0 1 2 2v38c0 .1 0 .2-.02.29L60 48a12 12 0 0 1-23.96 1H2a2 2 0 0 1-2-2V3c0-1.1.9-2 2-2h25l6 6zm25 34.36V15H2v32h34.04A12 12 0 0 1 58 41.36zM58 14v-1H2v1h56zm0-5H32.17l-.58-.59L26.17 3H2v8h56V9zm0 39a10 10 0 1 0-20 0 10 10 0 0 0 20 0zm-15-2v-1a5 5 0 0 1 10 0v1h2v8H41v-8h2zM4 8h18v1H4V8zm0-3h22v1H4V5zm46 41h2v-1a4 4 0 1 0-8 0v1h2v-1a2 2 0 1 1 4 0v1zm-8 7h12v-6H42v6zm7-7v-1a1 1 0 0 0-2 0v1h2z"></path>
</svg>
