<svg xmlns="http://www.w3.org/2000/svg" width="60" height="60" viewBox="0 0 60 60" class="heroicon-repair heroicon heroicon-sm">
    <path class="heroicon-repair-bottom heroicon-component-accent heroicon-component-fill" d="M20.49 3.51A12 12 0 0 0 3.5 20.5l36 36A12 12 0 0 0 56.5 39.5l-36-36z"></path>
    <path class="heroicon-repair-top heroicon-component-fill" d="M3.51 39.51A12 12 0 0 0 20.5 56.5l36-36A12 12 0 1 0 39.5 3.5l-36 36z"></path>
    <polygon class="heroicon-shadows" points="45 30 48 33 33 48 30 45"></polygon>
    <path class="heroicon-outline" fill-rule="nonzero" d="M30 13.03l9.51-9.52A12 12 0 0 1 56.5 20.5L46.97 30l9.52 9.51A12 12 0 0 1 39.5 56.5L30 46.97l-9.51 9.52A12 12 0 1 1 3.5 39.5L13.03 30 3.5 20.49A12 12 0 0 1 20.5 3.5L30 13.03zM4.93 4.93a10 10 0 0 0 0 14.14l9.51 9.52L28.6 14.44l-9.52-9.51a10 10 0 0 0-14.14 0zM45.56 31.4L31.4 45.56l9.52 9.51a10 10 0 0 0 14.14-14.14l-9.51-9.52zm9.51-26.48a10 10 0 0 0-14.14 0L30.7 15.15l5.57 5.57-.7.7L30 15.87 15.86 30l5.57 5.57-.7.7-5.58-5.56L4.93 40.93a10 10 0 0 0 14.14 14.14L29.3 44.85l-1.57-1.57.7-.7L30 44.13 44.14 30l-1.57-1.57.7-.7 1.58 1.56 10.22-10.22a10 10 0 0 0 0-14.14zM16 5a1 1 0 1 1-2 0 1 1 0 0 1 2 0zM6 10a1 1 0 1 1-2 0 1 1 0 0 1 2 0zm5 0a1 1 0 1 1-2 0 1 1 0 0 1 2 0zm4 6a1 1 0 1 1 0-2 1 1 0 0 1 0 2zm-9-1a1 1 0 1 1-2 0 1 1 0 0 1 2 0zm4 6a1 1 0 1 1 0-2 1 1 0 0 1 0 2zm10-10a1 1 0 1 1 0-2 1 1 0 0 1 0 2zm1 9a1 1 0 1 1-2 0 1 1 0 0 1 2 0zm-6 6a1 1 0 1 1 0-2 1 1 0 0 1 0 2zm11-11a1 1 0 1 1-2 0 1 1 0 0 1 2 0zM10 6a1 1 0 1 1 0-2 1 1 0 0 1 0 2zm1 9a1 1 0 1 1-2 0 1 1 0 0 1 2 0zm4-4a1 1 0 1 1 0-2 1 1 0 0 1 0 2zm1 9a1 1 0 1 1-2 0 1 1 0 0 1 2 0zm4-4a1 1 0 1 1 0-2 1 1 0 0 1 0 2zm35 33a1 1 0 1 1 0 2 1 1 0 0 1 0-2zm-6 1a1 1 0 1 1 2 0 1 1 0 0 1-2 0zm-4-6a1 1 0 1 1 0 2 1 1 0 0 1 0-2zm9 1a1 1 0 1 1 2 0 1 1 0 0 1-2 0zm-4-6a1 1 0 1 1 0 2 1 1 0 0 1 0-2zm-6 16a1 1 0 1 1 2 0 1 1 0 0 1-2 0zm-4-6a1 1 0 1 1 0 2 1 1 0 0 1 0-2zm-1-9a1 1 0 1 1 2 0 1 1 0 0 1-2 0zm6-6a1 1 0 1 1 0 2 1 1 0 0 1 0-2zM34 45a1 1 0 1 1 2 0 1 1 0 0 1-2 0zm16 9a1 1 0 1 1 0 2 1 1 0 0 1 0-2zm-1-9a1 1 0 1 1 2 0 1 1 0 0 1-2 0zm-4 4a1 1 0 1 1 0 2 1 1 0 0 1 0-2zm-1-9a1 1 0 1 1 2 0 1 1 0 0 1-2 0zm-4 4a1 1 0 1 1 0 2 1 1 0 0 1 0-2zm1.28-18.28l-.7.7-2-2 .7-.7 2 2zM25.72 41.28l-2-2 .7-.7 2 2-.7.7zM50 6a1 1 0 1 1 0-2 1 1 0 0 1 0 2zM10 54a1 1 0 1 1 0 2 1 1 0 0 1 0-2zm39-44a1 1 0 1 1 2 0 1 1 0 0 1-2 0zM11 50a1 1 0 1 1-2 0 1 1 0 0 1 2 0zm34-34a1 1 0 1 1 0-2 1 1 0 0 1 0 2zM15 44a1 1 0 1 1 0 2 1 1 0 0 1 0-2zM44 5a1 1 0 1 1 2 0 1 1 0 0 1-2 0zM16 55a1 1 0 1 1-2 0 1 1 0 0 1 2 0zm24-44a1 1 0 1 1 0-2 1 1 0 0 1 0 2zM20 49a1 1 0 1 1 0 2 1 1 0 0 1 0-2zm34-34a1 1 0 1 1 2 0 1 1 0 0 1-2 0zM6 45a1 1 0 1 1-2 0 1 1 0 0 1 2 0zm44-24a1 1 0 1 1 0-2 1 1 0 0 1 0 2zM10 39a1 1 0 1 1 0 2 1 1 0 0 1 0-2zm29-19a1 1 0 1 1 2 0 1 1 0 0 1-2 0zM21 40a1 1 0 1 1-2 0 1 1 0 0 1 2 0zm14-24a1 1 0 1 1 0-2 1 1 0 0 1 0 2zM25 44a1 1 0 1 1 0 2 1 1 0 0 1 0-2zm19-19a1 1 0 1 1 2 0 1 1 0 0 1-2 0zM16 35a1 1 0 1 1-2 0 1 1 0 0 1 2 0zm39-24a1 1 0 1 1 0-2 1 1 0 0 1 0 2zM5 49a1 1 0 1 1 0 2 1 1 0 0 1 0-2zm39-39a1 1 0 1 1 2 0 1 1 0 0 1-2 0zM16 50a1 1 0 1 1-2 0 1 1 0 0 1 2 0zm34-34a1 1 0 1 1 0-2 1 1 0 0 1 0 2zM10 44a1 1 0 1 1 0 2 1 1 0 0 1 0-2zm29-29a1 1 0 1 1 2 0 1 1 0 0 1-2 0zM21 45a1 1 0 1 1-2 0 1 1 0 0 1 2 0zm24-24a1 1 0 1 1 0-2 1 1 0 0 1 0 2zM15 39a1 1 0 1 1 0 2 1 1 0 0 1 0-2zm16.07-14.71l.86.5-4 6.92-.86-.5 4-6.92zm1 3l.86.5-4 6.92-.86-.5 4-6.92z"></path>
</svg>
