<svg xmlns="http://www.w3.org/2000/svg" width="60" height="60" viewBox="0 0 60 60" class="heroicon-contract-block heroicon heroicon-sm">
    <path class="heroicon-contract-block-pages heroicon-component-fill" d="M47 36V1H1v58h41.2A12 12 0 0 1 47 36z"></path>
    <circle class="heroicon-contract-block-circle heroicon-component-accent heroicon-component-fill" cx="47" cy="48" r="12"></circle>
    <path class="heroicon-contract-block-symbol heroicon-component-fill" d="M52.66 53.66a8 8 0 1 1-11.32-11.32 8 8 0 0 1 11.32 11.32zm-8.49-8.49a4 4 0 0 0-1.04 3.86l4.9-4.9a4 4 0 0 0-3.86 1.04zm5.66 5.66a4 4 0 0 0 1.04-3.86l-4.9 4.9a4 4 0 0 0 3.86-1.04z"></path>
    <path class="heroicon-shadows" d="M35.68 52H1v7h41.2a12.04 12.04 0 0 1-6.52-7z"></path>
    <path class="heroicon-outline" fill-rule="nonzero" d="M48 2v34.04a12 12 0 0 1 0 23.92V60H0V0h48v2zm9 46a10 10 0 1 0-20 0 10 10 0 0 0 20 0zm-4.34 5.66a8 8 0 1 1-11.32-11.32 8 8 0 0 1 11.32 11.32zM42.05 43.05a7 7 0 1 0 9.9 9.9 7 7 0 0 0-9.9-9.9zm.3 6.77a5 5 0 0 1 7.4-6l-.72.73-5.48 5.48-.72.72c-.2-.3-.36-.6-.49-.93h.01zm1.9 2.35l.72-.72 5.48-5.48.72-.72a5 5 0 0 1-6.93 6.93l.01-.01zm-.08-7a4 4 0 0 0-1.04 3.86l4.9-4.9a4 4 0 0 0-3.86 1.04zm5.66 5.66a4 4 0 0 0 1.04-3.86l-4.9 4.9a4 4 0 0 0 3.86-1.04zM35.38 51A12.02 12.02 0 0 1 46 36.04V2H2v49h33.38zm3.68 6H31v-1h7.06a9.47 9.47 0 0 1-.8-1H27v-1h9.6c-.18-.32-.35-.66-.51-1H2v1h12v1H2v1h18v1H2v1h38.36c-.45-.3-.89-.64-1.3-1zM8 17h20v1H8v-1zm7.35 21.65L17 40.29l.65-.64.35-.36.35.36.65.64.65-.64.35-.36.35.36 1 1-.7.7-.65-.64-.65.64-.35.36-.35-.36-.65-.64-.65.64-.35.36-.35-.36L15 39.71l-1.65 1.64-.35.36-.35-.36-.65-.64-.65.64-.35.36-.35-.36-.65-.64-.65.64-.7-.7 1-1 .35-.36.35.36.65.64.65-.64.35-.36.35.36.65.64 1.65-1.64.35-.36.35.36zM26.5 41.2l-1.15 1.14-.7-.7 1.14-1.15-1.14-1.15.7-.7 1.15 1.14 1.15-1.14.7.7-1.14 1.15 1.14 1.15-.7.7-1.15-1.14zM24 43v1H8v-1h16zM8 35h12v1H8v-1zm26-2v1H8v-1h26zM8 31h30v1H8v-1zm32-2v1H8v-1h32zM8 26h25v1H8v-1zm31-2v1H8v-1h31zM8 22h32v1H8v-1zm30-2v1H8v-1h30zM8 15h30v1H8v-1zm32-2v1H8v-1h32zM8 11h28v1H8v-1zm0-2h28v1H8V9z"></path>
</svg>
