<svg xmlns="http://www.w3.org/2000/svg" width="60" height="60" viewBox="0 0 60 60" class="heroicon-document-search heroicon heroicon-sm">
    <path class="heroicon-document-search-page heroicon-component-fill" d="M47 36V10a9 9 0 0 0-9-9H1v58h41.2A12 12 0 0 1 47 36z"></path>
    <path class="heroicon-document-search-fold heroicon-component-accent heroicon-component-fill" d="M38 10h5c1.07 0 2.1.24 3 .67V10a8 8 0 0 0-8-8v8z"></path>
    <circle class="heroicon-document-search-circle heroicon-component-accent heroicon-component-fill" cx="47" cy="48" r="12"></circle>
    <path class="heroicon-document-search-symbol heroicon-component-fill" d="M50.24 42.76a6 6 0 0 1 1.18 6.83l1.36 1.36.7.7-.7.71-1.42 1.42-.7.7-.71-.7-1.36-1.36a6 6 0 1 1 1.65-9.66zm-5.65 2.83a2 2 0 1 0 2.82 2.82 2 2 0 0 0-2.82-2.82z"></path>
    <path class="heroicon-shadows" d="M48 11v8-.5c0-2.48-2-4.5-4.5-4.5H36v-3h12z"></path>
    <path class="heroicon-outline" fill-rule="nonzero" d="M46 60H0V0h38a10 10 0 0 1 10 10v26.04a12 12 0 0 1 0 23.92V60h-2zm0-47c-.84-.63-1.87-1-3-1H8v-1h28v-1H8V9h28V2H2v56h38.36a11.99 11.99 0 0 1-4.98-13H8v-1h27.68c.12-.34.26-.67.4-1H8v-1h28.6c.2-.34.42-.68.65-1H8v-1h30.06c.31-.35.65-.69 1-1H8v-1h32v.25a11.93 11.93 0 0 1 6-2.2V13zM38 2v8h5c1.07 0 2.1.24 3 .67V10a8 8 0 0 0-8-8zm9 56a10 10 0 1 0 0-20 10 10 0 0 0 0 20zm4.42-8.41l1.36 1.36.7.7-.7.71-1.42 1.42-.7.7-.71-.7-1.36-1.36a6 6 0 1 1 2.83-2.83zm-1.47 2.77l.7.71.71-.7.7-.7.01-.01v-.01l-1.9-1.9a5 5 0 1 0-1.41 1.42l1.19 1.2v-.01zm-1.76-3.31a3 3 0 1 1-4.38-4.1 3 3 0 0 1 4.38 4.1zm-.67-3.38a2.02 2.02 0 1 0-2.86 2.84 2.02 2.02 0 0 0 2.85-2.84h.01zM28 17v1H8v-1h20zm0 29v1H8v-1h20zm12-11v1H8v-1h32zm-2-2v1H8v-1h30zm0-2v1H8v-1h30zm2-2v1H8v-1h32zm-7-3v1H8v-1h25zm6-2v1H8v-1h31zm1-2v1H8v-1h32zm-2-2v1H8v-1h30zm0-5v1H8v-1h30zm2-2v1H8v-1h32z"></path>
</svg>
