<svg xmlns="http://www.w3.org/2000/svg" width="60" height="60" viewBox="0 0 60 60" class="heroicon-paint-brush heroicon heroicon-sm">
    <rect class="heroicon-paint-brush-bristles heroicon-component-fill" width="40" height="13" x="10" y="9"></rect>
    <path class="heroicon-paint-brush-paint heroicon-component-accent heroicon-component-fill" d="M36 9a2 2 0 0 0-2 2v2.5a1.5 1.5 0 1 1-3 0V11a2 2 0 0 0-2-2H10V2a1 1 0 0 1 1-1h38a1 1 0 0 1 1 1v7h-6a2 2 0 0 0-2 2v5a2 2 0 1 1-4 0v-5a2 2 0 0 0-2-2z"></path>
    <rect class="heroicon-paint-brush-ferrule heroicon-component-fill" width="40" height="10" x="10" y="22"></rect>
    <path class="heroicon-paint-brush-handle heroicon-component-fill" d="M10 32h40v2.5a4.8 4.8 0 0 1-2.79 4.11L37.8 42.4A4.79 4.79 0 0 0 35 46.5V54a5 5 0 0 1-10 0v-7.5a4.8 4.8 0 0 0-2.79-4.11L12.8 38.6A4.78 4.78 0 0 1 10 34.5V32z"></path>
    <path class="heroicon-shadows" d="M11 10h19v1H11v-1zm24 0h2v1h-2v-1zm8 0h6v1h-6v-1zm-8 4.5a2.5 2.5 0 1 1-5 0v-1a2.5 2.5 0 1 0 5 0v1zm8 2.5a3 3 0 0 1-6 0v-1a3 3 0 1 0 6 0v1zM11 33h38v1H11v-1z"></path>
    <path class="heroicon-outline" fill-rule="nonzero" d="M11 0h38a2 2 0 0 1 2 2v32c0 2.21-1.66 4.66-3.7 5.48l-9.45 3.78A3.18 3.18 0 0 0 36 45.99v8a6 6 0 0 1-12 0v-8c0-1.1-.83-2.32-1.85-2.73l-9.44-3.78A6.35 6.35 0 0 1 9 34.01V2c0-1.1.9-2 2-2zm38 24v-1H11v1h38zm-38 1v6h38v-6H11zm0-7.79V21h1v-2h1v2h13v-9h1v9h7v-3h1v3h8v-3h1v3h3v-9h1v9h1V10h-3v3h-1v-3h-1a1 1 0 0 0-1 1v5a3 3 0 1 1-6 0v-5a1 1 0 1 0-2 0v2.5a2.5 2.5 0 0 1-5 0V11a1 1 0 0 0-1-1v9h-1v-9h-3v3h-1v-3h-3v7h-1v-7h-1v3h-1v-3h-3v9h-1v-9h-1v6h-1v-6h-1v7.21zM49 7V2H11v6h18a3 3 0 0 1 3 3v2.5a.5.5 0 1 0 1 0V11a3 3 0 0 1 6 0v5a1 1 0 1 0 2 0v-5a3 3 0 0 1 3-3h5V7zm0 26H11v1c0 1.4 1.16 3.11 2.45 3.63l9.44 3.77A5.17 5.17 0 0 1 26 46v8a4 4 0 1 0 8 0v-8a5.17 5.17 0 0 1 3.11-4.6l9.44-3.77A4.39 4.39 0 0 0 49 34V33zm-36-5a1 1 0 1 1 0-2 1 1 0 0 1 0 2zm12-1a1 1 0 1 1-2 0 1 1 0 0 1 2 0zm11 1a1 1 0 1 1 0-2 1 1 0 0 1 0 2zm12-1a1 1 0 1 1-2 0 1 1 0 0 1 2 0zM18 14h1v2h-1v-2zm7 0v4h-1v-4h1zm21 0v4h-1v-4h1zM13 3h34v1H13V3zm17 52a2 2 0 1 1 0-4 2 2 0 0 1 0 4zm1-2a1 1 0 1 0-2 0 1 1 0 0 0 2 0z"></path>
</svg>
