<svg xmlns="http://www.w3.org/2000/svg" width="60" height="60" viewBox="0 0 60 60" class="heroicon-cloud-sync heroicon heroicon-sm">
    <path class="heroicon-cloud-sync-background heroicon-component-fill" d="M41.96 45H49a11 11 0 0 0 2.9-21.61 10 10 0 0 0-10.66-11.36 16 16 0 0 0-29.13 7A13 13 0 0 0 13.01 45h5.04a12 12 0 1 1 23.92 0z"></path>
    <circle class="heroicon-cloud-sync-circle heroicon-component-accent heroicon-component-fill" cx="30" cy="44" r="12"></circle>
    <path class="heroicon-cloud-sync-symbol heroicon-component-fill" d="M31 53.41L26.59 49 31 44.59v2.24a3 3 0 0 0 1.92-3.5l-.12-.54 2.99-2.99.6 1.32A7 7 0 0 1 31 50.93l-.01 2.48H31zM33.41 39L29 43.41v-2.24a3 3 0 0 0-1.92 3.5l.12.54-2.99 2.99-.6-1.32A7 7 0 0 1 29 37.07l.01-2.48 4.4 4.41z"></path>
    <path class="heroicon-shadows" d="M18.38 41a12.02 12.02 0 0 0-.34 4H13A13 13 0 0 1 .15 30 13 13 0 0 0 13 41h5.38zm23.24 0H49a11 11 0 0 0 10.82-9A11 11 0 0 1 49 45h-7.04a12.16 12.16 0 0 0-.34-4z"></path>
    <path class="heroicon-outline" fill-rule="nonzero" d="M49 45h-7.04a12 12 0 0 1-23.92 0H13a13 13 0 0 1-.88-25.97 16 16 0 0 1 29.13-7L42 12a10 10 0 0 1 9.9 11.39A11 11 0 0 1 49 45zm-9.4-31.85a14 14 0 0 0-25.49 6.12l-.2 1.64-1.66.11A11 11 0 0 0 13 43h5.04a12 12 0 0 1 23.28-3H49a6 6 0 0 0 5.37-3.32l.9.45A7 7 0 0 1 49 41h-7.38c.17.65.28 1.32.34 2H49a9 9 0 0 0 2.38-17.68l-1.7-.47.24-1.74a8 8 0 0 0-8.53-9.09l-1.15.09-.65-.96h.01zM30 54a10 10 0 1 0 0-20 10 10 0 0 0 0 20zM17.26 15.63A12 12 0 0 1 28 9v1a11 11 0 0 0-9.84 6.08l-.9-.45zM29 34.6l4.41 4.4L29 43.41v-2.24a3 3 0 0 0-1.92 3.5l.12.54-2.99 2.99-.6-1.32A7 7 0 0 1 29 37.07l.01-2.48-.01.01zM26.59 49L31 44.59v2.24a3 3 0 0 0 1.92-3.5l-.12-.54 2.99-2.99.6 1.32A7 7 0 0 1 31 50.93l-.01 2.48-4.4-4.41zM26 44a4 4 0 0 1 4-4v1l2-2-2-2v1a6 6 0 0 0-5.47 8.47l1.57-1.57c-.07-.29-.1-.6-.1-.9zm8 0a4 4 0 0 1-4 4v-1l-2 2 2 2v-1a6 6 0 0 0 5.47-8.47L33.9 43.1c.07.29.1.6.1.9z"></path>
</svg>
