<svg xmlns="http://www.w3.org/2000/svg" width="60" height="60" viewBox="0 0 60 60" class="heroicon-headset heroicon heroicon-sm">
    <path class="heroicon-headset-muffs heroicon-component-accent heroicon-component-fill" d="M18 30a2 2 0 1 1 4 0v16a2 2 0 1 1-4 0V30zm20 0a2 2 0 1 1 4 0v16a2 2 0 1 1-4 0V30z"></path>
    <path class="heroicon-headset-hinges heroicon-component-accent heroicon-component-fill" d="M5 35h8v6H5v-6zm42 0h8v6h-8v-6z"></path>
    <path class="heroicon-headset-strap-cushion heroicon-component-accent heroicon-component-fill" d="M18.7 12.3l-1.4-1.42-.08.06A18.93 18.93 0 0 1 30 6c4.89 0 9.34 1.84 12.7 4.88l-1.4 1.41C38.3 9.62 34.32 8 30 8c-4.33 0-8.3 1.62-11.3 4.3z"></path>
    <path class="heroicon-headset-microphone heroicon-component-accent heroicon-component-fill" d="M25 56c0-1.1.9-2 2-2h6a2 2 0 1 1 0 4h-6a2 2 0 0 1-2-2z"></path>
    <path class="heroicon-headset-strap heroicon-component-fill" d="M53 25v9h-2v-9a21 21 0 1 0-42 0v9H7v-9a23 23 0 0 1 46 0zM23.13 55a4.01 4.01 0 0 0 0 2H15a8 8 0 0 1-8-8v-7h2v8a5 5 0 0 0 5 5h9.13z"></path>
    <path class="heroicon-headset-ear-covers heroicon-component-fill" d="M13 32l2-2h3v16h-3l-2-2V32zm34 0v12l-2 2h-3V30h3l2 2z"></path>
    <path class="heroicon-shadows" d="M45 38v1l1-2h1v7l-2 2h-3a2 2 0 0 1-2 2 2 2 0 0 1-2-2v-8h7zm-30 0h7v8a2 2 0 0 1-2 2 2 2 0 0 1-2-2h-3l-2-2v-7h1l1 2v-1zm3.7-25.7l-1.4-1.42-.08.06A18.93 18.93 0 0 1 30 6c4.89 0 9.34 1.84 12.7 4.88l-1.4 1.41C38.3 9.62 34.32 8 30 8c-4.33 0-8.3 1.62-11.3 4.3z"></path>
    <path class="heroicon-outline" fill-rule="nonzero" d="M55 34h1v8h-8v2l-3 3h-2.17A3 3 0 0 1 37 46V30a3 3 0 0 1 5.83-1H45l3 3v2h1v-9c0-5.25-2.13-10-5.56-13.44l-1.42 1.42-.7.7C38.41 10.8 34.41 9 30 9s-8.42 1.8-11.31 4.69l-.71-.71-1.41-1.42A18.94 18.94 0 0 0 11 25v9h1v-2l3-3h2.17A3 3 0 0 1 23 30v16a3 3 0 0 1-5.83 1H15l-3-3v-2h-1v8a3 3 0 0 0 3 3h10.35c.7-.62 1.64-1 2.65-1h6a4 4 0 0 1 0 8h-6a3.98 3.98 0 0 1-2.65-1H15A10 10 0 0 1 5 49v-7H4v-8h1v-9a25 25 0 0 1 50 0v9zm-2-9a23 23 0 0 0-46 0v9h2v-9a21 21 0 1 1 42 0v9h2v-9zM18.7 12.3C21.7 9.61 25.68 8 30 8c4.33 0 8.3 1.62 11.3 4.3l1.4-1.42A18.93 18.93 0 0 0 30 6c-4.92 0-9.4 1.87-12.78 4.94l.07-.06 1.42 1.41zM23.14 55H14a5 5 0 0 1-5-5v-8H7v7a8 8 0 0 0 8 8h8.13a4.01 4.01 0 0 1 0-2zM11 40h1v-4H6v4h5zm3-4v7.17l1 1V31.83l-1 1V36zm2 9h1V31h-1v14zm32-5h6v-4h-6v4zm-2 0v-7.17l-1-1v12.34l1-1V40zm-2-9h-1v14h1V31zm-23-1a1 1 0 1 0-2 0v16a1 1 0 1 0 2 0V30zm20 16V30a1 1 0 1 0-2 0v16a1 1 0 1 0 2 0zM25 56c0 1.1.9 2 2 2h6a2 2 0 1 0 0-4h-6a2 2 0 0 0-2 2z"></path>
</svg>
